 <svg  version="1.0" xmlns="http://www.w3.org/2000/svg"  width="300.000000pt" height="302.000000pt" viewBox="0 0 300.000000 302.000000"  preserveAspectRatio="xMidYMid meet">  <g transform="translate(0.000000,302.000000) scale(0.100000,-0.100000)" fill="#3e85d0" stroke="none"> <path d="M1326 2880 c-611 -77 -1100 -558 -1191 -1170 -20 -135 -16 -335 10 -467 107 -552 546 -985 1107 -1094 126 -24 345 -26 479 -3 280 48 532 179 739 384 202 201 327 433 387 720 25 119 25 401 0 520 -118 562 -546 991 -1091 1095 -96 19 -346 27 -440 15z m274 -43 c0 -6 22 -7 53 -3 36 5 47 3 37 -4 -12 -8 -11 -10 8 -10 13 0 21 4 18 8 -3 5 17 5 45 -1 35 -7 46 -13 37 -19 -8 -6 -1 -7 21 -3 26 6 32 4 26 -5 -5 -9 -4 -11 4 -6 15 9 73 -3 66 -14 -3 -4 5 -6 17 -2 16 4 19 2 13 -8 -5 -9 -4 -11 4 -6 14 9 103 -23 95 -35 -3 -5 3 -6 12 -2 13 5 15 3 9 -7 -5 -8 -4 -11 3 -7 15 10 43 -3 35 -16 -3 -6 -1 -7 6 -3 15 10 142 -64 134 -77 -3 -6 -1 -7 4 -4 6 4 24 -3 39 -15 37 -27 54 -44 35 -33 -10 5 -12 4 -7 -4 4 -6 11 -9 16 -6 4 3 19 -4 31 -16 13 -11 17 -17 9 -13 -8 4 -12 4 -8 0 3 -4 10 -7 15 -7 13 1 113 -102 113 -116 0 -7 6 -12 13 -10 6 1 11 -4 9 -11 -1 -8 2 -11 7 -7 10 6 34 -29 25 -37 -2 -3 4 -11 13 -19 16 -13 17 -12 4 4 -7 9 -11 17 -8 17 3 0 16 -14 28 -32 13 -17 16 -28 8 -23 -7 4 -3 -3 11 -16 37 -35 73 -97 64 -110 -4 -7 -3 -9 3 -6 6 4 14 0 17 -9 3 -8 2 -12 -4 -9 -6 3 -7 -1 -4 -9 3 -9 10 -14 14 -11 11 7 22 -24 13 -37 -4 -7 -1 -8 7 -3 10 6 12 4 7 -9 -4 -9 -3 -15 2 -11 13 7 45 -80 36 -96 -6 -8 -4 -10 5 -4 9 6 10 2 5 -15 -5 -16 -4 -20 5 -15 9 5 10 1 5 -15 -5 -14 -3 -20 3 -16 17 10 54 -165 48 -227 -4 -36 -3 -44 3 -27 5 15 7 -49 5 -160 -2 -147 -7 -203 -24 -270 -31 -129 -41 -155 -51 -139 -6 9 -9 10 -9 2 0 -6 -3 -20 -6 -30 -5 -15 -4 -16 6 -3 18 24 2 -25 -36 -108 -22 -49 -37 -71 -45 -66 -8 4 -9 3 -5 -4 7 -12 -37 -97 -56 -109 -7 -4 -8 -1 -3 7 5 8 4 11 -3 6 -6 -4 -9 -12 -7 -19 3 -7 -7 -25 -21 -42 -14 -16 -22 -23 -18 -15 7 13 5 13 -9 1 -18 -15 -23 -26 -7 -16 6 3 10 2 10 -3 0 -14 -198 -212 -212 -212 -7 0 -6 5 2 15 20 24 5 18 -16 -7 -13 -14 -14 -19 -4 -14 8 4 3 -3 -12 -17 -46 -43 -197 -129 -216 -123 -9 3 -33 -4 -52 -14 -42 -23 -32 -27 11 -4 17 8 33 13 36 10 3 -3 -12 -12 -33 -21 -200 -85 -348 -116 -554 -116 -210 -1 -357 31 -572 125 -60 26 -184 102 -251 153 -72 56 -217 199 -217 215 0 7 12 1 27 -13 l28 -24 -24 27 c-13 15 -28 25 -32 22 -13 -8 -96 114 -153 226 -163 320 -192 689 -80 1030 37 110 133 305 152 305 5 0 14 4 19 9 5 5 2 6 -6 1 -9 -5 -12 -3 -9 6 3 8 10 13 16 12 6 -2 21 12 32 30 l22 32 -26 -30 c-14 -16 -26 -25 -26 -20 0 6 16 28 36 50 20 22 31 32 24 23 -17 -25 -7 -22 16 4 10 12 13 18 7 14 -7 -4 -13 -3 -13 1 0 11 173 183 184 183 5 0 3 -7 -4 -15 -20 -24 -5 -18 16 7 12 13 13 18 4 13 -13 -8 -13 -7 -1 9 8 9 20 15 27 12 7 -3 16 0 20 6 5 7 2 8 -7 3 -12 -8 -12 -6 0 8 16 20 36 23 25 5 -4 -8 -3 -10 2 -5 5 5 9 14 9 20 0 5 6 12 14 15 9 3 11 0 6 -8 -5 -9 -4 -11 4 -6 6 4 9 11 6 16 -7 12 136 91 153 85 7 -3 11 -1 7 4 -14 24 285 115 350 106 31 -4 35 -3 20 5 -14 7 -2 9 45 5 39 -3 57 -2 45 3 -12 6 24 9 93 9 64 -1 112 -5 112 -10z"/> <path d="M1475 2780 c-3 -5 -17 -7 -31 -4 -20 5 -24 2 -24 -14 0 -12 5 -24 10 -27 11 -7 7 -116 -5 -146 -5 -12 2 -15 32 -15 21 0 49 -3 62 -8 l24 -8 -7 90 c-5 60 -4 92 3 97 6 3 11 13 11 22 0 11 -6 14 -22 10 -12 -4 -27 -2 -34 4 -8 7 -14 7 -19 -1z m59 -31 c-7 -12 -94 -11 -94 1 0 5 6 7 14 4 8 -3 16 -1 20 4 3 5 19 7 35 4 17 -2 28 -8 25 -13z m-19 -28 c3 -5 1 -12 -4 -16 -7 -4 -7 -15 -1 -30 7 -18 6 -25 -2 -25 -9 0 -9 -3 -1 -11 15 -15 4 -51 -14 -45 -8 3 -21 6 -29 6 -8 0 -14 5 -14 11 0 6 9 9 20 6 15 -4 20 0 20 14 0 11 -7 19 -16 19 -8 0 -12 -4 -9 -10 3 -5 3 -10 -2 -10 -4 0 -9 23 -10 50 -1 49 -1 50 27 50 16 0 31 -4 35 -9z"/> <path d="M1200 2747 c-26 -13 -37 -43 -39 -110 l-1 -38 -55 45 c-51 41 -58 44 -83 34 -37 -16 -52 -31 -27 -26 28 5 83 -97 66 -124 -14 -22 -13 -22 35 -1 37 16 37 18 13 21 -19 2 -31 15 -52 57 -15 30 -24 55 -21 55 4 0 32 -22 64 -50 32 -27 60 -50 63 -50 2 0 8 34 12 75 4 41 10 75 14 75 13 0 44 -114 32 -118 -6 -2 -11 -8 -11 -13 0 -5 9 -5 23 0 12 5 31 12 42 16 19 7 19 7 1 14 -12 5 -25 29 -37 67 -17 55 -18 60 -2 72 23 17 -3 16 -37 -1z"/> <path d="M1623 2749 c16 -9 18 -19 12 -73 -6 -54 -4 -63 14 -80 11 -10 40 -21 64 -23 55 -7 82 16 92 75 8 51 24 66 58 53 36 -14 38 -23 19 -77 -23 -64 -30 -74 -47 -67 -8 3 -15 1 -15 -5 0 -5 10 -12 23 -15 12 -2 30 -8 40 -12 17 -7 18 -6 6 12 -10 17 -10 29 1 67 7 25 16 46 21 46 9 0 43 -73 61 -131 6 -22 14 -39 17 -39 4 0 21 30 39 66 27 54 36 65 52 61 33 -8 23 8 -15 26 -45 21 -48 21 -33 -2 9 -16 8 -27 -7 -60 -10 -23 -21 -41 -24 -41 -3 0 -19 34 -34 75 -31 83 -42 93 -140 118 -58 15 -69 13 -41 -8 15 -11 15 -16 0 -67 -17 -61 -42 -77 -89 -59 -36 14 -39 24 -31 87 5 46 11 58 28 62 19 6 18 7 -9 13 -16 4 -41 7 -55 8 -22 0 -23 -1 -7 -10z"/> <path d="M918 2626 c-43 -24 -49 -35 -15 -29 19 4 28 -4 50 -46 30 -54 27 -80 -13 -101 -32 -17 -45 -11 -84 41 -32 43 -35 53 -24 66 11 14 11 15 -7 5 -11 -6 -31 -21 -45 -32 -23 -20 -23 -21 -4 -15 18 4 29 -4 59 -45 42 -57 64 -62 116 -27 45 30 48 59 12 124 -24 45 -26 55 -13 63 30 19 3 15 -32 -4z"/> <path d="M2130 2585 c10 -12 5 -26 -24 -74 -25 -41 -42 -58 -51 -54 -27 10 -15 -5 21 -26 43 -26 47 -26 33 -3 -10 15 -6 28 22 70 37 57 49 62 78 33 19 -19 19 -21 1 -103 -10 -45 -17 -84 -16 -85 1 -2 37 11 80 27 81 32 109 32 126 0 8 -14 0 -26 -41 -65 -41 -38 -53 -44 -64 -35 -33 27 -11 -9 38 -64 51 -56 54 -58 77 -45 l25 14 -30 3 c-31 4 -75 37 -75 56 0 6 12 19 26 29 24 18 26 18 38 1 7 -9 11 -26 8 -37 -5 -20 -5 -20 21 -1 31 23 34 34 8 34 -10 0 -24 7 -31 16 -11 13 -10 19 9 37 l22 22 25 -28 c13 -15 24 -40 24 -55 0 -24 1 -25 16 -10 16 15 15 19 -14 55 -17 21 -58 65 -92 98 -50 50 -60 56 -58 37 3 -20 -5 -27 -46 -43 -28 -10 -52 -17 -54 -15 -2 3 2 30 9 60 11 49 15 56 32 50 34 -11 11 11 -68 65 -78 53 -96 61 -75 36z"/> <path d="M1400 2529 c-158 -15 -338 -80 -472 -170 -81 -55 -208 -178 -263 -254 -249 -349 -257 -816 -21 -1169 444 -665 1432 -600 1781 118 71 145 97 248 103 404 5 139 -7 236 -45 357 -145 462 -597 760 -1083 714z m355 -44 c554 -144 878 -712 720 -1260 -100 -344 -371 -609 -720 -702 -87 -23 -120 -26 -250 -27 -168 0 -261 18 -405 78 -207 88 -402 270 -503 471 -40 80 -84 214 -97 297 -17 107 -8 312 18 410 93 345 341 609 677 718 170 56 380 62 560 15z"/> <path d="M1405 2498 c-408 -33 -763 -337 -872 -745 -23 -85 -26 -118 -26 -248 0 -131 3 -162 26 -248 42 -154 124 -307 222 -418 44 -49 145 -133 183 -153 33 -17 33 -17 22 3 -9 17 -8 21 6 21 9 0 18 9 21 20 3 11 11 20 19 20 7 0 15 4 18 9 4 5 -11 4 -31 -2 -28 -9 -37 -9 -41 1 -2 7 -10 12 -18 12 -8 0 -14 5 -14 10 0 6 -24 10 -52 10 -53 0 -53 1 -103 61 -53 64 -125 168 -125 181 0 5 7 8 16 8 8 0 12 5 9 10 -5 8 -11 8 -19 0 -16 -12 -64 87 -96 200 -33 113 -38 323 -12 452 47 226 169 423 352 570 387 312 957 280 1310 -72 183 -184 290 -447 290 -710 0 -75 -4 -105 -25 -197 -3 -13 -13 -23 -23 -24 -14 0 -14 -2 3 -9 19 -8 19 -8 -5 -18 -18 -8 -20 -11 -7 -11 24 -1 21 -11 -10 -40 -17 -14 -21 -22 -10 -18 9 4 17 2 17 -3 0 -6 -9 -10 -20 -10 -11 0 -20 -5 -20 -11 0 -6 7 -8 16 -5 10 4 14 1 12 -6 -3 -7 -15 -15 -29 -19 l-24 -7 24 -1 c22 -1 22 -2 9 -23 -16 -25 -46 -40 -33 -17 6 11 5 11 -5 2 -21 -20 -8 -34 19 -20 31 15 82 151 106 286 25 135 17 314 -19 436 -92 310 -314 552 -607 662 -153 57 -286 75 -454 61z m-463 -1754 c22 -18 24 -23 12 -28 -8 -3 -12 -10 -9 -16 3 -6 -1 -7 -10 -4 -14 6 -14 8 2 21 17 13 16 14 -8 9 -28 -6 -55 14 -41 29 4 5 2 5 -4 2 -6 -4 -20 0 -30 8 -17 13 -15 14 21 8 22 -3 52 -16 67 -29z"/> <path d="M1497 2203 c-11 -10 -8 -35 3 -28 7 5 9 -9 5 -39 -5 -30 -3 -46 4 -46 7 0 11 -34 11 -95 0 -84 2 -95 18 -95 13 0 14 2 4 9 -8 4 -14 12 -14 16 0 4 6 12 14 16 7 5 8 9 2 9 -6 0 -11 32 -11 83 -1 52 2 75 7 62 7 -17 9 -17 9 -2 1 20 55 25 67 5 5 -8 2 -9 -9 -5 -9 3 -19 2 -22 -2 -2 -5 4 -11 15 -14 11 -3 20 -10 20 -16 0 -14 -17 -14 -25 -1 -5 8 -11 7 -21 -1 -16 -13 -19 -39 -4 -39 6 0 10 10 10 21 0 18 2 19 15 9 18 -15 20 -34 3 -24 -10 6 -10 4 0 -7 14 -16 16 -39 2 -39 -5 0 -7 8 -3 18 4 12 3 14 -5 7 -6 -5 -8 -23 -5 -40 5 -25 7 -26 13 -10 4 12 9 15 13 8 4 -6 0 -19 -9 -27 -11 -11 -12 -16 -3 -16 10 0 10 -3 1 -12 -7 -7 -12 -21 -11 -33 0 -20 0 -20 8 0 6 15 9 8 12 -28 3 -39 0 -52 -17 -68 -20 -19 -21 -19 -42 4 -12 13 -22 29 -22 35 0 7 -4 12 -10 12 -5 0 -10 20 -10 44 0 25 -5 48 -10 51 -7 4 -8 24 -4 51 5 35 3 44 -8 44 -11 0 -14 -7 -10 -26 4 -24 3 -25 -34 -22 l-39 3 2 83 c2 76 1 82 -17 82 -11 0 -20 -4 -20 -10 0 -5 5 -10 10 -10 6 0 10 -7 10 -15 0 -9 -9 -15 -24 -15 -13 0 -38 -3 -55 -6 -27 -6 -31 -4 -31 15 0 11 5 21 10 21 6 0 10 -4 10 -10 0 -5 10 -9 23 -9 16 1 18 2 5 6 -10 2 -18 11 -18 19 0 15 -9 17 -33 8 -11 -4 -13 -13 -6 -42 5 -20 9 -63 9 -95 0 -41 4 -57 12 -55 14 5 18 78 3 78 -5 0 -3 5 5 10 10 6 11 10 3 10 -7 0 -13 6 -13 14 0 10 13 14 44 14 l44 0 4 -60 c3 -53 0 -62 -17 -69 -17 -7 -17 -8 -2 -8 11 -1 17 -9 17 -26 0 -14 -6 -25 -12 -25 -17 1 -56 30 -40 30 7 0 12 12 12 26 0 14 -4 23 -10 19 -5 -3 -7 -11 -4 -18 3 -8 -5 -13 -18 -14 -13 -1 -24 -7 -26 -13 -2 -5 -8 -8 -13 -4 -5 3 -9 0 -9 -6 0 -8 9 -10 24 -6 15 4 28 0 36 -9 7 -8 20 -15 30 -15 10 0 21 -7 24 -16 5 -13 2 -15 -11 -9 -10 4 -29 10 -43 13 -14 3 -28 10 -32 16 -5 8 -8 7 -8 -1 0 -7 -7 -10 -15 -7 -8 3 -19 3 -26 -1 -20 -13 10 -23 56 -17 37 4 44 2 50 -17 7 -25 -1 -41 -21 -41 -14 0 -20 25 -6 33 4 2 1 2 -5 1 -7 -2 -13 1 -13 6 0 6 -7 10 -16 10 -14 0 -14 -3 -4 -15 7 -9 10 -19 6 -22 -4 -4 -11 -2 -15 6 -5 7 -12 13 -17 14 -5 1 -8 5 -6 10 1 4 -11 7 -28 7 -16 0 -30 -4 -30 -10 0 -5 -5 -10 -12 -10 -6 0 -3 9 7 20 10 11 14 20 10 20 -5 0 0 7 11 15 17 13 17 14 1 15 -9 0 -23 -11 -29 -25 -13 -28 -28 -33 -28 -9 0 15 -2 15 -24 0 -18 -12 -26 -12 -29 -3 -4 9 -6 9 -6 0 -1 -18 -18 -16 -18 1 0 8 3 14 6 13 13 -3 51 15 51 24 0 5 3 8 8 7 13 -3 52 13 52 22 0 5 -4 12 -10 15 -5 3 -10 2 -10 -3 0 -11 -69 -45 -95 -46 -11 -1 -23 4 -27 9 -9 12 -10 -27 -2 -49 3 -9 14 -16 24 -16 11 0 22 -4 25 -10 10 -17 25 -11 25 10 0 23 10 26 28 8 16 -16 15 -33 -1 -20 -10 9 -13 5 -12 -14 0 -14 7 -29 15 -34 8 -5 11 -12 8 -15 -4 -4 -17 2 -29 14 -15 14 -26 18 -33 11 -17 -17 -29 -11 -15 8 13 15 12 16 -3 4 -9 -8 -14 -20 -12 -27 3 -8 -6 -24 -20 -36 -15 -13 -25 -28 -22 -35 6 -15 -11 -12 -51 9 -35 19 -46 5 -13 -15 24 -15 27 -30 4 -21 -10 4 -15 1 -14 -8 5 -31 -1 -49 -15 -49 -8 0 -15 5 -15 11 0 8 -5 8 -15 -1 -12 -10 -18 -10 -32 1 -26 20 -32 31 -26 45 3 9 15 6 40 -12 41 -28 58 -31 49 -8 -3 9 -6 18 -6 20 0 2 -7 4 -16 4 -10 0 -14 6 -10 15 3 8 1 15 -3 15 -5 0 -12 -6 -14 -12 -4 -10 -6 -10 -6 0 -1 6 -8 12 -17 12 -11 0 -15 6 -11 20 3 11 1 23 -4 26 -10 6 -12 -1 -11 -77 1 -44 -4 -62 -20 -78 -26 -28 -17 -38 15 -16 22 14 25 14 31 0 3 -9 11 -13 18 -9 8 5 9 2 5 -10 -4 -10 -7 -22 -7 -27 0 -5 -5 -9 -11 -9 -6 0 -8 8 -4 19 3 11 1 22 -5 26 -6 3 -10 -3 -10 -14 0 -12 -4 -21 -10 -21 -5 0 -10 -9 -10 -20 0 -13 7 -20 20 -20 22 0 27 -15 8 -23 -10 -4 -10 -6 0 -6 20 -1 14 -31 -7 -31 -10 0 -24 7 -31 15 -11 14 -7 19 13 16 8 -1 9 13 1 22 -9 9 -35 -4 -28 -14 3 -5 -1 -9 -8 -9 -7 -1 -3 -9 10 -20 12 -10 19 -21 15 -23 -17 -10 -49 28 -48 58 0 25 4 30 23 28 12 -2 22 1 22 6 0 5 -10 11 -22 15 -19 5 -20 8 -8 15 12 8 11 11 -5 17 -11 5 -20 3 -23 -4 -2 -7 -8 -10 -13 -6 -5 3 -9 -4 -9 -15 0 -16 -6 -21 -25 -21 -14 0 -25 -4 -25 -10 0 -5 -7 -10 -15 -10 -19 0 -19 19 0 26 20 8 9 24 -16 24 -23 0 -25 -18 -4 -46 8 -12 11 -24 8 -28 -10 -9 6 -7 27 4 13 7 19 6 24 -5 3 -8 12 -15 20 -15 7 0 16 -12 19 -26 3 -18 1 -24 -9 -20 -8 3 -14 1 -14 -3 0 -5 6 -11 13 -14 6 -2 9 -8 5 -12 -4 -4 -14 -2 -22 5 -9 6 -21 10 -28 7 -7 -2 -18 4 -23 14 -10 18 -12 17 -28 -11 -10 -17 -14 -30 -8 -30 5 0 13 5 16 10 9 14 58 -26 61 -48 1 -9 5 -26 9 -37 8 -20 8 -20 -8 0 -9 11 -17 26 -17 33 0 6 -7 12 -15 12 -23 0 -18 -36 8 -48 20 -10 20 -11 -13 -12 -19 -1 -29 -4 -22 -7 6 -2 12 -11 12 -19 0 -13 22 -18 61 -15 24 2 47 -30 49 -69 3 -50 1 -57 -10 -40 -8 12 -10 12 -10 -5 -1 -19 -1 -19 -11 -1 -6 10 -9 37 -6 60 4 30 3 36 -4 23 -6 -9 -15 -15 -20 -12 -5 4 -7 10 -4 15 6 10 -35 4 -44 -6 -3 -4 2 -4 11 -1 10 3 20 2 23 -3 5 -9 -55 -16 -92 -11 -7 1 -13 -3 -13 -8 0 -15 21 -25 29 -13 3 5 26 12 51 13 l45 3 0 -52 c0 -54 12 -64 43 -34 7 6 19 12 26 12 7 0 20 8 29 18 12 13 26 17 47 14 28 -4 29 -5 13 -18 -17 -12 -16 -13 7 -14 22 -1 23 -2 7 -11 -10 -6 -24 -9 -31 -6 -6 3 -20 -1 -31 -9 -10 -8 -29 -11 -44 -8 l-26 6 23 -16 c12 -10 22 -24 22 -33 0 -9 6 -13 14 -10 7 3 23 -1 34 -9 18 -13 20 -12 15 6 -3 13 -14 20 -29 20 -30 0 -40 16 -14 23 11 3 23 1 26 -4 7 -13 91 -11 99 2 4 6 22 9 40 7 38 -3 57 8 31 18 -9 3 -16 14 -16 23 0 9 -5 22 -12 29 -9 9 9 11 83 9 52 -2 75 -2 52 0 -24 2 -43 9 -43 15 0 6 -19 8 -52 5 -29 -3 -58 -2 -64 4 -7 5 -26 11 -43 12 -34 2 -42 25 -17 46 8 7 17 23 20 36 6 24 36 36 36 15 0 -5 -4 -10 -10 -10 -5 0 -10 -4 -10 -10 0 -12 27 -13 32 -1 2 5 24 6 50 2 35 -6 48 -4 52 5 6 15 76 16 76 1 0 -5 -15 -6 -36 -2 -21 3 -34 2 -30 -3 7 -11 101 -23 121 -15 26 9 16 21 -15 17 -17 -2 -30 1 -30 7 0 6 15 10 33 9 63 -4 77 -1 77 18 0 13 -2 14 -9 4 -5 -8 -21 -12 -37 -10 -25 3 -29 7 -27 32 2 28 20 49 34 40 4 -2 10 3 13 11 4 12 0 14 -19 9 -15 -4 -25 -2 -25 5 0 6 10 12 23 12 12 1 -5 5 -38 9 -60 8 -80 5 -58 -8 21 -13 3 -52 -23 -52 -27 0 -31 12 -10 32 13 13 31 57 29 68 -4 15 38 3 43 -12 3 -10 10 -18 16 -18 6 0 6 6 -2 15 -13 16 -1 18 100 17 l35 -1 -30 9 c-23 6 -13 8 48 10 42 1 83 3 90 4 6 1 22 -1 34 -5 11 -4 34 -4 50 1 28 8 21 12 -29 13 -16 1 -28 4 -28 8 0 3 -19 3 -42 -2 -45 -9 -107 -10 -75 -2 27 7 20 21 -8 15 -14 -2 -22 -8 -19 -13 3 -5 -8 -9 -25 -9 -16 0 -33 -4 -36 -10 -9 -14 -55 -13 -55 1 0 15 -71 4 -85 -13 -5 -7 -22 -19 -37 -25 -16 -7 -28 -17 -28 -23 0 -5 -7 -10 -15 -10 -8 0 -15 5 -15 10 0 6 5 10 11 10 5 0 7 4 4 10 -3 5 -8 40 -10 77 -2 49 -1 58 4 33 l8 -35 2 43 c0 24 8 56 16 72 14 27 18 28 36 17 16 -10 21 -9 28 1 5 8 8 -5 9 -33 2 -42 -9 -58 -23 -35 -4 6 -12 4 -21 -5 -9 -8 -20 -13 -25 -10 -5 4 -9 -1 -9 -9 0 -8 5 -18 10 -21 6 -3 10 0 10 8 0 8 6 17 13 19 22 9 35 -2 31 -25 -3 -16 0 -14 11 8 9 18 14 52 13 85 -1 30 3 64 9 74 10 19 11 19 38 -2 25 -20 58 -32 42 -16 -3 4 11 27 33 52 37 43 46 67 18 45 -7 -6 -24 -9 -38 -7 -18 3 -21 2 -10 -5 8 -5 19 -7 25 -3 5 3 4 -2 -4 -11 -7 -9 -17 -14 -22 -11 -5 3 -7 -1 -4 -8 3 -7 0 -20 -5 -28 -8 -13 -12 -12 -31 7 l-22 22 40 44 40 44 39 -20 c54 -27 114 -76 114 -92 0 -7 -8 -16 -17 -18 -17 -4 -16 -5 0 -6 24 -1 19 -34 -6 -39 -12 -2 -17 3 -17 18 0 27 -33 24 -38 -4 -3 -11 0 -16 7 -11 6 3 9 11 6 16 -4 5 -1 9 5 9 6 0 10 -8 8 -17 -2 -12 -20 -21 -61 -29 -53 -10 -57 -10 -57 7 0 11 5 19 11 19 5 0 7 -4 4 -10 -3 -5 -2 -10 3 -10 5 0 9 14 9 30 0 17 -4 30 -9 30 -4 0 -8 -7 -8 -15 0 -8 -4 -15 -10 -15 -5 0 -10 -13 -10 -30 0 -33 0 -33 52 -21 35 8 37 8 35 -17 -2 -19 -10 -28 -32 -34 -17 -4 -35 -6 -42 -4 -6 3 -14 0 -17 -7 -2 -7 -5 -2 -5 11 -1 12 -5 22 -11 22 -5 0 -10 7 -10 17 0 9 -3 14 -6 10 -4 -3 -2 -20 4 -36 10 -27 8 -32 -10 -42 -19 -10 -20 -9 -15 10 3 15 1 21 -6 18 -7 -2 -11 -14 -10 -25 2 -13 -5 -23 -17 -27 -11 -4 -20 -11 -20 -16 0 -20 -20 -8 -21 14 -1 17 -3 16 -8 -7 -8 -37 -28 -45 -34 -14 -3 15 -5 9 -6 -15 -1 -36 0 -37 22 -25 12 7 26 11 32 9 5 -1 7 1 3 4 -9 9 96 65 122 65 10 0 21 4 24 9 4 5 28 12 55 16 27 4 57 12 67 19 15 11 13 12 -15 8 -28 -4 -31 -2 -29 19 3 25 20 37 54 38 17 1 20 -4 16 -29 -3 -18 0 -30 7 -30 7 0 11 29 11 85 0 67 -3 86 -16 93 -11 6 -13 11 -5 16 6 4 11 2 11 -4 0 -11 65 32 87 58 9 11 18 6 50 -28 l38 -42 28 26 c15 14 27 20 27 14 0 -14 14 -1 16 15 2 25 17 57 25 57 11 0 11 -11 0 -28 -6 -10 5 -26 35 -54 l44 -41 0 -83 c0 -70 -2 -82 -15 -78 -8 4 -15 17 -15 30 0 13 -4 24 -10 24 -5 0 -10 -11 -10 -25 0 -18 -5 -25 -20 -25 -16 0 -20 7 -21 33 -2 30 -2 30 -6 5 -4 -24 -9 -28 -36 -28 -18 0 -49 3 -69 6 -32 6 -38 11 -38 30 0 13 -4 24 -10 24 -5 0 -10 -13 -10 -30 0 -24 -4 -30 -21 -30 -19 0 -21 4 -15 30 4 22 2 30 -8 30 -8 0 -15 -14 -18 -35 -4 -34 -3 -35 32 -35 104 -1 269 -16 278 -25 3 -3 10 -1 16 5 14 11 94 -7 117 -26 24 -21 29 -8 29 83 l0 84 40 18 41 18 38 -36 c97 -90 141 -115 141 -80 0 6 -4 7 -10 4 -5 -3 -20 1 -32 10 -23 16 -23 16 7 9 44 -10 45 -11 38 -62 -7 -56 -23 -80 -23 -34 0 37 -16 43 -23 10 -3 -17 -5 -15 -6 9 -1 41 -21 54 -21 14 0 -20 9 -37 31 -55 17 -14 27 -30 24 -36 -3 -5 -2 -10 3 -10 15 0 25 31 23 71 -2 35 -1 37 33 41 35 4 36 3 36 -30 0 -26 -4 -33 -17 -31 -10 1 -23 1 -30 0 -13 -1 -5 -41 9 -41 6 0 8 7 4 15 -3 8 -1 15 4 15 6 0 10 -6 10 -12 0 -8 5 -6 10 4 8 13 17 15 40 8 23 -7 30 -5 30 6 0 17 16 19 26 2 4 -7 3 -8 -4 -4 -7 4 -12 2 -12 -3 0 -6 5 -11 11 -11 5 0 8 -4 4 -9 -3 -5 -1 -12 4 -15 5 -4 12 4 14 16 l4 23 8 -22 c5 -17 15 -23 34 -22 25 0 25 1 4 9 -18 7 -21 15 -16 42 7 44 10 46 22 14 13 -32 25 -35 16 -3 -6 21 -5 21 9 4 8 -11 17 -14 20 -8 4 5 2 12 -4 16 -6 4 -8 11 -5 16 3 5 -1 6 -9 3 -9 -3 -29 -1 -46 4 -18 7 -32 7 -35 1 -4 -5 0 -9 8 -9 10 0 13 -7 10 -20 -3 -11 -9 -20 -14 -20 -5 0 -6 7 -3 15 5 11 2 13 -10 9 -9 -3 -16 -1 -16 6 0 6 -4 9 -9 5 -21 -12 -20 15 1 30 22 17 22 17 2 12 -13 -3 -25 2 -32 14 -15 23 -15 29 -2 29 6 0 10 -7 10 -15 0 -17 9 -19 30 -5 13 8 13 10 -1 10 -21 0 -32 27 -17 36 7 4 14 2 16 -4 2 -7 12 -12 23 -12 10 0 19 -4 19 -10 0 -5 -5 -10 -11 -10 -8 0 -7 -6 2 -17 8 -9 13 -19 12 -22 -2 -3 2 -6 9 -6 6 0 13 6 16 14 3 8 0 11 -7 7 -7 -5 -11 1 -11 16 0 13 -5 29 -12 36 -9 9 -9 12 -1 12 7 0 14 -9 18 -19 3 -10 19 -24 35 -31 16 -7 27 -17 24 -22 -3 -5 1 -17 9 -26 19 -22 19 -72 1 -72 -8 0 -14 -5 -14 -11 0 -5 4 -8 9 -5 5 3 14 -7 19 -23 9 -25 8 -29 -4 -24 -8 3 -14 11 -14 19 0 17 -5 17 -30 4 -12 -7 -28 -7 -44 0 -17 6 -26 6 -26 0 0 -6 -10 0 -21 11 -17 17 -23 19 -30 8 -8 -13 -13 -6 -10 14 0 4 -4 7 -9 7 -6 0 -10 -5 -10 -11 0 -5 -4 -7 -10 -4 -5 3 -10 1 -10 -5 0 -7 7 -10 15 -6 8 3 15 1 15 -5 0 -6 9 -8 20 -4 12 4 20 2 20 -5 0 -16 -70 -8 -80 10 -12 21 -33 0 -24 -24 5 -13 14 -16 34 -13 45 10 66 -1 64 -31 -1 -15 -3 -35 -3 -46 -1 -15 -4 -16 -16 -6 -11 9 -15 9 -15 1 0 -6 6 -14 14 -17 8 -3 12 -12 10 -19 -3 -7 0 -16 5 -20 16 -9 3 -25 -20 -25 -10 0 -19 -5 -19 -11 0 -5 -4 -8 -9 -5 -5 4 -11 0 -14 -6 -2 -7 -4 5 -3 27 1 22 5 46 10 53 4 7 2 19 -4 27 -9 11 -9 15 -1 15 6 0 11 9 11 20 0 27 -18 25 -25 -2 -11 -51 -13 -76 -5 -88 10 -16 -8 -70 -23 -70 -14 0 -46 20 -33 20 5 0 1 9 -9 20 -10 11 -27 20 -37 20 -15 0 -17 -4 -9 -19 6 -10 7 -21 4 -25 -3 -3 0 -6 8 -6 9 0 28 -13 43 -29 27 -28 66 -38 66 -18 0 12 121 -1 134 -13 5 -5 -14 -8 -43 -6 -28 1 -57 -2 -64 -6 -7 -4 6 -8 30 -8 23 0 44 -3 46 -7 7 -11 -7 -44 -18 -45 -19 -1 -55 -21 -55 -30 0 -5 -4 -6 -10 -3 -5 3 -10 1 -10 -4 0 -20 37 -11 53 11 13 19 16 20 16 6 1 -10 6 -18 12 -18 5 0 7 5 3 12 -5 8 -2 9 9 5 13 -5 17 -1 17 17 0 14 6 27 13 29 10 4 10 6 0 6 -7 1 -13 6 -13 13 0 6 3 8 7 5 8 -9 56 82 55 105 0 10 8 23 18 28 11 6 17 17 14 24 -3 8 4 36 17 62 41 91 13 240 -56 296 -12 9 -27 35 -33 57 -7 22 -24 53 -37 69 -23 27 -30 30 -82 27 -55 -2 -57 -1 -99 43 -26 27 -54 72 -69 111 -15 36 -40 80 -56 98 -16 19 -29 38 -29 44 0 6 -7 6 -20 -1 -27 -14 -25 -30 2 -27 15 1 23 -4 26 -17 3 -15 0 -17 -13 -12 -15 5 -16 4 -5 -9 7 -9 15 -13 18 -10 3 3 16 -13 30 -36 22 -38 23 -42 8 -57 -13 -14 -16 -14 -16 -2 0 13 -1 13 -10 0 -6 -9 -5 -17 3 -22 17 -11 39 -10 32 2 -10 17 4 11 25 -10 11 -11 20 -26 20 -33 0 -8 11 -19 24 -27 14 -7 23 -18 22 -24 -2 -6 -1 -8 1 -3 7 12 20 8 27 -8 4 -11 -2 -15 -25 -15 -22 0 -30 4 -26 13 3 8 1 20 -5 28 -8 11 -9 10 -4 -3 4 -13 0 -18 -13 -18 -14 0 -18 5 -14 20 3 12 -1 22 -11 26 -9 3 -13 11 -9 17 4 6 -10 8 -41 5 -59 -7 -77 -22 -46 -38 17 -9 25 -9 39 4 21 19 41 22 23 4 -10 -10 -8 -16 10 -30 l23 -17 -32 -11 c-21 -8 -30 -16 -26 -26 3 -8 0 -14 -7 -14 -6 0 -8 -5 -5 -10 4 -7 13 -6 27 1 11 6 29 8 40 6 11 -3 34 0 52 8 32 13 138 35 145 30 1 -2 4 -15 5 -29 0 -16 5 -21 11 -15 5 5 20 9 35 9 23 -1 24 -2 7 -14 -12 -9 -14 -15 -6 -18 8 -3 3 -18 -15 -46 -28 -45 -46 -54 -46 -22 0 14 5 18 17 13 11 -4 14 -3 9 5 -4 7 -2 12 3 12 6 0 11 10 11 22 0 22 -1 22 -25 -5 -14 -15 -36 -27 -49 -27 -13 0 -26 -7 -30 -15 -3 -8 -1 -15 4 -15 6 0 10 5 10 10 0 6 8 10 18 10 13 0 14 -2 3 -9 -11 -7 -11 -9 0 -14 8 -3 4 -6 -8 -6 -13 -1 -23 -5 -23 -11 0 -5 7 -7 15 -4 9 4 15 0 15 -9 0 -8 3 -17 8 -20 4 -2 2 -2 -5 -1 -7 2 -15 -1 -18 -6 -9 -15 -35 -12 -35 4 0 9 8 13 23 9 19 -4 20 -3 4 7 -9 6 -22 8 -27 5 -6 -3 -10 -1 -10 4 0 6 -9 11 -21 11 -11 0 -17 5 -14 10 4 7 12 7 25 0 25 -14 30 -13 24 4 -3 8 -11 13 -19 10 -7 -3 -15 1 -18 8 -2 8 -19 15 -36 16 -24 2 -29 -1 -24 -13 3 -9 12 -14 19 -11 8 3 14 1 14 -4 0 -6 -12 -10 -27 -10 -14 0 -23 3 -20 7 10 9 -13 33 -33 33 -9 0 -17 7 -17 15 0 18 28 20 46 3 11 -11 12 -10 6 1 -7 12 -2 13 26 7 68 -16 117 -14 146 5 25 17 26 19 7 19 -12 0 -24 -6 -27 -14 -4 -11 -14 -12 -41 -6 -19 4 -37 5 -40 2 -3 -2 -11 0 -19 6 -7 6 -42 10 -77 9 -45 -1 -65 2 -68 12 -8 25 -67 81 -85 81 -10 0 -15 5 -12 10 4 6 11 8 16 5 5 -4 9 -1 9 4 0 6 -4 11 -9 11 -5 0 -12 16 -15 36 l-7 35 -30 -37 c-35 -45 -31 -58 6 -18 26 29 26 29 19 4 -4 -14 -7 -31 -7 -37 0 -8 -13 -13 -29 -13 -23 0 -28 4 -28 26 0 27 64 104 86 104 7 0 14 7 18 15 9 25 -8 17 -52 -24 -34 -32 -42 -36 -42 -20 0 24 -17 25 -25 0 -8 -25 4 -141 16 -160 8 -12 9 -8 5 15 -5 30 -5 30 45 33 l49 2 0 -51 c0 -53 -4 -55 -42 -22 -10 8 -18 26 -18 39 0 12 -5 23 -11 23 -6 0 -9 -7 -5 -15 3 -9 -3 -24 -13 -34 -16 -16 -17 -20 -5 -25 9 -3 12 -1 9 4 -3 6 1 10 10 10 9 0 14 -4 10 -9 -3 -5 3 -12 12 -14 10 -3 5 -5 -12 -6 -17 0 -36 4 -43 11 -9 9 -12 9 -12 0 0 -7 -7 -12 -16 -12 -12 0 -10 5 7 19 13 11 20 23 16 28 -5 4 -15 0 -22 -11 -14 -18 -15 -18 -40 2 -15 12 -21 23 -15 27 5 3 10 1 10 -5 0 -8 6 -8 20 0 14 8 20 8 20 0 0 -6 5 -8 10 -5 20 12 -2 25 -44 25 -48 0 -61 7 -45 26 5 7 7 24 3 40 -6 25 -8 26 -20 10 -11 -16 -13 -14 -19 13 -4 17 -11 31 -16 31 -9 0 -5 106 9 208 7 51 6 65 -5 69 -8 3 -17 2 -21 -2 -4 -4 -1 -10 6 -12 17 -6 15 -33 -3 -33 -10 0 -15 10 -15 30 0 17 -4 30 -10 30 -5 0 -10 -13 -10 -30 0 -37 -18 -40 -22 -3 -2 14 -9 28 -16 31 -12 4 -12 -10 3 -53 5 -16 14 -20 41 -19 18 1 34 -2 34 -6 0 -4 -27 -8 -60 -9 -59 -1 -60 0 -50 20 19 34 -1 85 -23 62z m-16 -277 c0 -17 2 -43 3 -58 1 -21 -3 -28 -16 -28 -10 0 -18 5 -18 11 0 7 -10 9 -24 7 -14 -3 -31 -1 -38 3 -10 7 -9 9 5 9 14 0 16 4 8 19 -8 14 -7 22 5 32 8 7 13 17 11 23 -3 7 9 11 29 12 31 0 34 -2 35 -30z m160 -63 c2 -18 -1 -33 -6 -33 -6 0 -9 7 -9 15 1 8 2 25 3 37 1 30 8 19 12 -19z m-161 -40 c0 -13 -70 -64 -79 -58 -5 3 -12 1 -16 -4 -8 -14 -35 -2 -35 14 0 10 7 11 32 4 34 -9 44 -7 34 10 -4 5 -15 8 -26 6 -22 -4 -23 -4 -14 19 4 12 20 16 55 16 27 0 49 -3 49 -7z m-260 -10 c-1 -16 -28 -43 -43 -43 -28 0 -27 28 1 39 34 12 42 13 42 4z m900 -8 c15 -18 17 -16 -42 -20 -27 -2 -45 1 -42 6 3 5 9 7 14 4 5 -3 12 0 16 6 4 8 9 7 15 -2 7 -11 9 -10 9 4 0 21 13 22 30 2z m-184 -41 c-4 -12 -2 -15 9 -10 9 3 15 0 15 -10 0 -9 -5 -12 -11 -8 -6 3 -15 0 -20 -7 -6 -10 -9 -4 -9 19 0 17 5 32 11 32 6 0 8 -7 5 -16z m-773 -37 c-11 -12 -26 -32 -32 -44 -7 -14 -17 -20 -26 -17 -8 4 -12 11 -8 17 3 6 1 7 -5 3 -17 -10 -15 -26 3 -26 8 0 15 -4 15 -10 0 -22 -30 -6 -49 25 -11 19 -12 19 -6 -2 8 -28 -43 -123 -61 -116 -7 3 -11 12 -8 21 3 9 -1 6 -8 -8 -7 -14 -17 -28 -23 -32 -5 -4 -6 -8 -2 -8 5 0 5 -5 2 -10 -5 -8 -11 -7 -21 1 -12 10 -12 14 -2 20 9 6 9 9 1 9 -19 0 -24 -17 -8 -30 8 -7 15 -17 15 -22 0 -6 -6 -6 -14 1 -10 9 -15 8 -20 -4 -4 -10 1 -15 14 -15 24 0 24 -5 2 -50 -10 -20 -27 -37 -42 -41 -16 -4 -19 -7 -7 -8 37 -2 0 -66 -43 -74 -14 -3 -7 -3 16 -2 l40 2 3 -43 c1 -27 -2 -44 -9 -44 -6 0 -9 -4 -5 -9 3 -5 1 -12 -5 -16 -5 -3 -10 -11 -10 -16 0 -6 5 -7 10 -4 6 3 10 1 10 -4 0 -6 -8 -11 -18 -11 -10 0 -28 -9 -39 -19 -21 -20 -21 -20 -26 0 -3 10 -1 19 4 19 6 0 6 7 1 18 -13 26 -14 149 -2 157 6 4 18 1 26 -6 13 -11 14 -9 8 17 -3 16 -7 31 -6 34 0 25 6 30 35 30 31 0 32 1 32 42 0 24 -4 47 -10 51 -6 6 -6 10 3 14 6 2 12 13 12 23 0 10 12 23 28 29 18 8 33 26 45 56 14 33 25 45 40 45 13 1 30 13 42 32 25 39 56 59 62 41 6 -18 28 -16 43 2 7 9 15 13 18 10 3 -3 -4 -15 -15 -28z m1196 -20 c8 -11 6 -18 -11 -33 -21 -19 -21 -19 -16 4 4 12 2 20 -3 16 -10 -6 -12 9 -2 19 10 10 19 8 32 -6z m-464 -16 c-3 -10 -6 -41 -7 -67 -1 -48 -16 -110 -17 -71 -1 14 -10 17 -50 17 -46 0 -49 1 -55 31 -3 17 -6 49 -6 70 l0 39 71 0 c65 0 70 -2 64 -19z m-980 -91 c23 0 26 -3 15 -10 -25 -16 -49 -11 -61 13 -9 18 -9 20 2 10 7 -7 27 -13 44 -13z m93 -128 c2 -44 0 -72 -7 -72 -5 0 -12 8 -14 18 -2 9 -3 2 -1 -15 2 -24 -1 -33 -12 -33 -10 0 -14 11 -14 37 0 48 -7 39 -13 -15 -3 -33 -1 -42 9 -38 18 7 18 1 -2 -19 -9 -9 -13 -19 -9 -23 4 -4 20 10 37 31 30 37 78 52 78 23 0 -9 -8 -12 -26 -8 -19 3 -25 1 -22 -11 2 -9 -6 -23 -17 -31 -20 -15 -20 -15 2 -16 12 0 23 -5 25 -10 2 -6 9 -1 17 11 11 19 11 21 -1 17 -9 -4 -14 1 -14 13 0 22 12 25 20 7 3 -9 10 -7 21 7 17 19 17 18 10 -20 -9 -53 -11 -55 -46 -55 -18 0 -28 4 -24 10 6 9 -16 15 -39 11 -30 -6 -39 42 -27 152 1 4 8 7 16 7 9 0 15 9 14 23 0 21 -1 21 -9 2 -8 -18 -9 -18 -9 -2 -1 27 28 79 42 74 7 -2 13 -31 15 -75z m1405 -29 c-13 -8 -23 -20 -23 -25 0 -5 7 -2 16 6 8 9 19 16 24 16 14 0 21 -33 8 -42 -10 -6 -10 -8 1 -8 11 0 10 -5 -3 -25 -9 -13 -16 -30 -16 -37 0 -8 -9 -21 -20 -31 -22 -18 -27 -42 -7 -32 6 4 4 0 -5 -8 -10 -8 -15 -17 -11 -20 3 -4 0 -13 -6 -21 -13 -15 -42 -16 -75 -1 -11 5 -31 4 -48 -3 -21 -8 -28 -8 -26 0 5 13 18 21 64 38 l31 11 2 87 c1 56 6 89 14 94 18 12 27 10 27 -6 0 -8 5 -18 12 -22 8 -5 9 -2 4 12 -4 10 -4 15 0 12 4 -4 16 -1 28 7 11 8 23 15 26 14 3 0 -5 -7 -17 -16z m-1624 -65 c-5 -9 -9 -26 -9 -37 0 -11 -4 -22 -9 -25 -5 -4 -7 4 -3 16 5 22 4 22 -15 6 -24 -22 -30 -22 -30 -4 0 8 11 19 24 25 14 7 23 19 23 34 0 13 3 27 7 31 12 11 21 -27 12 -46z m415 -4 c9 -22 -1 -34 -30 -34 -26 0 -32 18 -12 38 17 17 35 15 42 -4z m-287 -69 c-2 -30 -6 -58 -10 -61 -9 -9 -9 78 -1 100 11 29 14 17 11 -39z m273 6 c0 -15 -10 -20 -51 -26 -55 -8 -65 -4 -56 20 9 21 47 19 48 -2 0 -14 2 -13 9 5 12 28 50 30 50 3z m-416 -54 c15 -23 3 -30 -26 -14 -18 9 -22 15 -14 24 14 15 27 12 40 -10z m187 -109 c8 -7 20 -25 26 -39 11 -25 9 -27 -25 -37 -20 -6 -48 -10 -62 -10 l-25 0 23 11 c22 10 23 38 1 62 -5 5 -9 13 -9 17 0 13 55 9 71 -4z"/> <path d="M856 1260 c-5 -26 -9 -30 -26 -25 -12 4 -20 2 -20 -5 0 -14 50 -9 51 5 0 6 6 16 11 23 8 9 8 16 1 23 -7 7 -12 0 -17 -21z"/> <path d="M1809 1633 c0 -5 -2 -18 -5 -30 -2 -13 1 -23 7 -23 6 0 9 9 6 20 -4 15 0 20 15 20 10 0 16 5 13 10 -7 12 -35 14 -36 3z"/> <path d="M1919 2076 c-13 -14 -24 -31 -24 -38 -1 -7 -7 -12 -14 -10 -7 1 -10 -2 -7 -7 4 -5 0 -12 -6 -14 -7 -3 -4 -6 7 -6 13 -1 28 11 38 29 10 17 15 30 11 30 -4 0 1 6 12 14 10 8 16 17 13 20 -4 4 -17 -5 -30 -18z"/> <path d="M1153 2028 c-13 -6 -23 -15 -23 -20 0 -13 18 -10 23 5 3 6 8 -3 12 -20 5 -22 19 -40 41 -54 19 -11 32 -25 29 -29 -3 -5 0 -12 6 -16 8 -4 9 -3 5 5 -4 6 -1 14 8 17 12 5 13 9 3 19 -7 7 -15 11 -19 8 -4 -2 -5 3 -2 11 3 9 12 12 22 8 14 -5 15 -4 2 10 -9 10 -17 12 -21 6 -4 -6 -12 -7 -18 -4 -6 4 -9 11 -7 15 6 9 -22 51 -32 50 -4 0 -17 -5 -29 -11z"/> <path d="M1704 1984 c3 -26 6 -69 6 -95 0 -27 3 -49 8 -49 4 0 6 18 4 40 -3 29 0 40 9 40 11 0 11 2 -1 10 -11 7 -12 12 -3 21 16 16 32 3 26 -21 -3 -11 -1 -20 5 -20 5 0 13 11 16 24 4 15 14 26 29 28 29 4 39 68 10 68 -10 0 -14 -4 -8 -8 13 -9 18 -42 7 -42 -25 0 -72 24 -72 36 0 8 -10 14 -21 14 -20 0 -21 -4 -15 -46z m61 -2 l30 -10 -37 -1 c-20 -1 -40 4 -43 9 -8 13 5 35 14 23 3 -6 20 -15 36 -21z"/> <path d="M1971 1998 c-6 -17 -9 -33 -6 -36 6 -7 -27 -31 -43 -32 -7 0 -10 5 -6 11 4 7 1 10 -6 7 -20 -6 -24 -27 -6 -34 9 -3 34 8 60 26 28 21 52 31 65 27 13 -3 18 -1 14 9 -3 9 -11 10 -28 4 -19 -7 -23 -6 -18 5 3 8 10 15 15 15 6 0 5 6 -2 15 -18 22 -27 19 -39 -17z"/> <path d="M1410 2003 c0 -6 5 -15 10 -18 6 -3 10 -1 10 5 0 7 8 9 20 5 15 -5 18 -3 14 9 -7 18 -54 18 -54 -1z"/> <path d="M1067 1960 c-26 -28 -49 -50 -52 -50 -6 0 -67 41 -75 51 -14 16 -54 17 -66 1 -18 -23 -17 -42 0 -42 9 0 12 7 9 20 -4 15 0 20 16 20 11 0 21 -4 21 -9 0 -5 12 -16 28 -23 15 -8 39 -22 54 -32 26 -17 26 -17 33 4 4 12 18 25 31 30 13 5 24 15 24 21 0 7 7 21 17 31 9 10 14 20 11 23 -2 3 -26 -18 -51 -45z"/> <path d="M2242 1882 c-18 -39 -15 -47 10 -26 19 15 20 16 9 2 -12 -16 -11 -18 8 -18 12 0 19 4 16 10 -3 6 -12 21 -18 34 l-13 23 -12 -25z"/> <path d="M1750 1859 c0 -17 4 -28 10 -24 6 3 10 17 10 31 0 13 -4 24 -10 24 -5 0 -10 -14 -10 -31z"/> <path d="M1001 1868 c3 -27 -2 -37 -15 -32 -8 3 -17 1 -21 -5 -3 -6 1 -11 9 -11 9 0 16 -7 16 -15 0 -8 5 -15 11 -15 5 0 8 4 5 9 -4 5 -2 19 2 31 l8 22 17 -26 c10 -14 23 -26 29 -26 6 0 2 10 -9 23 -11 12 -23 30 -26 40 -7 19 -29 24 -26 5z"/> <path d="M831 1856 c-9 -10 -8 -15 4 -20 8 -3 15 -1 15 5 0 6 5 7 10 4 6 -4 8 -9 6 -13 -2 -4 6 -8 17 -8 12 -1 33 -5 47 -9 25 -8 25 -8 6 13 -11 12 -30 22 -43 22 -12 0 -23 5 -23 10 0 15 -26 12 -39 -4z"/> <path d="M789 1799 c-14 -16 -24 -31 -22 -33 3 -3 -4 -15 -16 -27 -11 -12 -18 -25 -15 -28 3 -3 14 6 25 21 12 16 26 25 34 21 8 -3 15 0 15 7 0 6 -4 8 -10 5 -5 -3 -10 0 -10 8 0 24 13 27 27 7 8 -11 19 -17 25 -14 7 4 6 9 -3 14 -10 7 -10 11 0 24 8 9 12 16 10 17 -2 0 -11 2 -19 4 -8 1 -27 -10 -41 -26z"/> <path d="M891 1777 c-7 -10 -14 -29 -16 -41 -4 -20 -4 -21 10 -2 8 11 15 26 15 33 0 15 12 17 26 4 5 -6 14 -4 22 5 7 8 9 15 5 15 -39 6 -52 4 -62 -14z"/> <path d="M928 1746 c-29 -10 -38 -26 -15 -26 6 0 18 4 26 9 8 5 26 4 47 -5 40 -17 54 -3 19 20 -16 11 -26 12 -31 5 -4 -6 -9 -7 -13 -2 -3 5 -17 5 -33 -1z"/> <path d="M680 1700 c0 -16 -5 -30 -12 -30 -6 0 -4 -8 6 -19 10 -11 13 -22 8 -25 -6 -3 -13 0 -15 6 -3 8 -6 6 -6 -4 -1 -27 12 -22 57 21 22 22 55 42 71 46 17 4 31 10 31 15 0 14 -22 23 -29 12 -7 -12 -61 -36 -73 -34 -5 1 -8 -7 -8 -18 0 -11 -4 -20 -9 -20 -5 0 -7 18 -4 40 4 26 2 40 -6 40 -6 0 -11 -13 -11 -30z"/> <path d="M1573 1665 c0 -38 2 -53 4 -32 2 20 2 52 0 70 -2 17 -4 1 -4 -38z"/> <path d="M1655 1720 c-6 -9 25 -18 43 -13 6 3 12 8 12 13 0 10 -49 10 -55 0z"/> <path d="M1156 1642 c-9 -37 -2 -52 15 -35 8 8 8 20 2 40 l-10 28 -7 -33z"/> <path d="M601 1633 c1 -10 0 -20 -1 -23 -1 -3 -3 -27 -5 -54 -2 -36 -8 -55 -24 -67 -21 -17 -30 -36 -12 -24 6 3 14 -3 20 -12 9 -16 12 -16 20 -3 13 19 34 20 43 0 5 -11 7 -8 7 9 1 16 -3 21 -13 18 -27 -11 -33 130 -7 156 14 14 14 1 0 -25 -8 -16 -8 -24 3 -35 13 -12 15 -8 15 32 0 41 -3 45 -24 45 -17 0 -24 -5 -22 -17z"/> <path d="M2042 1593 c-2 -65 -21 -89 -23 -30 -1 23 -3 26 -6 10 -2 -13 -9 -23 -14 -23 -6 0 -7 -4 -4 -10 3 -5 -1 -10 -9 -10 -9 0 -16 -7 -16 -15 0 -8 -4 -15 -10 -15 -5 0 -10 -10 -10 -22 0 -19 -1 -20 -17 -5 -19 16 -36 21 -68 17 -15 -1 -16 -3 -5 -7 8 -4 21 -13 28 -22 12 -14 13 -14 8 2 -9 27 8 20 47 -20 75 -78 97 -93 97 -66 -1 17 -60 63 -81 63 -6 0 -7 6 -2 13 4 6 8 14 8 17 4 31 19 50 41 50 13 0 24 -6 24 -12 0 -7 5 -5 11 4 5 10 8 46 6 80 l-3 63 -2 -62z"/> <path d="M807 1629 c-9 -5 -22 -7 -28 -3 -6 3 -15 0 -20 -7 -7 -11 -12 -12 -28 -2 -16 10 -20 9 -24 -8 -3 -10 -1 -17 4 -13 5 3 9 1 9 -4 0 -5 -12 -14 -26 -20 -30 -14 -23 -32 14 -32 25 0 25 1 6 15 -18 14 -18 14 4 15 13 0 20 4 17 10 -3 6 1 10 9 10 9 0 16 5 16 10 0 6 7 10 15 10 9 0 12 -6 9 -15 -10 -24 3 -17 26 15 23 33 23 34 -3 19z"/> <path d="M1918 1608 c-4 -21 -1 -29 14 -34 25 -8 31 -1 25 28 l-4 23 -9 -25 -8 -25 -6 30 -6 30 -6 -27z"/> <path d="M1450 1548 c0 -4 11 -8 25 -8 22 0 24 -2 13 -14 -7 -8 -26 -12 -42 -10 -34 4 -47 14 -20 15 18 0 18 1 -1 8 -26 11 -67 -8 -62 -28 2 -9 10 -14 18 -12 27 7 84 7 99 0 23 -10 114 -20 106 -12 -4 5 -12 9 -17 9 -5 1 -12 3 -16 4 -5 1 -21 1 -37 0 -19 -1 -26 2 -21 10 4 7 26 10 54 9 26 -2 45 1 44 6 -3 12 -143 34 -143 23z"/> <path d="M1295 1514 c-27 -7 -62 -15 -77 -16 -31 -2 -36 -13 -13 -22 8 -3 15 -2 15 3 0 4 6 8 13 9 68 5 117 17 117 28 0 8 -1 14 -2 13 -2 0 -25 -7 -53 -15z"/> <path d="M1628 1523 c23 -5 31 -23 10 -23 -7 0 -20 -15 -29 -33 -13 -26 -14 -38 -5 -54 6 -11 17 -18 24 -16 6 3 12 -2 12 -11 0 -19 -10 -20 -44 -4 -19 8 -23 15 -16 23 17 20 0 48 -24 40 -11 -4 -26 -7 -33 -7 -6 -1 -14 -10 -16 -20 -4 -13 0 -18 18 -18 12 0 28 -7 35 -15 7 -8 16 -13 20 -10 4 3 13 -2 20 -10 7 -8 22 -13 34 -11 11 3 53 5 91 6 54 0 66 3 52 11 -10 6 -43 9 -73 6 -48 -4 -54 -2 -54 14 0 13 -7 19 -21 19 -12 0 -19 5 -16 13 2 7 18 11 38 10 19 -1 51 -2 72 -3 20 0 37 -5 37 -11 0 -6 -7 -9 -15 -5 -17 6 -21 -9 -5 -19 14 -9 35 7 36 27 2 18 -51 33 -80 22 -11 -4 -15 -2 -13 7 2 8 2 11 0 7 -3 -5 -18 -8 -35 -8 -23 0 -29 4 -24 16 3 9 6 18 6 20 0 2 12 4 28 4 21 0 24 2 12 10 -13 9 -13 11 0 20 11 7 4 9 -25 8 -23 0 -30 -3 -17 -5z m-55 -109 c-3 -8 -12 -13 -20 -10 -8 3 -20 6 -26 6 -7 0 -1 6 13 14 29 15 41 12 33 -10z"/> <path d="M1711 1518 c-1 -10 -5 -18 -11 -18 -5 0 -10 -5 -10 -11 0 -5 8 -9 18 -7 9 1 23 -1 30 -5 6 -5 12 -5 12 0 0 4 4 2 9 -6 6 -9 11 -10 15 -2 4 6 2 11 -3 11 -6 0 -11 7 -11 16 0 14 1 14 16 0 8 -9 19 -16 24 -16 5 0 15 -3 24 -6 9 -3 16 -1 16 5 0 6 -11 11 -24 11 -13 0 -26 7 -30 15 -3 10 1 15 13 15 11 0 21 -5 23 -11 2 -6 13 -9 23 -7 17 4 16 6 -8 16 -16 7 -42 12 -58 12 -24 0 -29 -4 -29 -26 0 -29 -17 -24 -30 10 -7 17 -9 17 -9 4z"/> <path d="M2091 1500 c-9 -21 -3 -74 8 -83 11 -9 13 -9 8 -1 -4 7 0 14 8 18 8 3 15 12 15 21 0 21 -20 19 -21 -2 -1 -10 -5 -2 -9 17 -4 19 -8 33 -9 30z"/> <path d="M2136 1438 c-3 -13 -5 -48 -5 -78 2 -54 2 -54 10 19 9 75 7 101 -5 59z"/> <path d="M1360 1437 c0 -5 10 -7 22 -5 11 2 23 -2 25 -8 2 -7 -6 -10 -23 -6 -19 3 -25 1 -20 -7 4 -7 -2 -15 -16 -20 -21 -9 -21 -10 -2 -10 11 -1 25 4 32 11 9 9 12 9 12 0 0 -6 -6 -15 -13 -19 -20 -12 -30 -43 -12 -36 8 3 12 9 9 14 -3 5 2 12 10 15 9 3 16 12 16 18 0 7 9 22 20 34 28 30 26 33 -20 30 -22 -2 -40 -7 -40 -11z"/> <path d="M1245 1429 c-3 -4 -12 -6 -20 -2 -8 3 -15 0 -15 -5 0 -7 18 -10 44 -9 45 2 52 11 16 20 -11 3 -22 1 -25 -4z"/> <path d="M1875 1409 c-15 -6 -9 -8 22 -8 35 -1 42 -5 46 -23 4 -20 4 -19 6 5 0 15 -2 28 -6 28 -31 6 -51 5 -68 -2z"/> <path d="M2059 1405 c-3 -5 -9 -22 -13 -37 -5 -24 -2 -30 26 -44 30 -16 31 -18 13 -25 -13 -5 -15 -8 -5 -8 8 0 22 4 30 9 13 8 12 11 -5 24 -11 9 -23 16 -27 16 -4 0 -8 17 -10 38 -2 20 -6 33 -9 27z"/> <path d="M590 1340 c-17 -13 -27 -15 -32 -7 -4 6 -10 9 -13 5 -7 -7 8 -40 33 -68 22 -26 24 -63 3 -55 -11 3 -10 0 3 -10 36 -28 42 -21 27 32 -12 41 6 96 28 88 10 -4 9 0 -4 15 -10 11 -19 20 -19 20 -1 0 -12 -9 -26 -20z"/> <path d="M1900 1350 c0 -5 -10 -10 -22 -10 -14 0 -19 -3 -12 -10 13 -13 54 -1 54 16 0 8 -4 14 -10 14 -5 0 -10 -4 -10 -10z"/> <path d="M1425 1339 c4 -5 37 -9 75 -9 41 0 72 -5 76 -11 5 -8 -1 -10 -17 -6 -13 3 -33 1 -44 -3 -19 -7 -19 -8 5 -18 14 -5 32 -6 41 -2 8 5 21 5 29 0 7 -4 19 -6 27 -3 7 3 13 0 13 -6 0 -6 5 -11 10 -11 6 0 10 7 10 15 0 11 -11 15 -37 16 -21 0 -32 3 -26 6 10 3 9 8 -1 19 -17 16 -170 29 -161 13z"/> <path d="M1716 1342 c-3 -2 -31 -4 -63 -5 -32 0 -50 -3 -40 -5 9 -2 17 -7 17 -10 0 -4 18 -8 40 -9 22 0 40 3 40 7 0 4 19 6 42 3 27 -4 39 -3 35 4 -7 11 -64 23 -71 15z"/> <path d="M1915 1280 c-26 -27 -30 -29 -37 -13 -5 14 -7 12 -7 -8 -1 -15 -8 -32 -16 -39 -8 -7 -15 -19 -15 -27 0 -8 -4 -12 -9 -8 -15 9 -23 -13 -12 -32 8 -15 12 -12 27 19 10 21 22 34 28 31 6 -3 8 -3 4 2 -8 9 62 91 74 88 5 -2 8 2 8 7 0 18 -16 11 -45 -20z"/> <path d="M1334 1265 c-7 -16 3 -35 17 -35 6 0 7 5 4 10 -3 6 3 10 14 10 12 0 21 6 21 13 0 8 3 8 9 -2 5 -8 18 -12 30 -8 12 3 21 1 21 -4 0 -5 -11 -9 -25 -9 -41 0 -75 -21 -75 -46 0 -12 -6 -25 -12 -27 -10 -4 -10 -6 0 -6 13 -1 17 -48 6 -75 -3 -9 -14 -16 -24 -16 -10 0 -23 -7 -30 -15 -13 -16 0 -21 16 -6 13 14 94 31 94 20 0 -5 -12 -9 -27 -10 l-28 -1 25 -9 c24 -8 24 -8 -5 -7 -16 0 -37 -2 -45 -5 -8 -3 -22 -8 -30 -11 -8 -3 11 -3 44 -1 32 3 62 2 67 -1 15 -9 -18 -35 -35 -28 -9 3 -24 0 -34 -7 -16 -13 -16 -13 -2 5 14 18 13 19 -45 12 -90 -10 -119 -11 -138 -3 -10 4 -16 3 -12 -2 3 -5 -1 -11 -7 -14 -29 -10 5 -19 37 -10 23 8 35 8 38 0 2 -6 10 -6 24 2 22 11 64 10 95 -4 10 -4 31 -2 48 3 26 10 33 8 50 -10 11 -12 23 -18 27 -15 3 4 1 7 -5 7 -7 0 -12 5 -12 10 0 6 17 8 43 5 32 -4 37 -3 20 4 -12 5 -26 18 -32 28 -6 10 -11 12 -11 6 0 -7 -10 -13 -22 -13 -12 0 -18 3 -15 7 4 3 2 12 -4 19 -7 9 -7 19 1 34 10 18 8 21 -20 26 -17 4 -30 13 -30 21 0 10 7 14 20 10 25 -6 27 14 2 29 -24 15 -27 61 -4 72 35 17 47 9 47 -35 0 -24 -4 -43 -10 -43 -6 0 -6 -3 1 -8 5 -4 9 -22 8 -39 -1 -30 2 -34 37 -43 24 -7 39 -17 39 -26 0 -11 -5 -14 -16 -10 -14 5 -15 4 -4 -9 7 -8 17 -15 23 -15 5 0 16 -8 23 -17 11 -16 12 -13 7 22 -9 59 -30 86 -59 79 -23 -6 -24 -4 -25 42 0 27 -2 60 -4 74 -2 14 1 35 7 48 14 28 -6 57 -22 32 -9 -13 -11 -13 -19 -1 -8 12 -12 12 -24 2 -10 -8 -17 -9 -22 -1 -9 14 -25 12 -31 -5z"/> <path d="M2008 1269 c-14 -9 36 -17 67 -11 14 2 25 8 25 12 0 9 -77 8 -92 -1z"/> <path d="M1540 1260 c-22 -7 -21 -8 12 -9 20 -1 40 4 43 9 7 12 -19 12 -55 0z"/> <path d="M2030 1250 c-1 -3 -4 -15 -5 -27 -2 -18 3 -23 21 -23 12 0 25 -6 27 -12 3 -8 6 -6 6 5 1 10 -6 17 -18 17 -12 0 -21 8 -24 23 -2 12 -5 20 -7 17z"/> <path d="M952 1221 c13 -4 15 -10 8 -21 -7 -10 -10 -11 -10 -2 0 6 -7 12 -15 12 -8 0 -15 -4 -15 -9 0 -12 48 -23 62 -15 8 5 9 1 5 -11 -6 -15 -4 -16 15 -10 36 12 100 8 109 -6 4 -8 11 -10 15 -6 16 16 -18 31 -70 31 -30 1 -52 5 -48 10 3 5 -5 7 -16 4 -12 -4 -22 -2 -22 3 0 5 3 9 8 10 4 0 15 2 25 4 9 2 17 -1 17 -7 0 -6 39 -8 103 -5 56 2 85 3 65 0 -21 -2 -38 -7 -38 -12 0 -8 65 -3 90 6 8 3 21 7 28 9 8 1 17 5 20 9 4 4 -49 5 -118 4 -69 -2 -130 0 -136 3 -5 4 -30 6 -55 6 -24 0 -36 -3 -27 -7z"/> <path d="M1591 1189 c-25 -5 -49 -10 -54 -12 -6 -2 45 -3 111 -3 67 1 122 4 122 9 0 4 -24 7 -54 7 -30 0 -60 2 -68 4 -7 2 -33 0 -57 -5z"/> <path d="M1269 1175 c-3 -2 -27 -7 -54 -10 -72 -9 -71 -19 0 -12 33 4 66 6 73 7 7 0 10 5 7 10 -7 11 -19 13 -26 5z"/> <path d="M2105 1139 c-40 -6 -39 -6 15 -9 49 -2 51 -3 20 -9 -25 -4 -30 -8 -18 -13 19 -8 58 1 58 13 0 16 -35 25 -75 18z"/> <path d="M2219 1130 c29 -25 53 -27 44 -2 -6 15 -5 15 10 4 14 -12 20 -11 38 2 l22 15 -22 -2 c-11 -1 -21 -5 -21 -10 0 -5 -7 -3 -17 4 -12 11 -17 11 -20 2 -3 -9 -12 -9 -31 -2 l-27 9 24 -20z"/> <path d="M1594 1132 c3 -5 20 -7 38 -5 28 3 30 2 15 -7 -10 -7 -26 -10 -36 -7 -10 2 -26 -2 -36 -9 -17 -13 -13 -14 34 -14 32 0 50 4 46 10 -3 6 -2 10 4 10 5 0 11 -5 13 -12 5 -14 38 -3 38 13 0 6 -7 8 -16 5 -12 -4 -15 -2 -10 9 4 12 -4 15 -45 15 -28 0 -48 -4 -45 -8z"/> <path d="M1780 1132 c0 -16 27 -22 102 -22 87 0 82 13 -5 15 -34 1 -70 5 -79 10 -11 4 -18 3 -18 -3z"/> <path d="M1155 1119 c-22 -5 -61 -9 -87 -10 -27 0 -48 -5 -48 -11 0 -5 5 -6 10 -3 6 3 10 2 10 -2 0 -10 47 -10 57 0 3 4 31 7 62 7 41 0 52 3 41 10 -10 7 4 8 45 4 33 -4 58 -5 55 -2 -10 11 -107 15 -145 7z"/> <path d="M669 1093 c-12 -15 -12 -16 5 -10 14 6 17 4 12 -8 -3 -9 -2 -14 3 -11 5 3 11 15 14 26 6 25 -15 27 -34 3z"/> <path d="M1106 1079 c5 -8 -1 -10 -20 -7 -37 7 -43 -9 -6 -17 16 -4 28 -12 27 -18 -2 -13 132 -20 152 -7 22 13 3 30 -32 29 l-32 -2 35 -7 35 -7 -32 -2 c-18 0 -47 8 -65 19 l-33 21 65 -6 c44 -3 59 -2 45 4 -30 14 -148 14 -139 0z"/> <path d="M1806 1081 c-3 -5 15 -9 42 -10 26 0 63 -1 82 -2 53 -2 62 0 55 10 -7 12 -172 14 -179 2z"/> <path d="M2281 1056 c-10 -12 -6 -14 24 -13 33 1 35 2 19 14 -23 16 -29 16 -43 -1z"/> <path d="M2240 1040 c12 -8 10 -10 -10 -11 -19 -1 -17 -3 10 -8 50 -10 68 -1 30 15 -38 16 -51 18 -30 4z"/> <path d="M960 1029 c0 -5 -4 -8 -9 -4 -5 3 -12 1 -15 -3 -3 -5 -17 -7 -30 -5 -21 4 -24 2 -19 -16 6 -25 2 -24 46 -6 47 19 47 19 47 -10 0 -22 -3 -24 -32 -18 -30 6 -32 5 -19 -10 7 -9 11 -26 8 -38 -4 -15 -2 -19 9 -15 9 4 14 -2 15 -17 1 -16 3 -17 6 -5 2 9 -1 27 -7 38 -16 30 -7 34 30 15 18 -9 34 -14 37 -12 2 3 -4 10 -14 15 -24 13 -30 70 -7 79 13 5 13 7 2 14 -18 12 -48 11 -48 -2z"/> <path d="M1064 1032 c4 -6 -2 -8 -16 -4 -14 3 -19 2 -14 -6 4 -7 16 -12 26 -12 13 0 18 -5 13 -16 -3 -9 -12 -13 -22 -8 -9 3 -25 9 -36 12 -19 5 -19 4 -3 -14 9 -10 19 -34 21 -52 6 -35 13 -49 22 -40 3 2 0 19 -6 37 -6 18 -9 35 -5 38 9 9 47 -13 90 -55 39 -36 39 -36 15 -42 -52 -14 -99 -18 -99 -9 0 5 1 9 3 10 1 0 22 3 47 6 57 7 65 13 14 12 -68 -1 -129 -14 -126 -27 1 -7 -7 -12 -18 -12 -11 0 -20 5 -20 10 0 6 -7 10 -15 10 -24 0 -18 -19 10 -32 19 -8 46 -8 108 0 128 17 157 24 157 33 0 5 -4 8 -9 6 -10 -3 -111 90 -111 103 0 6 6 10 13 10 8 0 7 3 -3 10 -8 5 -15 15 -15 21 0 7 -6 14 -14 17 -8 3 -11 0 -7 -6z"/> <path d="M1630 1026 c0 -18 -17 -18 -62 -1 -11 5 -14 -1 -10 -25 2 -16 9 -30 14 -30 5 0 6 9 3 20 -3 11 -3 20 0 20 19 0 127 -66 136 -83 10 -18 7 -19 -75 -16 -64 3 -86 1 -86 -8 0 -25 134 -19 187 8 40 21 88 25 98 9 3 -5 25 -10 48 -10 27 0 37 -3 28 -9 -9 -6 -10 -11 -2 -15 6 -4 14 0 17 8 4 11 19 16 48 16 30 0 37 -3 26 -10 -8 -5 -23 -7 -32 -4 -10 3 -18 1 -18 -5 0 -6 20 -8 47 -6 35 3 54 -1 75 -16 20 -14 28 -16 28 -7 0 11 2 11 9 0 4 -8 11 -13 15 -13 3 1 31 1 62 1 74 0 61 -19 -14 -22 l-57 -1 50 -7 c28 -4 42 -8 32 -8 -10 -1 -16 -6 -12 -11 13 -22 -17 -20 -52 2 -21 13 -57 34 -81 46 l-42 22 -73 -31 c-93 -39 -117 -59 -107 -85 6 -14 9 -15 9 -5 1 25 37 50 51 37 8 -9 10 -8 5 4 -4 10 5 20 30 32 44 21 91 22 99 2 6 -16 -19 -21 -28 -6 -4 5 -12 8 -19 6 -37 -9 -57 -18 -57 -27 0 -5 9 -4 20 2 12 6 20 7 20 1 0 -13 63 -2 75 13 8 10 20 9 58 -8 26 -12 47 -24 47 -28 0 -16 -99 -83 -211 -142 -158 -83 -452 -129 -527 -83 -7 5 -21 5 -32 2 -26 -8 -111 5 -104 16 3 5 -6 10 -20 10 -14 1 -29 2 -33 4 -50 13 -60 18 -60 31 0 8 6 14 14 14 7 0 12 -5 11 -11 -2 -6 3 -14 11 -17 8 -3 11 0 7 7 -4 6 -2 11 3 11 6 0 11 -6 11 -12 0 -9 3 -10 8 -2 4 6 15 10 26 8 14 -2 16 0 7 9 -7 7 -37 12 -66 13 -30 0 -58 3 -61 7 -11 11 40 25 72 20 24 -3 26 -2 12 7 -24 15 -23 25 2 27 14 1 20 -4 20 -18 0 -14 4 -18 13 -13 7 5 6 0 -3 -11 -14 -17 -13 -18 3 -12 24 9 69 -2 61 -15 -4 -5 -11 -5 -18 1 -9 8 -13 7 -13 -4 0 -14 30 -18 70 -8 25 6 21 35 -9 58 l-26 19 23 8 c15 6 25 4 31 -4 4 -7 8 -9 8 -4 0 5 15 -7 34 -27 43 -46 134 -85 142 -62 4 8 3 26 0 39 -4 18 -1 28 11 35 16 9 16 10 -4 11 -13 0 -23 -4 -23 -9 0 -10 -25 -9 -36 1 -9 10 67 57 104 64 45 9 40 20 -8 16 -22 -2 -40 -7 -40 -11 0 -4 -25 -20 -55 -36 -30 -17 -55 -33 -55 -37 0 -12 18 -10 25 2 10 16 35 -8 35 -31 0 -34 -32 -21 -86 35 -49 50 -54 53 -73 39 -17 -11 -20 -11 -15 0 5 15 -34 37 -67 37 -11 0 -36 7 -55 15 -34 14 -36 14 -41 -5 -3 -11 -9 -17 -14 -14 -5 3 -9 1 -9 -4 0 -6 7 -12 15 -16 8 -3 15 -1 15 4 0 6 21 10 46 10 37 0 45 -3 40 -15 -3 -8 -1 -15 4 -15 6 0 10 5 10 10 0 6 7 10 15 10 8 0 15 -4 15 -10 0 -5 -6 -10 -12 -10 -10 0 -9 -3 1 -9 10 -6 10 -10 1 -16 -7 -4 1 -13 22 -25 35 -18 43 -41 18 -47 -13 -4 -13 -3 -1 5 12 8 4 15 -35 34 -63 29 -61 28 -44 38 11 7 7 10 -15 16 -22 5 -32 3 -44 -12 -9 -11 -24 -20 -33 -20 -10 -1 -25 -2 -33 -3 -8 0 -15 -7 -15 -15 0 -17 -24 -28 -45 -20 -20 8 -10 23 13 20 16 -3 31 10 32 26 0 4 -10 8 -22 10 -12 2 -23 9 -26 16 -3 9 4 11 25 7 21 -5 24 -4 13 4 -13 9 -13 11 3 11 9 0 17 7 17 17 0 15 -2 15 -19 -1 -11 -10 -38 -19 -60 -19 -44 -2 -48 -6 -28 -26 6 -8 7 -11 2 -8 -6 3 -17 1 -25 -5 -12 -8 -12 -9 2 -4 10 3 20 1 23 -4 4 -6 -1 -10 -9 -10 -31 0 -25 -20 11 -38 24 -12 47 -16 63 -12 29 8 50 2 50 -12 0 -6 -12 -8 -30 -4 -54 10 -32 -1 63 -33 148 -49 217 -60 367 -57 102 1 156 8 220 25 103 27 267 105 335 160 28 22 64 48 80 57 61 35 230 252 210 272 -3 3 -5 0 -5 -7 0 -9 -9 -12 -25 -9 -14 3 -25 1 -25 -3 0 -5 7 -9 15 -9 19 0 19 -11 -1 -36 -15 -18 -15 -18 -11 4 4 15 1 22 -6 19 -7 -3 -11 -10 -9 -16 1 -7 -13 -11 -35 -11 -25 0 -33 3 -24 9 8 5 9 11 3 15 -6 3 -13 2 -17 -4 -4 -6 -11 -7 -17 -4 -6 4 -9 1 -6 -7 3 -9 23 -15 56 -17 40 -2 50 -6 45 -18 -3 -9 -9 -11 -17 -5 -6 5 -39 12 -73 16 -57 6 -62 5 -60 -12 1 -16 8 -18 70 -15 53 3 68 1 65 -8 -3 -9 -28 -12 -90 -11 -47 1 -89 -2 -92 -7 -3 -6 9 -8 30 -5 21 3 41 -1 51 -9 12 -9 15 -9 9 0 -5 9 4 12 36 11 36 -1 39 -2 18 -9 -14 -4 -19 -8 -12 -9 6 -1 12 -5 12 -11 0 -13 -74 -13 -114 0 -17 5 -52 15 -79 22 -26 7 -46 17 -44 22 2 5 31 9 66 8 38 0 59 4 54 9 -12 12 -326 17 -376 7 -35 -8 -42 -5 -75 23 -21 18 -42 43 -49 58 -9 20 -12 22 -13 7z m348 -103 c-27 -2 -69 -2 -95 0 -27 2 -5 3 47 3 52 0 74 -1 48 -3z m-916 -241 c-12 -2 -22 -11 -23 -20 0 -11 -2 -12 -6 -4 -2 6 -10 9 -15 6 -7 -5 -8 -2 -2 7 5 8 9 17 10 22 1 4 2 9 3 12 0 2 13 -1 28 -8 26 -11 26 -12 5 -15z m469 -36 c5 3 9 -4 9 -14 0 -15 -5 -19 -19 -15 -13 3 -17 11 -13 26 3 12 7 16 10 9 2 -7 8 -10 13 -6z"/> <path d="M2020 1023 c0 -5 29 -8 64 -8 35 0 68 3 72 8 4 4 -25 7 -64 7 -40 0 -72 -3 -72 -7z"/> <path d="M1824 989 c-9 -15 33 -18 203 -18 159 0 175 2 153 15 -27 15 -137 17 -146 2 -3 -4 -11 -8 -17 -8 -9 0 -9 2 -1 8 7 4 -33 7 -88 7 -55 0 -102 -3 -104 -6z"/> <path d="M736 970 c12 -4 24 -16 28 -26 3 -9 9 -14 13 -11 3 4 11 2 18 -3 18 -15 85 -23 85 -11 0 6 -14 11 -31 11 -31 0 -89 27 -89 42 0 4 -10 8 -22 7 -23 0 -23 0 -2 -9z"/> <path d="M1243 959 c-1 -15 1 -18 11 -10 6 6 23 8 37 5 17 -4 14 -1 -10 10 -18 9 -34 16 -35 16 -1 0 -2 -9 -3 -21z"/> <path d="M1290 930 c-32 -7 -33 -7 -7 -9 16 0 26 -5 22 -11 -3 -5 3 -10 15 -10 12 0 19 4 16 8 -3 5 15 6 40 2 24 -4 47 -3 50 2 3 4 19 6 35 3 17 -3 38 -1 47 4 9 6 15 11 12 12 -20 5 -202 5 -230 -1z"/> <path d="M760 903 c8 -3 18 -11 22 -17 5 -8 8 -7 8 2 0 6 5 12 11 12 5 0 7 -4 4 -10 -8 -13 5 -13 25 0 13 9 13 10 0 11 -8 1 -31 3 -50 4 -19 2 -28 1 -20 -2z"/> <path d="M1338 892 c-21 -2 -38 -7 -38 -13 0 -5 -19 -10 -42 -10 l-43 -2 35 -6 c20 -4 51 -2 73 6 21 7 41 12 45 12 21 -3 42 2 42 10 0 6 -8 9 -17 8 -10 -1 -35 -3 -55 -5z"/> <path d="M1429 863 c-12 -14 -12 -16 1 -8 8 5 31 8 50 7 26 -2 31 0 20 7 -23 16 -56 13 -71 -6z"/> <path d="M1365 863 c-16 -3 -34 -9 -40 -14 -7 -7 5 -8 34 -3 30 5 42 4 38 -4 -4 -5 -17 -8 -30 -5 -15 3 -18 2 -9 -4 8 -6 -8 -8 -44 -5 -51 4 -57 3 -50 -13 5 -14 2 -16 -15 -12 -14 4 -18 2 -12 -4 11 -11 80 -15 90 -6 3 4 -6 7 -22 7 -50 0 -19 11 35 13 28 0 54 5 57 10 3 5 9 3 14 -4 6 -10 11 -11 17 -3 9 14 82 26 82 13 0 -5 15 -10 33 -10 l32 -2 -35 -7 -35 -7 33 -2 c18 0 40 6 48 14 17 17 60 20 69 5 3 -5 24 -10 45 -10 21 0 42 -4 45 -10 3 -5 17 -10 30 -10 13 0 27 5 30 10 4 6 -5 10 -20 10 -15 0 -53 7 -84 15 -31 8 -83 14 -116 14 -122 -1 -180 6 -177 19 1 6 -1 11 -5 11 -5 -1 -21 -4 -38 -6z"/> <path d="M1522 865 c4 -4 37 -9 75 -11 37 -3 82 -7 98 -10 17 -3 48 -8 70 -11 22 -3 44 -9 50 -14 5 -5 15 -9 23 -9 22 0 -4 28 -31 33 -12 3 -2 3 24 1 25 -1 51 1 59 6 14 9 0 10 -75 9 -46 -1 -65 -1 -200 7 -55 3 -97 2 -93 -1z"/> <path d="M1067 820 c-21 -4 -49 -5 -63 -2 -23 4 -54 -12 -54 -28 0 -12 42 -17 70 -9 20 6 16 7 -19 8 -65 1 -42 13 31 16 123 5 125 5 103 15 -23 10 -19 10 -68 0z"/> <path d="M1146 805 c-11 -8 -34 -15 -52 -15 -17 0 -37 -7 -44 -15 -9 -10 -9 -15 -1 -15 6 0 11 5 11 11 0 5 5 7 11 4 13 -9 97 16 111 32 15 18 -12 16 -36 -2z"/> <path d="M1340 789 c0 -3 34 -9 77 -13 136 -11 169 -7 85 12 -26 6 -40 6 -36 1 3 -6 -5 -7 -20 -3 -34 8 -106 10 -106 3z"/> <path d="M1655 776 c-12 -10 -15 -15 -7 -16 10 0 10 -4 -2 -15 -8 -9 -13 -21 -10 -28 2 -7 -7 -18 -23 -24 l-28 -11 26 -1 c14 -1 31 5 38 12 11 10 14 9 18 -1 3 -6 10 -9 16 -6 9 5 9 4 1 -5 -5 -6 -37 -13 -70 -15 -44 -3 -58 -7 -55 -17 2 -8 4 -19 4 -25 0 -6 13 -18 29 -27 16 -9 26 -12 23 -7 -3 6 5 10 20 10 14 0 24 4 21 9 -3 5 7 11 24 14 26 6 29 10 27 42 -2 32 -14 47 -41 49 -5 1 -11 7 -14 15 -3 10 0 12 13 8 9 -4 29 -10 43 -13 29 -6 41 -11 117 -44 28 -12 53 -27 57 -34 6 -8 8 -7 8 2 0 7 3 11 8 8 10 -6 40 17 44 35 2 7 15 19 31 26 27 12 33 28 19 51 -12 18 -64 20 -70 3 -3 -9 1 -11 17 -6 13 4 27 1 36 -9 17 -17 20 -30 5 -21 -6 4 -24 -1 -42 -9 -17 -9 -37 -16 -45 -16 -7 0 -13 -5 -13 -11 0 -7 9 -9 21 -6 13 3 19 1 16 -6 -4 -12 -11 -12 -69 0 -30 6 -36 18 -14 26 8 3 17 1 20 -6 3 -9 5 -9 5 0 1 19 -18 26 -35 12 -11 -9 -21 -9 -37 -1 -12 5 -43 18 -69 29 -48 18 -68 41 -25 29 12 -4 38 -9 57 -13 32 -5 33 -4 16 9 -25 20 -87 22 -111 4z m39 -125 c3 -5 -10 -12 -29 -15 -19 -4 -35 -11 -35 -16 0 -6 -5 -10 -11 -10 -5 0 -7 5 -3 11 5 8 1 8 -14 0 -17 -9 -20 -8 -18 7 2 12 15 19 47 23 24 3 47 7 51 7 4 1 9 -2 12 -7z"/> <path d="M1325 760 c-4 -6 20 -10 61 -10 37 0 65 3 62 6 -11 10 -117 14 -123 4z"/> <path d="M1419 721 c-11 -12 -8 -13 20 -8 19 4 37 7 42 7 5 0 9 4 9 10 0 14 -55 7 -71 -9z"/> <path d="M1420 601 c0 -6 5 -10 11 -8 6 1 14 -4 16 -11 6 -14 -27 -5 -40 12 -5 7 -7 3 -5 -9 4 -28 42 -31 69 -6 20 18 20 20 3 19 -11 0 -27 3 -36 7 -11 4 -18 3 -18 -4z"/> <path d="M555 2448 l-60 -63 63 60 c34 33 62 61 62 62 0 8 -10 -1 -65 -59z"/> <path d="M642 2405 c-47 -46 -53 -55 -32 -50 20 5 33 -3 69 -39 32 -33 42 -49 37 -63 -5 -12 3 -8 23 11 34 32 40 49 16 39 -18 -6 -57 25 -49 39 3 5 30 8 59 7 37 -2 60 3 77 14 l23 17 -28 -6 c-15 -3 -43 -3 -62 0 -31 6 -34 10 -29 32 7 27 -10 54 -33 54 -8 0 -40 -25 -71 -55z m76 8 c11 -19 -5 -63 -23 -63 -6 0 -22 11 -34 24 l-22 24 22 16 c30 20 46 20 57 -1z"/> <path d="M534 2279 c-53 -26 -72 -119 -31 -157 47 -45 126 -21 153 45 34 81 -42 150 -122 112z m82 -43 c40 -40 42 -59 9 -91 -33 -34 -61 -31 -101 9 -31 31 -33 37 -24 63 23 61 66 69 116 19z"/> <path d="M2536 2203 c6 -26 -102 -99 -122 -82 -22 18 -17 2 12 -39 18 -25 25 -30 21 -16 -3 15 3 26 23 38 37 21 45 3 23 -59 -10 -32 -12 -53 -6 -67 8 -18 11 -12 23 36 14 58 18 64 37 45 6 -6 21 -9 34 -7 39 5 37 50 -5 114 -38 57 -47 65 -40 37z m44 -67 c7 -14 10 -32 7 -40 -9 -24 -54 -20 -68 6 -10 18 -8 24 11 40 29 23 34 23 50 -6z"/> <path d="M309 2109 c-16 -34 -29 -63 -27 -65 2 -2 18 26 36 61 17 36 30 65 27 65 -3 0 -19 -27 -36 -61z"/> <path d="M403 2080 c-27 -46 -29 -57 -8 -40 13 11 26 8 75 -15 36 -17 60 -35 60 -44 0 -9 9 -1 20 17 23 37 25 49 7 34 -18 -16 -133 47 -129 71 4 25 -1 21 -25 -23z"/> <path d="M2605 1984 c-12 -12 -14 -27 -9 -64 6 -42 4 -49 -14 -59 -17 -9 -23 -7 -36 11 -20 28 -20 48 0 76 12 18 12 22 1 22 -22 0 -52 -26 -39 -34 7 -4 12 -20 12 -35 0 -16 10 -37 23 -49 46 -44 77 -22 77 54 0 60 18 85 44 59 21 -21 20 -54 -1 -77 -21 -24 -12 -32 20 -17 15 7 23 17 19 23 -7 11 -8 16 -10 49 -2 21 -37 57 -56 57 -8 0 -22 -7 -31 -16z"/> <path d="M361 1953 c-23 -19 -77 -153 -62 -153 5 0 11 5 13 12 6 18 136 -19 140 -40 5 -23 38 79 38 116 0 44 -34 82 -75 82 -18 0 -42 -8 -54 -17z m96 -39 c20 -20 24 -31 19 -56 -8 -43 -11 -44 -59 -31 -89 24 -99 30 -86 55 33 64 81 77 126 32z"/> <path d="M207 1828 c-9 -35 -18 -88 -21 -118 -5 -51 -4 -50 8 15 8 39 19 90 26 114 6 23 9 45 7 47 -2 3 -11 -24 -20 -58z"/> <path d="M2708 1825 c-2 -13 -23 -23 -66 -35 -57 -16 -63 -16 -72 -1 -8 11 -9 5 -4 -24 7 -44 24 -72 24 -39 0 17 12 23 65 36 60 14 66 14 76 -1 7 -12 8 -5 4 24 -7 45 -21 66 -27 40z"/> <path d="M280 1756 c0 -7 -2 -29 -5 -47 -5 -31 -4 -32 6 -11 10 19 17 21 48 16 65 -11 86 -26 89 -62 5 -52 -12 -64 -77 -56 -33 3 -61 13 -68 22 -12 14 -13 14 -13 0 0 -8 -3 -31 -6 -49 -6 -31 -5 -33 8 -15 13 16 23 18 75 12 51 -6 62 -4 77 13 10 11 20 37 23 59 7 50 -17 76 -77 86 -47 7 -73 23 -64 37 3 5 0 9 -5 9 -6 0 -11 -6 -11 -14z"/> <path d="M2705 1720 c-3 -5 -2 -10 4 -10 16 0 41 -30 41 -49 0 -15 -12 -19 -67 -25 -58 -6 -69 -4 -80 10 -12 17 -13 17 -12 -2 2 -29 16 -81 18 -63 1 15 60 29 129 29 28 0 30 -32 3 -59 -21 -21 -18 -31 12 -31 19 0 20 5 14 73 -10 111 -17 137 -38 137 -10 0 -21 -4 -24 -10z"/> <path d="M174 1510 c0 -74 1 -105 3 -67 2 37 2 97 0 135 -2 37 -3 6 -3 -68z"/> <path d="M2600 1491 c0 -39 2 -42 13 -27 22 30 47 10 47 -39 0 -36 -4 -45 -21 -50 -13 -4 -25 -2 -29 5 -4 7 -10 -1 -14 -20 -8 -44 -7 -58 3 -41 5 8 44 28 87 45 43 18 79 37 81 43 3 7 -30 30 -71 53 -42 23 -80 49 -86 58 -7 13 -9 6 -10 -27z m105 -53 c14 -6 25 -14 25 -18 0 -6 -44 -30 -55 -30 -3 0 -5 14 -5 30 0 34 0 34 35 18z"/> <path d="M250 1420 c0 -100 0 -100 25 -100 30 0 32 11 5 28 -31 19 -25 48 11 56 59 12 107 7 118 -11 8 -14 10 -6 10 32 -1 28 -3 42 -6 33 -4 -15 -16 -18 -79 -18 -83 0 -94 12 -52 57 l21 23 -26 0 -27 0 0 -100z"/> <path d="M186 1310 c6 -61 34 -183 41 -176 2 2 -1 24 -7 47 -7 24 -18 76 -26 114 -12 65 -13 66 -8 15z"/> <path d="M356 1288 c-9 -12 -16 -32 -16 -43 0 -44 -12 -66 -34 -63 -31 4 -34 53 -5 84 18 19 19 24 7 24 -36 0 -44 -10 -43 -55 1 -28 9 -53 20 -65 33 -37 75 -19 75 31 0 44 17 79 39 79 36 0 42 -62 9 -97 -22 -24 -19 -27 18 -17 17 5 21 12 18 37 -1 18 -3 40 -3 50 -1 21 -36 57 -55 57 -8 0 -22 -10 -30 -22z"/> <path d="M2577 1252 c-13 -36 -15 -55 -8 -74 21 -56 56 -48 100 23 33 54 54 59 59 15 4 -29 -21 -66 -45 -66 -7 0 -13 -4 -13 -10 0 -5 4 -10 9 -10 5 0 16 -3 25 -6 10 -4 16 -1 16 9 0 8 7 28 15 43 20 38 19 57 -3 85 -25 29 -44 21 -78 -33 -31 -49 -42 -58 -61 -51 -30 12 -2 103 33 103 8 0 14 5 14 10 0 6 -10 10 -23 10 -18 0 -26 -10 -40 -48z"/> <path d="M472 1030 c-24 -11 -41 -24 -37 -30 3 -5 0 -8 -7 -5 -7 3 -28 -4 -46 -15 l-33 -20 28 -52 c43 -79 130 -165 176 -173 21 -4 41 -5 44 -1 26 26 -1 227 -29 210 -7 -4 -8 -3 -4 4 8 13 -18 75 -38 91 -8 7 -25 4 -54 -9z m4 -15 c-23 -17 -14 -20 14 -5 15 8 22 6 33 -10 7 -11 16 -18 18 -15 8 8 4 -39 -4 -52 -15 -24 -36 -13 -61 30 -24 39 -25 43 -9 55 9 6 19 12 22 12 3 0 -3 -7 -13 -15z m-61 -36 c-4 -6 0 -9 11 -7 21 4 67 -72 48 -79 -6 -2 -20 -10 -30 -17 -18 -13 -16 -17 32 -65 28 -28 57 -51 65 -51 8 0 1 8 -16 19 -16 10 -41 30 -54 44 -20 22 -22 29 -11 42 22 26 36 17 73 -44 28 -48 32 -61 20 -65 -16 -7 -46 7 -72 33 -27 27 -77 96 -63 87 18 -11 14 6 -9 34 l-20 25 11 -25 c10 -23 10 -24 -4 -6 -12 15 -13 23 -3 40 6 11 12 24 13 29 3 15 4 17 10 17 3 0 2 -5 -1 -11z m163 -121 c3 -78 0 -79 -41 -7 l-26 46 32 16 c18 9 32 16 32 16 0 1 1 -32 3 -71z"/> <path d="M2495 1032 c-39 -28 -110 -146 -101 -168 3 -8 2 -13 -3 -10 -9 6 -21 -40 -21 -85 0 -26 3 -29 35 -29 20 0 50 6 68 14 37 16 147 112 147 128 0 6 -10 3 -22 -8 -19 -15 -20 -16 -9 -1 7 9 10 17 6 17 -4 0 -13 -8 -20 -17 -12 -16 -14 -16 -40 1 l-27 18 28 31 c16 18 30 33 31 35 1 2 11 -2 23 -8 16 -9 20 -18 16 -35 -6 -24 5 -28 32 -12 22 15 12 32 -48 80 -67 53 -80 60 -95 49z m17 -9 c-10 -4 -9 -8 5 -19 23 -17 36 -18 27 -1 -4 6 12 -4 37 -24 24 -20 45 -45 46 -55 3 -16 1 -15 -6 2 -10 23 -71 71 -71 57 0 -5 -13 -24 -29 -43 l-29 -35 -25 23 c-21 20 -25 21 -30 8 -4 -10 -1 -16 7 -16 7 0 19 -7 26 -15 10 -12 5 -24 -28 -65 -38 -47 -40 -49 -44 -25 -3 14 -1 25 5 25 5 0 7 11 5 25 -3 15 -1 22 5 18 6 -4 8 0 4 11 -5 11 -3 15 5 10 7 -5 9 -2 6 8 -7 18 7 43 24 43 7 0 12 8 12 18 -1 9 2 15 6 12 8 -5 23 11 26 28 1 4 2 9 3 12 0 3 7 5 14 4 9 0 9 -2 -1 -6z m16 -167 c18 -23 20 -24 38 -8 16 15 16 14 -1 -7 -24 -28 -94 -81 -108 -81 -6 0 11 14 36 31 26 17 47 33 47 36 0 5 -10 -1 -59 -34 -19 -13 -43 -23 -53 -23 -16 0 -13 8 21 46 23 26 41 51 41 55 0 17 19 9 38 -15z m-107 -97 c21 -6 20 -7 -8 -8 -30 -1 -33 2 -32 27 0 23 2 24 8 7 4 -11 19 -23 32 -26z"/> <path d="M290 957 c0 -24 127 -234 157 -259 10 -7 -4 16 -29 52 -25 36 -64 99 -87 140 -22 41 -41 71 -41 67z"/> <path d="M821 642 c7 -20 5 -48 -5 -97 -8 -39 -13 -71 -11 -74 4 -3 69 31 120 65 l29 19 -31 -55 c-18 -30 -41 -57 -52 -60 -18 -4 -15 -8 19 -28 22 -12 40 -18 40 -13 0 5 -4 12 -10 16 -5 3 5 32 23 66 24 44 37 58 50 55 26 -6 20 7 -9 21 -22 10 -32 8 -82 -22 -65 -38 -70 -34 -53 47 10 44 9 54 -5 69 -25 27 -34 23 -23 -9z"/> <path d="M2144 617 c-23 -18 -50 -37 -60 -44 -18 -11 -18 -12 1 -12 14 -1 32 -19 54 -56 28 -45 31 -58 21 -70 -20 -24 -3 -18 48 17 85 57 101 73 90 91 -13 25 -26 21 -30 -10 -2 -14 -15 -35 -30 -46 -27 -20 -28 -20 -48 -2 -11 10 -20 24 -20 31 0 18 37 37 45 24 4 -6 11 -8 16 -5 9 6 -20 54 -33 55 -5 0 -8 -8 -8 -19 0 -10 -6 -24 -14 -30 -11 -9 -18 -6 -35 17 l-21 30 26 16 c14 10 33 16 42 15 30 -3 35 1 22 16 -16 20 -18 19 -66 -18z"/> <path d="M2435 568 l-80 -83 83 80 c76 74 87 85 79 85 -1 0 -38 -37 -82 -82z"/> <path d="M775 585 c-29 -37 -41 -44 -58 -39 -13 4 -18 3 -12 -3 6 -4 23 -19 38 -33 l29 -25 -7 27 c-6 22 0 36 25 68 18 23 30 43 28 46 -3 2 -22 -16 -43 -41z"/> <path d="M545 581 c32 -35 125 -116 125 -109 0 3 -35 35 -77 73 -43 38 -64 54 -48 36z"/> <path d="M1030 520 c0 -4 5 -10 11 -12 6 -2 -1 -28 -18 -66 -21 -45 -33 -62 -48 -62 -23 -1 24 -27 101 -56 39 -15 47 -15 55 -3 18 28 11 41 -14 24 -22 -14 -28 -14 -60 0 -21 8 -37 17 -37 20 0 12 24 55 31 55 22 0 39 -15 39 -33 0 -28 17 -10 26 28 7 27 6 29 -9 17 -12 -10 -21 -11 -36 -3 -18 10 -19 15 -9 36 6 14 15 25 19 25 20 0 59 -24 59 -37 0 -18 17 -17 24 3 4 11 -4 19 -29 30 -19 7 -51 21 -70 28 -19 8 -35 11 -35 6z"/> <path d="M1967 434 c-3 -47 -12 -93 -19 -102 -11 -14 -10 -15 7 -8 11 5 28 11 38 13 9 3 17 9 17 14 0 5 -7 6 -15 3 -11 -5 -15 1 -15 18 0 34 57 62 84 42 16 -12 17 -16 5 -30 -10 -13 -3 -11 31 6 l45 23 -28 8 c-16 4 -52 28 -82 53 -29 25 -55 46 -58 46 -2 0 -7 -39 -10 -86z m60 2 c-2 -5 -13 -13 -25 -17 -20 -8 -22 -5 -22 27 l0 35 25 -18 c13 -10 23 -22 22 -27z"/> <path d="M1841 465 c-28 -10 -30 -13 -14 -17 13 -3 25 -22 36 -54 9 -27 15 -50 13 -51 -2 -2 -34 18 -72 45 -45 31 -77 46 -92 44 -22 -3 -22 -4 -2 -20 15 -13 20 -31 22 -77 3 -58 2 -60 -24 -63 -24 -3 -31 5 -70 72 -40 70 -58 91 -58 66 0 -24 -64 -150 -76 -150 -8 0 -14 -4 -14 -9 0 -5 16 -9 35 -9 34 0 48 12 23 20 -23 8 2 37 37 44 29 5 39 3 50 -12 12 -17 12 -21 -3 -33 -15 -12 -12 -13 23 -8 22 3 64 9 93 13 49 6 74 24 33 24 -15 0 -22 11 -30 50 -6 28 -11 53 -11 55 0 3 35 -18 77 -46 43 -28 79 -46 81 -40 2 6 -6 41 -18 77 -18 54 -20 68 -9 75 23 14 6 16 -30 4z m-247 -143 c-34 -5 -37 0 -23 32 l12 26 19 -27 18 -28 -26 -3z"/> <path d="M685 460 c6 -9 101 -76 135 -95 30 -16 -5 12 -73 58 -38 26 -66 43 -62 37z"/> <path d="M1206 431 c-23 -25 -10 -51 39 -81 36 -22 46 -54 20 -64 -24 -9 -64 11 -77 39 -8 19 -14 22 -20 13 -14 -23 -8 -34 27 -51 46 -22 78 -21 98 1 27 30 20 49 -29 82 -48 34 -56 63 -17 68 16 2 28 -5 41 -27 19 -31 32 -32 32 -2 0 18 -43 41 -75 41 -12 0 -30 -9 -39 -19z"/> <path d="M2247 416 c-59 -41 -73 -55 -29 -30 33 19 91 63 82 63 -3 0 -27 -15 -53 -33z"/> <path d="M1388 418 c-33 -11 -46 -44 -26 -65 8 -7 30 -22 49 -31 46 -23 47 -56 2 -60 -27 -3 -36 2 -52 28 l-19 31 -6 -27 c-8 -31 -12 -27 42 -43 55 -15 95 1 100 41 3 24 -3 30 -48 53 -57 29 -65 58 -18 63 21 3 30 -3 42 -25 l15 -28 1 27 c0 32 -40 50 -82 36z"/> <path d="M840 355 c0 -13 235 -115 263 -115 6 1 -27 16 -74 34 -47 19 -109 46 -137 60 -29 15 -52 24 -52 21z"/> <path d="M1960 269 c-14 -6 -61 -21 -105 -34 -44 -13 -72 -24 -63 -24 20 -1 208 58 208 64 0 7 -12 5 -40 -6z"/> <path d="M1690 200 c-34 -7 -34 -7 -5 -8 17 0 44 4 60 8 27 7 27 8 5 8 -14 -1 -41 -4 -60 -8z"/> <path d="M1428 183 c39 -2 105 -2 145 0 39 1 7 3 -73 3 -80 0 -112 -2 -72 -3z"/> </g> </svg> 