 <svg  version="1.0" xmlns="http://www.w3.org/2000/svg"  width="300.000000pt" height="300.000000pt" viewBox="0 0 300.000000 300.000000"  preserveAspectRatio="xMidYMid meet">  <g transform="translate(0.000000,300.000000) scale(0.100000,-0.100000)" fill="#c20000" stroke="none"> <path d="M1280 2856 c-571 -101 -1005 -520 -1127 -1086 -25 -120 -26 -420 0 -540 120 -564 564 -992 1127 -1085 126 -21 381 -16 500 10 540 118 951 533 1067 1075 26 120 25 420 0 540 -116 543 -526 955 -1067 1075 -101 23 -398 29 -500 11z m446 -21 c566 -99 1010 -542 1109 -1109 19 -114 20 -337 0 -452 -85 -495 -442 -906 -922 -1063 -242 -79 -551 -82 -798 -9 -429 127 -784 481 -913 913 -70 234 -70 536 0 770 146 487 562 858 1064 949 108 20 349 20 460 1z"/> <path d="M1776 2741 c-23 -25 -15 -49 29 -94 19 -20 35 -45 35 -56 0 -27 -26 -51 -56 -51 -31 0 -74 42 -74 72 -1 21 -1 22 -11 4 -14 -24 3 -57 41 -79 40 -24 82 -21 108 6 34 36 28 72 -19 119 -49 48 -48 73 1 73 26 0 37 -6 46 -23 17 -35 24 -38 24 -10 0 19 -8 30 -34 42 -45 21 -69 20 -90 -3z"/> <path d="M1119 2741 c-67 -21 -89 -52 -62 -90 9 -14 25 -21 47 -21 77 0 120 -35 96 -80 -22 -41 -73 -46 -112 -12 -18 15 -23 6 -12 -22 9 -24 94 -21 127 4 30 24 41 63 26 91 -13 25 -69 50 -96 43 -28 -8 -63 12 -63 35 0 27 56 49 83 32 17 -11 19 -11 13 4 -3 9 -6 19 -6 21 0 5 -9 4 -41 -5z"/> <path d="M1452 2717 l-22 -23 23 -22 23 -22 21 22 c20 19 20 23 6 44 -19 30 -24 30 -51 1z"/> <path d="M1990 2690 c0 -4 -3 -16 -6 -25 -6 -15 -4 -15 13 -5 16 10 25 9 51 -4 18 -9 32 -21 32 -27 0 -19 -81 -154 -103 -171 l-22 -18 22 0 c12 0 25 -4 28 -10 10 -16 28 -11 21 5 -5 15 46 128 76 167 12 17 15 17 46 -2 20 -13 32 -28 32 -42 1 -21 2 -21 11 -5 6 10 9 24 6 31 -8 20 -207 123 -207 106z"/> <path d="M850 2622 c-14 -9 -40 -29 -57 -46 -27 -25 -33 -37 -33 -72 0 -37 6 -48 51 -93 42 -43 49 -54 39 -66 -7 -9 -8 -15 -2 -15 5 0 15 7 22 15 10 12 10 21 1 42 -10 21 -9 28 1 34 7 5 19 7 26 4 6 -2 12 2 12 9 0 7 7 19 15 26 13 11 17 8 26 -19 8 -22 16 -30 26 -27 8 3 19 6 24 6 6 0 -4 17 -21 38 -17 22 -48 71 -68 109 l-37 71 -25 -16z m42 -80 c28 -43 34 -60 25 -70 -6 -7 -19 -11 -29 -9 -13 4 -18 0 -18 -13 0 -11 -5 -22 -11 -25 -26 -16 -85 76 -72 112 8 24 44 63 57 62 6 0 28 -26 48 -57z"/> <path d="M2272 2492 c-7 -16 -37 -56 -67 -90 l-55 -60 27 -30 c16 -16 38 -33 50 -36 30 -9 77 16 124 67 34 38 41 41 59 29 27 -16 26 3 -2 22 -27 19 -49 8 -102 -51 -32 -36 -44 -44 -69 -41 -16 2 -35 11 -41 20 -8 14 3 31 62 97 67 74 71 81 53 90 -26 14 -24 15 -39 -17z"/> <path d="M1405 2502 c-4 -4 -50 -11 -100 -15 -11 -1 -25 -5 -30 -9 -6 -3 -27 -9 -48 -13 -20 -4 -40 -11 -43 -16 -3 -5 -9 -7 -13 -4 -10 5 -196 -87 -221 -110 -9 -8 -19 -15 -22 -15 -21 0 -238 -215 -238 -236 0 -3 -11 -20 -25 -38 -14 -18 -25 -38 -25 -43 0 -6 -7 -16 -15 -23 -9 -7 -13 -15 -10 -18 3 -3 -3 -14 -12 -25 -10 -10 -17 -22 -16 -26 1 -3 -4 -19 -12 -36 -21 -48 -29 -69 -30 -80 0 -5 -4 -16 -9 -23 -4 -7 -5 -16 -2 -19 3 -3 2 -11 -3 -17 -15 -18 -33 -161 -31 -246 2 -66 7 -145 9 -145 1 0 4 -17 6 -39 2 -21 9 -44 15 -50 5 -7 7 -16 3 -19 -3 -4 -1 -13 6 -21 6 -8 11 -18 10 -22 -2 -10 8 -40 22 -66 5 -10 9 -25 9 -33 0 -8 5 -15 12 -15 6 0 9 -3 5 -6 -6 -6 19 -64 32 -74 4 -3 15 -22 24 -42 10 -21 22 -38 27 -38 6 0 10 -5 10 -10 0 -11 5 -18 55 -75 17 -19 39 -45 50 -59 11 -14 25 -25 30 -26 6 0 21 -14 35 -30 13 -17 30 -30 37 -30 7 0 13 -4 13 -10 0 -5 7 -10 15 -10 8 0 15 -4 15 -10 0 -5 17 -17 38 -27 20 -9 43 -23 50 -30 8 -7 17 -11 22 -8 5 3 10 0 12 -5 2 -6 10 -12 18 -14 8 -1 31 -9 50 -18 52 -24 74 -31 84 -29 4 1 14 -3 22 -10 7 -6 18 -8 23 -5 5 4 13 1 16 -5 4 -5 13 -8 21 -5 7 3 16 1 19 -4 3 -5 16 -10 28 -10 12 0 86 -2 165 -3 79 -2 146 1 148 5 3 5 14 6 24 3 10 -3 21 -1 24 4 4 6 13 8 20 5 8 -3 17 -1 20 5 4 6 13 8 21 5 8 -3 20 -2 27 2 7 5 18 9 24 10 6 1 27 9 45 17 36 16 71 28 79 28 3 0 12 6 20 13 8 7 30 19 48 27 17 8 32 17 32 21 0 5 4 8 10 8 13 0 100 62 100 72 0 4 5 8 10 8 14 0 120 106 120 120 0 5 5 10 10 10 6 0 13 7 17 16 3 9 17 28 29 42 13 14 24 31 24 38 0 7 4 14 9 16 14 5 80 135 87 173 3 19 9 35 13 35 9 0 40 140 48 214 6 53 7 147 3 206 -4 51 -41 213 -51 224 -5 6 -9 16 -9 24 0 26 -67 167 -87 183 -7 6 -13 18 -13 25 0 8 -4 14 -10 14 -5 0 -10 7 -10 15 0 9 -7 18 -15 21 -8 4 -15 10 -15 15 0 6 -13 23 -30 39 -16 16 -30 34 -30 40 0 5 -7 10 -15 10 -8 0 -15 7 -15 15 0 8 -3 15 -7 15 -5 0 -22 14 -40 30 -18 17 -36 30 -41 30 -6 0 -12 7 -16 15 -3 8 -12 15 -21 15 -8 0 -15 4 -15 8 0 5 -18 17 -40 28 -22 10 -40 22 -40 27 0 4 -9 7 -20 7 -11 0 -20 5 -20 10 0 6 -9 10 -20 10 -11 0 -20 5 -20 10 0 6 -9 10 -19 10 -11 0 -23 5 -26 10 -4 6 -12 10 -18 9 -7 -1 -21 1 -32 5 -44 17 -50 19 -60 21 -5 1 -12 3 -15 4 -6 3 -48 9 -100 16 -19 2 -35 5 -35 6 0 4 -206 5 -210 1z m125 -23 c0 -5 -7 -9 -15 -9 -15 0 -20 12 -9 23 8 8 24 -1 24 -14z m35 -9 c-5 -8 -11 -8 -17 -2 -6 6 -7 16 -3 22 5 8 11 8 17 2 6 -6 7 -16 3 -22z m-175 5 c0 -8 -7 -15 -15 -15 -16 0 -20 12 -8 23 11 12 23 8 23 -8z m48 3 c-6 -18 -28 -21 -28 -4 0 9 7 16 16 16 9 0 14 -5 12 -12z m40 1 c-2 -6 -8 -10 -13 -10 -5 0 -11 4 -13 10 -2 6 4 11 13 11 9 0 15 -5 13 -11z m137 2 c7 -12 -12 -24 -25 -16 -11 7 -4 25 10 25 5 0 11 -4 15 -9z m45 -12 c0 -5 -7 -9 -15 -9 -15 0 -20 12 -9 23 8 8 24 -1 24 -14z m-310 -4 c0 -8 -7 -15 -15 -15 -8 0 -15 7 -15 15 0 8 7 15 15 15 8 0 15 -7 15 -15z m350 0 c0 -8 -4 -15 -9 -15 -13 0 -22 16 -14 24 11 11 23 6 23 -9z m-392 -7 c-6 -18 -28 -21 -28 -4 0 9 7 16 16 16 9 0 14 -5 12 -12z m437 3 c7 -12 -12 -24 -25 -16 -11 7 -4 25 10 25 5 0 11 -4 15 -9z m-480 -10 c7 -12 -12 -24 -25 -16 -11 7 -4 25 10 25 5 0 11 -4 15 -9z m375 -5 c19 -2 35 -5 35 -6 0 -1 9 -3 20 -4 43 -6 91 -19 102 -28 7 -5 17 -7 22 -4 5 4 12 2 16 -4 3 -5 15 -10 26 -10 10 0 19 -4 19 -10 0 -5 8 -10 18 -10 10 0 22 -3 26 -7 4 -5 11 -8 14 -8 4 0 21 -9 37 -20 17 -12 42 -27 56 -34 15 -7 38 -24 52 -37 14 -13 29 -24 32 -24 20 0 195 -197 195 -219 0 -6 4 -11 9 -11 5 0 11 -8 14 -17 4 -10 18 -37 32 -61 14 -23 25 -49 25 -57 0 -8 5 -15 10 -15 6 0 10 -6 9 -12 -1 -7 1 -22 5 -33 5 -11 10 -27 14 -35 3 -8 4 -20 3 -27 -1 -6 3 -14 8 -18 6 -3 8 -12 5 -19 -3 -8 0 -17 5 -21 6 -3 9 -11 6 -16 -4 -5 -3 -14 1 -21 19 -31 19 -295 0 -326 -3 -5 -3 -17 0 -25 3 -8 0 -18 -5 -22 -6 -3 -9 -11 -5 -16 3 -5 1 -16 -5 -23 -7 -8 -11 -18 -10 -22 1 -5 -3 -22 -9 -37 -7 -16 -12 -32 -12 -36 0 -8 -60 -128 -91 -181 -8 -14 -20 -29 -26 -33 -7 -4 -13 -12 -13 -16 0 -10 -64 -84 -99 -115 -14 -11 -40 -36 -58 -53 -19 -18 -36 -33 -39 -33 -4 0 -27 -15 -53 -33 -38 -28 -110 -67 -131 -72 -3 -1 -13 -5 -22 -8 -10 -4 -26 -10 -35 -14 -10 -3 -20 -7 -23 -8 -3 -1 -12 -5 -20 -8 -8 -4 -53 -15 -100 -25 -115 -25 -304 -22 -410 8 -99 28 -88 24 -150 48 -8 3 -17 6 -20 7 -27 8 -90 41 -90 47 0 5 -4 8 -10 8 -13 0 -100 62 -100 72 0 4 -5 8 -10 8 -13 0 -140 127 -140 140 0 5 -4 10 -8 10 -10 0 -72 86 -72 99 0 5 -3 11 -7 13 -10 4 -53 86 -53 100 0 5 -7 24 -15 41 -35 76 -80 328 -65 367 1 3 3 28 5 55 3 61 42 227 61 263 8 15 14 35 14 44 0 9 3 18 8 20 4 2 18 26 32 53 14 28 30 54 37 58 7 4 13 15 13 22 0 8 5 15 10 15 6 0 10 4 10 9 0 15 152 181 166 181 3 0 12 6 19 13 33 29 45 37 54 37 5 0 11 4 13 8 4 11 200 107 212 104 4 -2 14 3 22 9 8 7 17 9 21 6 3 -4 11 -2 18 3 7 5 25 11 41 13 17 2 35 7 42 11 7 4 15 5 20 2 4 -2 23 -1 42 3 34 7 159 5 230 -3z m150 -1 c0 -8 -7 -15 -15 -15 -8 0 -15 7 -15 15 0 8 7 15 15 15 8 0 15 -7 15 -15z m-570 -10 c0 -8 -7 -15 -15 -15 -16 0 -20 12 -8 23 11 12 23 8 23 -8z m610 -6 c0 -5 -7 -9 -15 -9 -15 0 -20 12 -9 23 8 8 24 -1 24 -14z m-652 -10 c-2 -6 -8 -10 -13 -10 -5 0 -11 4 -13 10 -2 6 4 11 13 11 9 0 15 -5 13 -11z m692 -5 c0 -9 -5 -14 -12 -12 -18 6 -21 28 -4 28 9 0 16 -7 16 -16z m-730 -15 c0 -5 -7 -9 -15 -9 -15 0 -20 12 -9 23 8 8 24 -1 24 -14z m770 0 c0 -5 -7 -9 -15 -9 -15 0 -20 12 -9 23 8 8 24 -1 24 -14z m-810 -20 c0 -5 -7 -9 -15 -9 -15 0 -20 12 -9 23 8 8 24 -1 24 -14z m850 6 c0 -8 -7 -15 -15 -15 -16 0 -20 12 -8 23 11 12 23 8 23 -8z m-890 -26 c0 -5 -7 -9 -15 -9 -15 0 -20 12 -9 23 8 8 24 -1 24 -14z m930 6 c0 -8 -7 -15 -15 -15 -16 0 -20 12 -8 23 11 12 23 8 23 -8z m-970 -26 c0 -5 -7 -9 -15 -9 -15 0 -20 12 -9 23 8 8 24 -1 24 -14z m1010 0 c0 -5 -7 -9 -15 -9 -15 0 -20 12 -9 23 8 8 24 -1 24 -14z m-1045 -18 c7 -12 -12 -24 -25 -16 -11 7 -4 25 10 25 5 0 11 -4 15 -9z m1083 -2 c-2 -6 -8 -10 -13 -10 -5 0 -11 4 -13 10 -2 6 4 11 13 11 9 0 15 -5 13 -11z m-1120 -27 c2 -7 -3 -12 -12 -12 -9 0 -16 7 -16 16 0 17 22 14 28 -4z m1157 9 c7 -12 -12 -24 -25 -16 -11 7 -4 25 10 25 5 0 11 -4 15 -9z m-1195 -36 c0 -8 -6 -15 -12 -15 -7 -1 -24 -14 -38 -30 -27 -33 -40 -38 -40 -15 0 8 7 15 15 15 8 0 15 7 15 15 0 8 6 15 14 15 8 0 16 7 20 15 3 8 10 15 16 15 5 0 10 -7 10 -15z m1230 1 c0 -7 10 -16 22 -20 19 -4 20 -8 10 -18 -11 -11 -16 -10 -26 5 -7 9 -18 17 -25 17 -6 0 -11 7 -11 15 0 8 7 15 15 15 8 0 15 -6 15 -14z m68 -58 c-6 -18 -28 -21 -28 -4 0 9 7 16 16 16 9 0 14 -5 12 -12z m-1393 -27 c7 -12 -12 -24 -25 -16 -11 7 -4 25 10 25 5 0 11 -4 15 -9z m1425 -5 c0 -8 7 -16 15 -20 8 -3 15 -10 15 -16 0 -5 -7 -10 -15 -10 -8 0 -15 7 -15 15 0 8 -7 15 -15 15 -8 0 -15 7 -15 15 0 8 7 15 15 15 8 0 15 -6 15 -14z m-1455 -25 c7 -12 -12 -24 -25 -16 -11 7 -4 25 10 25 5 0 11 -4 15 -9z m-37 -55 c-10 -7 -18 -18 -18 -25 0 -6 -7 -11 -15 -11 -8 0 -15 7 -15 15 0 8 6 15 14 15 7 0 16 10 20 22 4 19 8 20 18 10 11 -11 10 -16 -4 -26z m1550 13 c-2 -6 -8 -10 -13 -10 -5 0 -11 4 -13 10 -2 6 4 11 13 11 9 0 15 -5 13 -11z m22 -34 c0 -8 -4 -15 -9 -15 -13 0 -22 16 -14 24 11 11 23 6 23 -9z m-1620 -40 c0 -8 -4 -15 -9 -15 -13 0 -22 16 -14 24 11 11 23 6 23 -9z m1648 4 c-2 -6 -8 -10 -13 -10 -5 0 -11 4 -13 10 -2 6 4 11 13 11 9 0 15 -5 13 -11z m-1673 -49 c-5 -8 -11 -8 -17 -2 -6 6 -7 16 -3 22 5 8 11 8 17 2 6 -6 7 -16 3 -22z m1690 0 c-5 -8 -11 -8 -17 -2 -6 6 -7 16 -3 22 5 8 11 8 17 2 6 -6 7 -16 3 -22z m-1705 -31 c0 -5 -7 -9 -15 -9 -15 0 -20 12 -9 23 8 8 24 -1 24 -14z m1730 6 c0 -8 -4 -15 -9 -15 -13 0 -22 16 -14 24 11 11 23 6 23 -9z m-1752 -43 c2 -7 -3 -12 -12 -12 -9 0 -16 7 -16 16 0 17 22 14 28 -4z m1772 3 c0 -8 -4 -15 -9 -15 -13 0 -22 16 -14 24 11 11 23 6 23 -9z m-1802 -68 c-7 -15 -19 -27 -25 -27 -18 0 -16 19 2 26 8 4 12 10 9 15 -8 13 7 32 17 22 5 -5 4 -20 -3 -36z m1822 28 c0 -8 -7 -15 -15 -15 -16 0 -20 12 -8 23 11 12 23 8 23 -8z m15 -55 c-5 -8 -11 -8 -17 -2 -6 6 -7 16 -3 22 5 8 11 8 17 2 6 -6 7 -16 3 -22z m-1860 -40 c-5 -8 -11 -8 -17 -2 -6 6 -7 16 -3 22 5 8 11 8 17 2 6 -6 7 -16 3 -22z m1875 4 c0 -9 -5 -14 -12 -12 -18 6 -21 28 -4 28 9 0 16 -7 16 -16z m-1888 -39 c0 -5 -5 -11 -11 -13 -6 -2 -11 4 -11 13 0 9 5 15 11 13 6 -2 11 -8 11 -13z m1906 3 c-6 -18 -28 -21 -28 -4 0 9 7 16 16 16 9 0 14 -5 12 -12z m-1913 -37 c7 -12 -12 -24 -25 -16 -11 7 -4 25 10 25 5 0 11 -4 15 -9z m1923 -9 c2 -7 -3 -12 -12 -12 -9 0 -16 7 -16 16 0 17 22 14 28 -4z m-1933 -52 c-5 -8 -11 -8 -17 -2 -6 6 -7 16 -3 22 5 8 11 8 17 2 6 -6 7 -16 3 -22z m1940 0 c-5 -8 -11 -8 -17 -2 -6 6 -7 16 -3 22 5 8 11 8 17 2 6 -6 7 -16 3 -22z m-1947 -32 c-6 -18 -28 -21 -28 -4 0 9 7 16 16 16 9 0 14 -5 12 -12z m1952 -3 c0 -8 -4 -15 -9 -15 -13 0 -22 16 -14 24 11 11 23 6 23 -9z m-1960 -40 c0 -8 -7 -15 -15 -15 -16 0 -20 12 -8 23 11 12 23 8 23 -8z m1970 -6 c0 -5 -7 -9 -15 -9 -15 0 -20 12 -9 23 8 8 24 -1 24 -14z m-1972 -40 c-2 -6 -8 -10 -13 -10 -5 0 -11 4 -13 10 -2 6 4 11 13 11 9 0 15 -5 13 -11z m1972 -5 c0 -9 -5 -14 -12 -12 -18 6 -21 28 -4 28 9 0 16 -7 16 -16z m-1972 -42 c2 -7 -3 -12 -12 -12 -9 0 -16 7 -16 16 0 17 22 14 28 -4z m1972 3 c0 -8 -4 -15 -9 -15 -13 0 -22 16 -14 24 11 11 23 6 23 -9z m-5 -55 c-5 -8 -11 -8 -17 -2 -6 6 -7 16 -3 22 5 8 11 8 17 2 6 -6 7 -16 3 -22z m-1967 9 c-2 -6 -8 -10 -13 -10 -5 0 -11 4 -13 10 -2 6 4 11 13 11 9 0 15 -5 13 -11z m2 -44 c0 -8 -4 -15 -9 -15 -13 0 -22 16 -14 24 11 11 23 6 23 -9z m1970 0 c0 -8 -7 -15 -15 -15 -8 0 -15 7 -15 15 0 8 7 15 15 15 8 0 15 -7 15 -15z m-1965 -55 c-5 -8 -11 -8 -17 -2 -6 6 -7 16 -3 22 5 8 11 8 17 2 6 -6 7 -16 3 -22z m1955 15 c0 -8 -7 -15 -15 -15 -16 0 -20 12 -8 23 11 12 23 8 23 -8z m-1948 -50 c0 -5 -5 -11 -11 -13 -6 -2 -11 4 -11 13 0 9 5 15 11 13 6 -2 11 -8 11 -13z m1940 0 c0 -5 -5 -11 -11 -13 -6 -2 -11 4 -11 13 0 9 5 15 11 13 6 -2 11 -8 11 -13z m-1927 -34 c7 -12 -12 -24 -25 -16 -11 7 -4 25 10 25 5 0 11 -4 15 -9z m1923 -9 c2 -7 -3 -12 -12 -12 -9 0 -16 7 -16 16 0 17 22 14 28 -4z m-1915 -55 c-3 -5 -10 -4 -15 1 -6 6 -7 16 -3 22 6 9 9 9 16 -1 4 -7 5 -17 2 -22z m1902 3 c-5 -8 -11 -8 -17 -2 -6 6 -7 16 -3 22 5 8 11 8 17 2 6 -6 7 -16 3 -22z m-1887 -32 c-6 -18 -28 -21 -28 -4 0 9 7 16 16 16 9 0 14 -5 12 -12z m1872 -3 c0 -8 -4 -15 -9 -15 -13 0 -22 16 -14 24 11 11 23 6 23 -9z m-1860 -40 c0 -8 -4 -15 -9 -15 -13 0 -22 16 -14 24 11 11 23 6 23 -9z m1848 3 c-6 -18 -28 -21 -28 -4 0 9 7 16 16 16 9 0 14 -5 12 -12z m-1828 -43 c0 -8 -7 -15 -15 -15 -8 0 -15 7 -15 15 0 8 7 15 15 15 8 0 15 -7 15 -15z m1810 0 c0 -8 -4 -15 -9 -15 -13 0 -22 16 -14 24 11 11 23 6 23 -9z m-1792 -43 c2 -7 -3 -12 -12 -12 -9 0 -16 7 -16 16 0 17 22 14 28 -4z m1772 3 c0 -8 -4 -15 -9 -15 -13 0 -22 16 -14 24 11 11 23 6 23 -9z m-1750 -40 c0 -8 -7 -15 -15 -15 -8 0 -15 7 -15 15 0 8 7 15 15 15 8 0 15 -7 15 -15z m1735 6 c7 -12 -12 -24 -25 -16 -11 7 -4 25 10 25 5 0 11 -4 15 -9z m-1715 -47 c0 -17 -22 -14 -28 4 -2 7 3 12 12 12 9 0 16 -7 16 -16z m1690 0 c0 -9 -5 -14 -12 -12 -18 6 -21 28 -4 28 9 0 16 -7 16 -16z m-25 -44 c-5 -8 -11 -8 -17 -2 -6 6 -7 16 -3 22 5 8 11 8 17 2 6 -6 7 -16 3 -22z m-1645 6 c0 -8 7 -16 15 -20 8 -3 15 -10 15 -16 0 -5 -7 -10 -15 -10 -8 0 -15 6 -15 14 0 8 -7 16 -15 20 -8 3 -15 10 -15 16 0 5 7 10 15 10 8 0 15 -6 15 -14z m1620 -31 c0 -8 -7 -15 -15 -15 -16 0 -20 12 -8 23 11 12 23 8 23 -8z m-1568 -40 c0 -5 -5 -11 -11 -13 -6 -2 -11 4 -11 13 0 9 5 15 11 13 6 -2 11 -8 11 -13z m1546 3 c-6 -18 -28 -21 -28 -4 0 9 7 16 16 16 9 0 14 -5 12 -12z m-1513 -27 c7 -12 -12 -24 -25 -16 -11 7 -4 25 10 25 5 0 11 -4 15 -9z m1483 -9 c2 -7 -3 -12 -12 -12 -9 0 -16 7 -16 16 0 17 22 14 28 -4z m-1458 -27 c0 -8 -4 -15 -9 -15 -13 0 -22 16 -14 24 11 11 23 6 23 -9z m1430 -6 c0 -5 -7 -9 -15 -9 -15 0 -20 12 -9 23 8 8 24 -1 24 -14z m-35 -39 c-5 -8 -11 -8 -17 -2 -6 6 -7 16 -3 22 5 8 11 8 17 2 6 -6 7 -16 3 -22z m-1357 9 c-2 -6 -8 -10 -13 -10 -5 0 -11 4 -13 10 -2 6 4 11 13 11 9 0 15 -5 13 -11z m27 -39 c-5 -8 -11 -8 -17 -2 -6 6 -7 16 -3 22 5 8 11 8 17 2 6 -6 7 -16 3 -22z m1295 12 c0 -13 -12 -22 -22 -16 -10 6 -1 24 13 24 5 0 9 -4 9 -8z m-1260 -33 c0 -5 -7 -9 -15 -9 -15 0 -20 12 -9 23 8 8 24 -1 24 -14z m1230 0 c0 -5 -7 -9 -15 -9 -15 0 -20 12 -9 23 8 8 24 -1 24 -14z m-1194 -22 c3 -8 20 -20 39 -27 19 -8 35 -20 35 -27 0 -18 -19 -17 -26 1 -3 8 -12 12 -20 9 -7 -3 -17 2 -20 11 -3 9 -12 16 -20 16 -8 0 -14 7 -14 15 0 19 19 20 26 2z m1159 4 c7 -12 -12 -24 -25 -16 -11 7 -4 25 10 25 5 0 11 -4 15 -9z m-37 -32 c-2 -6 -8 -10 -13 -10 -5 0 -11 4 -13 10 -2 6 4 11 13 11 9 0 15 -5 13 -11z m-38 -24 c0 -8 -7 -15 -15 -15 -8 0 -15 7 -15 15 0 8 7 15 15 15 8 0 15 -7 15 -15z m-972 -23 c2 -7 -3 -12 -12 -12 -9 0 -16 7 -16 16 0 17 22 14 28 -4z m932 3 c0 -8 -7 -15 -15 -15 -16 0 -20 12 -8 23 11 12 23 8 23 -8z m-892 -23 c2 -7 -3 -12 -12 -12 -9 0 -16 7 -16 16 0 17 22 14 28 -4z m852 3 c0 -8 -4 -15 -9 -15 -13 0 -22 16 -14 24 11 11 23 6 23 -9z m-810 -20 c0 -8 -7 -15 -15 -15 -8 0 -15 7 -15 15 0 8 7 15 15 15 8 0 15 -7 15 -15z m770 0 c0 -8 -4 -15 -9 -15 -13 0 -22 16 -14 24 11 11 23 6 23 -9z m-732 -16 c-2 -6 -8 -10 -13 -10 -5 0 -11 4 -13 10 -2 6 4 11 13 11 9 0 15 -5 13 -11z m690 0 c-2 -6 -8 -10 -13 -10 -5 0 -11 4 -13 10 -2 6 4 11 13 11 9 0 15 -5 13 -11z m-648 -14 c0 -8 -7 -15 -15 -15 -16 0 -20 12 -8 23 11 12 23 8 23 -8z m610 0 c0 -8 -7 -15 -15 -15 -8 0 -15 7 -15 15 0 8 7 15 15 15 8 0 15 -7 15 -15z m-565 -4 c7 -12 -12 -24 -25 -16 -11 7 -4 25 10 25 5 0 11 -4 15 -9z m525 -12 c0 -5 -7 -9 -15 -9 -15 0 -20 12 -9 23 8 8 24 -1 24 -14z m-480 -10 c0 -5 -7 -9 -15 -9 -15 0 -20 12 -9 23 8 8 24 -1 24 -14z m432 -1 c-6 -6 -16 -7 -22 -3 -9 6 -9 9 1 16 17 10 34 0 21 -13z m-392 -3 c0 -8 -7 -15 -15 -15 -16 0 -20 12 -8 23 11 12 23 8 23 -8z m350 0 c0 -8 -7 -15 -15 -15 -16 0 -20 12 -8 23 11 12 23 8 23 -8z m-305 -4 c7 -12 -12 -24 -25 -16 -11 7 -4 25 10 25 5 0 11 -4 15 -9z m40 -21 c-5 -8 -11 -8 -17 -2 -6 6 -7 16 -3 22 5 8 11 8 17 2 6 -6 7 -16 3 -22z m175 15 c10 -12 10 -15 -4 -15 -9 0 -16 7 -16 15 0 8 2 15 4 15 2 0 9 -7 16 -15z m48 3 c-6 -18 -28 -21 -28 -4 0 9 7 16 16 16 9 0 14 -5 12 -12z m-178 -14 c0 -17 -22 -14 -28 4 -2 7 3 12 12 12 9 0 16 -7 16 -16z m42 1 c0 -5 -5 -11 -11 -13 -6 -2 -11 4 -11 13 0 9 5 15 11 13 6 -2 11 -8 11 -13z m48 -1 c0 -17 -22 -14 -28 4 -2 7 3 12 12 12 9 0 16 -7 16 -16z"/> <path d="M1500 2400 c0 -6 -8 -10 -17 -8 -11 2 -17 -2 -15 -11 1 -7 -5 -19 -14 -26 -16 -11 -16 -12 1 -18 11 -5 15 -13 11 -23 -5 -13 -2 -15 14 -11 13 3 20 0 20 -9 0 -19 16 -18 24 1 3 9 12 12 22 8 13 -5 16 -3 11 10 -4 10 0 20 11 26 16 9 16 10 1 16 -11 4 -15 14 -12 26 4 14 1 18 -10 13 -8 -3 -18 -1 -22 5 -8 14 -25 14 -25 1z m33 -42 c-2 -5 4 -8 14 -9 14 0 14 -2 -4 -9 -13 -5 -23 -14 -23 -19 0 -5 -9 -7 -20 -4 -11 3 -17 9 -14 14 3 5 -1 9 -8 9 -10 0 -10 2 1 9 7 5 11 14 7 20 -5 7 -1 9 8 5 9 -3 16 -1 16 5 0 8 4 8 14 -1 8 -7 12 -16 9 -20z"/> <path d="M1150 2323 c0 -7 -7 -13 -16 -13 -14 0 -15 -2 -3 -17 11 -13 11 -17 2 -20 -17 -6 -16 -23 1 -23 8 0 17 -7 20 -16 5 -13 9 -14 20 -5 10 8 16 9 21 1 3 -6 11 -8 16 -4 5 3 7 10 4 15 -4 5 3 9 14 9 12 0 21 5 21 11 0 6 -10 8 -22 5 -13 -3 -17 -3 -10 0 14 7 16 24 3 24 -5 0 -12 -8 -15 -18 -6 -19 -36 -27 -36 -10 0 5 -4 7 -8 4 -13 -8 -9 30 5 43 10 9 13 9 13 -1 0 -9 3 -9 10 2 5 8 10 10 10 4 0 -15 38 -25 46 -13 3 5 -2 9 -10 9 -9 0 -16 6 -16 13 0 8 -13 13 -35 13 -22 0 -35 -5 -35 -13z"/> <path d="M1810 2323 c0 -7 -10 -13 -21 -13 -17 0 -19 -3 -10 -14 6 -7 9 -21 5 -30 -4 -11 -1 -16 10 -16 9 0 16 -7 16 -16 0 -8 4 -13 9 -10 5 3 7 15 4 26 -3 11 -9 18 -13 15 -11 -7 -7 28 4 40 10 12 47 15 40 4 -2 -4 5 -9 16 -12 11 -3 23 -1 26 4 3 5 -2 9 -10 9 -9 0 -16 6 -16 13 0 8 -12 14 -30 14 -18 0 -30 -6 -30 -14z"/> <path d="M1871 2273 c12 -15 12 -16 -5 -10 -14 6 -17 4 -12 -9 5 -14 4 -15 -9 -4 -18 15 -20 -1 -3 -18 16 -16 28 -15 28 3 0 8 7 15 15 15 18 0 19 12 3 28 -18 18 -32 14 -17 -5z"/> <path d="M1133 2190 c-17 -10 -37 -28 -42 -39 -13 -24 -14 -100 -2 -120 5 -8 8 7 7 43 -1 48 3 59 27 83 22 22 37 28 73 28 60 0 94 -35 94 -98 0 -31 3 -38 10 -27 14 22 12 47 -6 86 -29 62 -101 81 -161 44z"/> <path d="M1800 2189 c-30 -19 -48 -21 -157 -20 l-123 2 0 -675 0 -676 330 0 330 0 0 675 0 675 -107 -2 -108 -2 104 -3 104 -4 -7 -357 c-3 -196 -7 -490 -8 -654 l-3 -296 -110 -6 c-60 -3 -201 -7 -313 -9 l-202 -2 0 657 1 657 114 3 114 3 -6 -45 c-3 -32 0 -51 11 -65 15 -19 15 -18 10 13 -5 23 -3 32 7 32 11 0 13 -13 11 -50 -2 -28 -1 -63 3 -78 7 -26 7 -26 16 -5 9 24 7 58 -6 87 -6 15 -2 25 21 44 21 17 23 22 9 18 -16 -6 -17 -5 -8 5 10 10 18 7 39 -14 21 -21 23 -27 10 -27 -9 0 -16 -7 -16 -15 0 -18 17 -20 23 -2 7 20 19 0 12 -22 -3 -11 -18 -22 -35 -26 -17 -4 -30 -11 -30 -16 0 -14 23 -11 48 7 31 21 28 2 -5 -31 -18 -18 -22 -26 -11 -22 14 5 16 1 13 -24 -3 -24 0 -29 19 -29 33 0 46 19 46 68 0 29 7 53 20 69 39 49 18 138 -40 168 -40 21 -79 19 -120 -6z m60 -29 c0 -21 -5 -30 -17 -30 -9 0 -24 -7 -32 -14 -10 -9 -22 -12 -30 -7 -11 7 -11 13 3 32 15 22 52 48 69 49 4 0 7 -13 7 -30z m61 10 c16 -9 49 -58 49 -75 0 -12 -23 -3 -56 23 -49 39 -45 79 7 52z m-16 -65 c27 -26 31 -46 15 -76 -6 -10 -7 -19 -3 -19 4 0 8 -18 8 -40 0 -34 -2 -38 -12 -24 -13 17 -11 67 2 98 7 15 1 25 -23 46 -18 15 -32 30 -32 33 0 15 22 6 45 -18z m59 -33 c2 -4 -2 -18 -10 -32 l-13 -25 -1 33 c0 29 12 43 24 24z m-55 -144 c12 -16 11 -18 -7 -18 -15 0 -19 5 -15 20 3 12 6 19 7 18 1 -2 8 -11 15 -20z"/> <path d="M838 1503 c-3 -368 -3 -671 -1 -675 2 -5 152 -8 334 -8 l329 0 2 530 c2 292 3 594 3 673 l0 142 -102 3 c-73 2 -103 -1 -103 -9 0 -8 28 -10 95 -8 l95 4 0 -654 c0 -360 -1 -655 -3 -657 -1 -1 -145 -4 -319 -6 l-318 -5 0 226 c0 124 3 418 7 654 l6 427 41 0 c73 0 176 13 176 21 0 5 -53 9 -119 9 l-118 0 -5 -667z"/> <path d="M1173 2140 c-31 -13 -50 -46 -62 -110 -6 -30 -14 -66 -17 -79 -5 -15 -3 -22 3 -18 6 4 16 28 22 54 7 27 16 64 21 84 6 21 19 41 34 49 26 13 76 7 76 -11 0 -6 -5 -7 -10 -4 -15 9 -76 -13 -78 -28 -1 -23 -20 -122 -27 -142 -7 -20 -6 -20 9 -1 9 11 19 41 22 68 5 36 10 46 19 38 6 -5 15 -7 18 -3 13 13 7 23 -15 23 -22 1 -23 1 -4 15 26 20 62 19 70 -1 10 -25 7 -32 -10 -30 -9 0 -19 -5 -21 -12 -3 -8 1 -10 12 -5 14 5 16 2 10 -18 -11 -36 -26 -51 -47 -46 -10 3 -18 1 -18 -4 0 -5 7 -9 15 -9 8 0 15 -7 15 -15 0 -7 8 -19 18 -25 13 -8 -4 -10 -70 -5 -83 6 -88 5 -101 -17 -21 -33 -32 -88 -17 -88 9 0 10 -15 5 -52 -15 -111 -43 -229 -60 -255 -10 -15 -20 -43 -22 -63 -2 -19 -15 -46 -28 -60 -92 -97 -92 -324 1 -411 26 -24 31 -39 12 -39 -15 0 -78 -49 -78 -61 0 -6 15 1 33 14 56 42 71 47 111 36 43 -12 65 -3 40 15 -12 9 -14 15 -6 20 7 4 13 24 14 44 1 32 2 31 7 -13 6 -50 6 -50 21 -25 12 20 16 81 20 305 3 154 7 235 9 180 l4 -100 9 135 c5 74 6 154 3 178 l-5 44 30 -25 c36 -31 61 -26 95 17 l25 31 -6 -75 c-4 -53 1 -117 16 -220 23 -149 30 -332 16 -444 l-8 -59 -66 7 c-37 3 -78 9 -92 12 -14 3 -33 -1 -45 -9 -17 -13 -18 -18 -7 -41 16 -35 41 -33 55 4 7 20 17 28 27 25 8 -2 28 -7 43 -11 16 -4 39 -17 52 -30 27 -26 65 -32 65 -10 0 8 -6 21 -14 28 -11 12 -11 17 5 36 10 13 21 42 24 66 8 49 -8 254 -30 394 -12 72 -13 113 -5 185 6 57 7 103 1 122 -7 24 -10 9 -12 -70 l-3 -100 -5 100 c-6 92 -5 101 14 117 20 17 20 16 23 -30 2 -26 7 -51 13 -56 5 -6 9 -15 9 -20 0 -6 -5 -4 -11 4 -8 11 -9 9 -3 -10 10 -40 26 -60 19 -25 -4 16 -3 27 1 23 4 -4 13 -3 21 3 9 8 13 8 13 1 0 -6 -4 -14 -10 -17 -5 -3 -10 -12 -10 -18 0 -7 10 0 21 16 12 15 31 32 42 39 17 8 14 2 -11 -27 -19 -20 -39 -48 -45 -62 -11 -24 -11 -24 -34 19 l-24 43 7 -45 c3 -25 6 -65 5 -89 -1 -24 2 -49 7 -55 4 -6 9 -36 11 -66 4 -68 21 -92 21 -29 0 25 7 54 15 65 17 23 19 48 4 72 -9 14 -4 28 26 71 20 30 34 60 31 67 -3 7 -1 16 5 20 6 3 8 11 6 17 -2 7 0 21 6 31 7 14 -2 10 -29 -12 -54 -45 -57 -29 -4 18 25 22 41 39 36 40 -6 0 -22 -12 -38 -27 -15 -14 -31 -23 -35 -19 -7 7 0 15 51 51 10 8 20 28 22 45 l4 31 -45 -37 c-25 -20 -45 -41 -45 -47 0 -6 10 -2 23 9 12 11 31 26 41 34 35 26 6 -13 -37 -50 -47 -40 -59 -32 -63 42 l-2 53 22 -26 23 -26 41 36 c23 20 42 40 42 45 0 6 -13 -3 -30 -19 -16 -16 -33 -25 -37 -21 -4 3 9 20 29 36 30 25 36 36 33 63 -4 48 -16 88 -38 124 l-19 33 -17 -23 c-29 -40 -42 -68 -36 -77 4 -6 2 -10 -3 -10 -5 0 -8 -16 -7 -35 0 -19 -2 -35 -5 -35 -3 0 -6 -12 -6 -28 -1 -15 1 -21 3 -14 4 10 8 10 19 1 17 -14 19 -33 2 -22 -25 15 -40 12 -35 -7 3 -11 -1 -27 -9 -37 -7 -10 -14 -14 -14 -10 0 5 -15 -10 -32 -34 -61 -78 -76 -78 -140 6 -20 27 -48 55 -62 62 -21 11 -24 17 -16 31 6 9 15 30 20 46 9 23 14 27 33 21 54 -16 114 -17 144 -2 17 9 33 14 35 11 3 -2 11 2 17 10 9 11 9 22 -2 48 -8 18 -17 58 -21 88 -8 63 -12 73 -43 89 -25 13 -30 13 -60 1z m226 -182 c-11 -21 -11 -22 4 -9 10 7 17 19 17 27 0 7 5 16 11 20 15 9 1 -36 -17 -55 -11 -12 -16 -12 -28 -1 -20 16 -20 1 -1 -23 7 -11 11 -26 8 -35 -4 -12 2 -10 20 7 28 25 29 44 2 21 -24 -20 -17 4 8 28 l24 22 0 -30 c0 -21 -9 -38 -27 -53 -14 -12 -30 -29 -35 -37 -4 -8 2 -6 16 5 13 12 33 27 43 35 32 24 9 -8 -31 -43 -23 -20 -30 -33 -23 -37 8 -5 9 -10 2 -14 -13 -8 -25 10 -17 24 4 6 0 22 -9 35 -19 29 -21 47 -2 22 12 -16 14 -15 12 12 -1 16 -5 33 -10 38 -5 5 -6 0 -2 -12 5 -14 4 -17 -4 -9 -7 7 -7 20 1 43 9 25 14 30 21 19 7 -9 8 -4 4 14 -4 16 -1 37 6 48 12 20 13 19 16 -9 2 -17 -2 -40 -9 -53z m-109 -30 c0 -11 -58 -10 -64 1 -4 5 4 25 16 43 l23 34 12 -35 c7 -20 13 -39 13 -43z m-202 -160 c13 -16 -8 -133 -37 -207 -12 -28 -21 -66 -21 -84 0 -22 -3 -28 -9 -18 -10 15 -31 7 -31 -12 0 -8 3 -8 9 1 7 11 9 11 14 -2 4 -9 2 -16 -4 -16 -6 0 -9 -6 -6 -12 2 -7 -3 -19 -12 -26 -14 -11 -14 -11 2 -6 22 8 23 -19 0 -37 -15 -12 -16 -12 -11 3 9 21 -2 31 -19 17 -15 -13 -18 -33 -4 -24 20 11 20 -13 1 -51 -11 -21 -20 -46 -20 -56 0 -10 -5 -18 -11 -18 -15 0 -2 70 17 92 11 11 12 18 4 23 -18 11 -43 -65 -48 -143 -4 -77 9 -151 35 -191 15 -23 17 -23 29 -7 12 17 13 17 23 -3 8 -14 8 -22 1 -26 -12 -8 6 -35 22 -35 6 0 5 7 -2 15 -16 19 -7 30 14 18 14 -8 14 -12 3 -27 -17 -23 -41 -12 -85 39 -89 100 -79 299 19 403 23 25 29 39 25 57 -4 15 1 36 13 57 19 33 61 213 61 262 0 28 11 33 28 14z m37 -130 c2 -56 1 -68 -4 -38 -6 44 -7 42 -15 -35 -5 -44 -12 -197 -15 -340 -5 -216 -8 -248 -15 -190 -11 84 -1 360 19 542 8 73 12 140 8 150 -5 14 -3 16 7 6 8 -7 13 -43 15 -95z m248 34 c2 7 8 10 13 5 4 -4 1 -14 -7 -23 -14 -13 -17 -12 -27 13 -11 25 -11 26 2 10 10 -13 15 -15 19 -5z m35 -109 c-45 -63 -51 -81 -33 -100 8 -8 12 -20 8 -26 -4 -7 -9 -4 -14 9 -5 11 -8 13 -8 5 -1 -8 -4 -11 -8 -7 -5 4 -8 33 -8 64 -1 31 1 49 3 40 5 -27 15 -22 51 28 18 25 35 44 38 41 3 -4 -10 -28 -29 -54z m-332 -45 c-8 -75 -13 -88 -28 -88 -15 0 -17 3 -8 19 5 11 10 30 10 44 0 22 30 122 34 115 2 -2 -2 -42 -8 -90z m-21 -111 c-12 -10 -14 -16 -7 -21 7 -4 11 -30 10 -64 -2 -57 -2 -57 -5 -9 -2 26 -8 47 -14 47 -13 0 -11 -37 5 -100 8 -30 12 -57 10 -59 -6 -6 -7 -4 -36 66 -25 59 -25 63 -8 78 10 9 15 25 13 39 -4 17 0 25 14 29 33 9 37 7 18 -6z m310 3 c3 -5 1 -10 -4 -10 -6 0 -11 5 -11 10 0 6 2 10 4 10 3 0 8 -4 11 -10z m-351 -172 c32 -56 23 -61 -23 -14 -25 26 -31 39 -26 56 8 25 12 22 49 -42z m-16 -56 c2 -8 -8 -12 -28 -12 -25 0 -31 3 -26 16 3 9 6 20 6 26 0 13 42 -14 48 -30z m-55 -114 c1 -10 4 -18 8 -18 11 0 20 -31 13 -42 -10 -16 -45 63 -38 84 3 10 1 18 -4 18 -10 0 -13 79 -3 95 5 8 15 -50 24 -137z m112 44 c-4 -4 -13 1 -20 12 -13 17 -15 17 -49 -9 l-36 -27 0 32 c0 30 2 32 30 28 17 -3 34 0 37 5 3 5 12 -1 19 -14 13 -23 13 -23 15 16 l2 40 4 -39 c3 -21 1 -41 -2 -44z m-53 -53 c-18 -43 -19 -43 -31 -20 -11 20 -10 26 15 53 35 36 40 25 16 -33z m44 -21 c-4 -35 -10 -65 -12 -67 -2 -3 -12 2 -20 11 -14 14 -14 20 2 67 10 28 23 51 28 51 5 0 6 -27 2 -62z m281 -30 c-2 -18 -4 -6 -4 27 0 33 2 48 4 33 2 -15 2 -42 0 -60z m-187 -96 c0 -5 -7 -17 -16 -28 -8 -10 -13 -14 -10 -7 4 6 2 14 -4 18 -17 10 -11 25 10 25 11 0 20 -4 20 -8z m165 -21 c10 -18 -17 -23 -33 -7 -15 15 -15 16 5 16 12 0 24 -4 28 -9z"/> <path d="M960 970 c0 -5 5 -10 11 -10 5 0 7 5 4 10 -3 6 -8 10 -11 10 -2 0 -4 -4 -4 -10z"/> <path d="M2074 2085 c-3 -14 -3 -36 0 -50 5 -21 3 -25 -14 -25 -34 0 -43 -43 -31 -141 13 -101 14 -214 2 -184 -5 11 -12 59 -16 107 -6 78 -10 90 -32 108 -34 27 -41 19 -10 -12 20 -20 25 -38 31 -103 6 -75 19 -148 36 -205 4 -14 7 71 6 188 -2 232 -2 232 56 232 l23 0 -6 -132 c-7 -147 -12 -174 -42 -233 -14 -28 -20 -58 -19 -103 1 -38 -3 -60 -8 -57 -6 3 -10 17 -10 31 0 14 -11 46 -24 73 -24 46 -59 208 -49 224 2 4 0 7 -6 7 -5 0 -13 -4 -16 -10 -3 -5 -21 -10 -38 -11 -27 0 -29 -2 -12 -9 11 -4 31 -6 45 -2 21 4 23 3 13 -10 -7 -8 -9 -19 -5 -23 4 -5 -2 -5 -12 -1 -15 5 -17 4 -7 -7 7 -9 9 -31 5 -59 -4 -29 -2 -48 5 -52 16 -11 13 -48 -7 -73 -9 -11 -35 -33 -57 -48 -35 -24 -37 -27 -12 -21 31 7 32 4 13 -27 -14 -23 -14 -84 -1 -199 5 -42 4 -78 -3 -97 -8 -23 -8 -47 0 -85 7 -35 7 -68 1 -93 -8 -34 -6 -42 21 -76 40 -51 94 -51 60 1 -20 30 -17 33 29 25 27 -4 37 -11 37 -24 0 -11 4 -19 9 -19 10 0 16 66 32 335 8 138 16 207 26 222 11 16 12 27 4 42 -18 34 -12 111 13 176 22 52 26 81 29 203 3 140 3 142 -18 142 -20 0 -22 4 -17 50 5 53 -12 71 -24 25z m-78 -506 c15 -29 15 -43 -2 -159 -3 -26 -2 -31 5 -20 8 11 11 5 11 -27 0 -75 15 -46 17 35 2 53 0 72 -7 62 -8 -12 -10 -12 -9 5 0 11 4 29 9 40 8 19 9 19 9 1 1 -11 6 -33 12 -50 8 -23 7 -93 -4 -275 -9 -134 -17 -245 -19 -246 -6 -7 -98 19 -98 27 0 5 7 41 16 79 9 39 14 84 12 101 -3 17 1 55 8 86 12 52 27 177 27 232 0 50 -13 134 -23 144 -12 12 -14 79 -2 90 4 4 10 -15 14 -44 5 -28 15 -64 24 -81z m-26 -18 c0 -12 -62 -71 -74 -71 -8 0 63 79 72 80 1 0 2 -4 2 -9z m-7 -128 c-3 -49 -12 -122 -20 -163 -8 -41 -14 -91 -13 -110 0 -19 -5 -72 -11 -117 -11 -76 -11 -83 9 -117 26 -45 11 -57 -19 -15 -19 27 -22 46 -25 143 -1 61 1 113 5 116 5 3 10 41 13 85 5 72 4 77 -7 50 -13 -29 -13 -27 -17 45 -2 41 0 84 6 95 9 20 65 74 78 75 4 0 4 -39 1 -87z m114 25 c-3 -7 -5 -2 -5 12 0 14 2 19 5 13 2 -7 2 -19 0 -25z"/> <path d="M1914 1456 c-21 -19 -37 -36 -34 -39 3 -3 23 10 44 29 22 19 37 36 34 39 -2 3 -22 -10 -44 -29z"/> <path d="M1817 2064 c-3 -4 0 -13 8 -20 7 -8 15 -19 18 -26 2 -8 8 -9 13 -4 5 5 4 11 -3 13 -7 3 -13 13 -13 24 0 19 -11 25 -23 13z"/> <path d="M1188 1983 c6 -2 18 -2 25 0 6 3 1 5 -13 5 -14 0 -19 -2 -12 -5z"/> <path d="M1626 1973 c-3 -3 -6 -19 -6 -34 0 -15 -6 -29 -12 -32 -10 -3 -10 -11 1 -38 7 -19 17 -58 22 -88 5 -29 16 -65 23 -80 8 -17 11 -53 9 -103 -3 -70 -1 -78 17 -88 17 -9 19 -14 9 -26 -19 -23 -4 -26 16 -3 20 22 37 157 18 146 -21 -13 -11 135 13 196 3 10 1 17 -5 17 -6 0 -14 -18 -17 -40 -4 -22 -10 -40 -14 -40 -5 0 -15 19 -23 43 -13 34 -16 37 -16 16 -1 -14 5 -33 12 -43 14 -18 11 -76 -3 -76 -4 0 -13 30 -20 67 -6 37 -16 75 -22 86 -7 13 -7 17 0 13 6 -4 15 2 21 11 9 16 10 16 11 -5 0 -13 4 -20 10 -17 6 3 10 24 10 47 0 35 -2 39 -15 28 -13 -11 -15 -8 -15 13 0 26 -12 42 -24 30z m9 -82 c-3 -6 -11 -8 -17 -5 -6 4 -5 9 3 15 16 10 23 4 14 -10z m63 -221 c-3 -38 -1 -70 3 -70 5 0 9 -18 9 -40 0 -31 -4 -40 -17 -40 -13 0 -14 3 -5 12 16 16 15 39 -3 52 -14 10 -14 21 -3 84 6 39 14 72 16 72 3 0 2 -31 0 -70z m-8 -109 c0 -6 -4 -13 -10 -16 -5 -3 -10 1 -10 9 0 9 5 16 10 16 6 0 10 -4 10 -9z"/> <path d="M1823 1958 c5 -14 -2 -20 -33 -28 -40 -11 -60 -34 -60 -67 1 -11 6 -6 15 15 16 36 39 41 85 17 17 -9 30 -11 30 -6 0 5 -9 13 -20 16 -17 5 -18 10 -9 27 8 15 8 23 -2 32 -9 8 -11 7 -6 -6z"/> <path d="M2070 1951 c0 -11 -6 -22 -12 -24 -10 -4 -10 -6 0 -6 8 -1 12 -20 12 -61 0 -33 4 -60 10 -60 6 0 10 27 10 61 0 37 4 58 10 54 6 -3 10 -1 10 4 0 6 -4 11 -10 11 -5 0 -10 9 -10 20 0 11 -4 20 -10 20 -5 0 -10 -9 -10 -19z"/> <path d="M690 1865 c0 -8 -7 -15 -15 -15 -18 0 -19 -12 -3 -28 18 -18 32 -14 17 5 -12 15 -12 16 4 10 9 -3 17 -2 17 4 0 6 5 7 10 4 14 -9 13 8 -2 23 -16 16 -28 15 -28 -3z"/> <path d="M739 1875 c-9 -8 1 -46 10 -41 12 8 7 -31 -6 -43 -10 -9 -13 -9 -13 0 0 8 -5 7 -17 -2 -9 -8 -14 -9 -10 -3 4 7 -2 14 -13 17 -11 3 -23 1 -26 -4 -3 -5 2 -9 10 -9 9 0 16 -7 16 -16 0 -11 5 -14 16 -10 9 4 23 1 30 -5 11 -9 14 -7 14 11 0 15 5 20 14 17 10 -4 14 3 13 29 -1 20 -6 34 -13 34 -7 0 -14 7 -16 16 -2 9 -6 13 -9 9z"/> <path d="M1255 1850 c-41 -43 -78 -48 -124 -16 -53 37 -61 32 -15 -9 53 -46 83 -46 137 4 23 22 39 42 36 45 -3 3 -18 -7 -34 -24z"/> <path d="M1303 1848 c-18 -49 -80 -118 -107 -118 -14 0 -36 17 -60 46 -21 25 -40 43 -43 40 -3 -3 14 -28 37 -55 53 -62 84 -67 125 -20 34 41 67 106 63 126 -2 9 -8 1 -15 -19z"/> <path d="M2270 1865 c0 -8 -6 -15 -13 -15 -8 0 -14 -12 -14 -30 0 -18 6 -30 14 -30 7 0 13 -6 13 -13 0 -8 12 -14 30 -14 18 0 30 6 30 14 0 7 6 13 13 13 8 0 14 12 14 30 0 18 -6 30 -14 30 -7 0 -13 7 -13 15 0 8 -5 15 -11 15 -6 0 -8 -9 -4 -22 l7 -23 -17 23 c-19 25 -35 29 -35 7z m62 -29 c11 6 11 5 0 -8 -10 -13 -10 -17 0 -21 8 -3 6 -6 -5 -6 -10 -1 -16 -5 -13 -9 2 -4 -4 -8 -14 -8 -10 0 -16 4 -14 8 3 4 -3 8 -13 9 -11 0 -13 3 -5 6 10 4 10 8 1 19 -10 12 -9 13 5 8 13 -5 15 -2 9 12 -6 18 -6 19 15 1 12 -12 26 -16 34 -11z"/> <path d="M1758 1796 c2 -20 -4 -50 -17 -76 -25 -52 -25 -51 -6 -44 10 4 15 0 15 -13 0 -10 7 -29 16 -42 10 -14 13 -26 7 -32 -6 -6 -14 6 -22 32 -7 22 -15 39 -17 36 -7 -7 17 -87 26 -87 10 0 -14 -116 -40 -190 -21 -61 -22 -75 -16 -241 7 -180 4 -211 -19 -203 -7 3 -30 -3 -52 -14 -40 -21 -94 -72 -76 -72 6 0 16 7 24 16 15 18 109 68 109 57 0 -3 -7 -14 -16 -24 -19 -21 -12 -49 12 -49 17 0 84 65 84 81 0 4 20 11 45 15 25 3 45 10 45 15 0 5 -20 6 -45 2 l-45 -6 0 44 c0 23 5 69 12 100 9 44 9 64 0 83 -9 21 -8 33 4 64 30 69 59 127 66 130 4 2 -16 25 -43 51 -27 26 -49 56 -49 66 0 14 4 13 21 -9 11 -14 26 -26 32 -26 9 0 9 2 1 8 -11 7 -44 65 -44 77 0 4 12 -3 26 -14 28 -22 69 -28 79 -11 4 6 -7 10 -24 10 -18 0 -40 9 -51 20 -30 30 -24 43 9 19 32 -23 63 -21 107 8 36 23 29 36 -8 13 -78 -47 -122 -13 -125 95 -1 39 -5 81 -9 94 -6 20 -5 22 10 14 20 -11 88 -4 80 8 -3 5 -20 7 -38 4 -23 -5 -36 -2 -45 9 -21 25 -27 19 -23 -18z m15 -121 l6 -50 -15 33 c-8 19 -12 43 -8 54 8 26 10 21 17 -37z m41 -275 c18 -11 22 -20 16 -30 -9 -13 -10 -13 -10 0 -1 11 -68 -160 -70 -178 0 -2 5 0 12 4 8 5 9 -13 3 -72 -4 -43 -8 -104 -9 -135 -1 -46 -6 -61 -31 -90 -17 -19 -29 -33 -28 -30 2 2 -2 10 -8 18 -7 7 -7 13 -2 13 6 0 18 17 27 38 15 34 16 53 7 177 -10 128 -5 215 13 265 30 81 26 77 42 56 7 -11 25 -27 38 -36z"/> <path d="M1781 1374 c-20 -26 -36 -62 -29 -69 2 -2 15 19 31 46 30 54 29 63 -2 23z"/> <path d="M1723 1225 c0 -8 4 -15 9 -15 4 0 8 7 8 15 0 8 -4 15 -8 15 -5 0 -9 -7 -9 -15z"/> <path d="M1350 1771 c0 -5 5 -13 10 -16 6 -3 10 -2 10 4 0 5 -4 13 -10 16 -5 3 -10 2 -10 -4z"/> <path d="M1845 1751 c3 -5 1 -12 -5 -16 -13 -8 -13 -75 0 -75 6 0 10 19 10 43 l0 42 24 -30 c13 -16 28 -27 32 -22 8 8 -43 67 -58 67 -5 0 -7 -4 -3 -9z"/> <path d="M1802 1738 c-7 -7 -12 -19 -12 -27 0 -11 5 -8 16 7 18 25 15 39 -4 20z"/> <path d="M1350 1731 c0 -5 5 -13 10 -16 6 -3 10 -2 10 4 0 5 -4 13 -10 16 -5 3 -10 2 -10 -4z"/> <path d="M2070 1674 c-23 -53 -25 -66 -7 -39 16 23 38 85 31 85 -3 0 -14 -21 -24 -46z"/> <path d="M1835 1640 c-3 -5 -2 -10 4 -10 5 0 13 5 16 10 3 6 2 10 -4 10 -5 0 -13 -4 -16 -10z"/> <path d="M654 1544 c3 -9 6 -20 6 -25 0 -4 7 -5 17 -2 11 4 14 3 9 -5 -4 -7 -2 -12 6 -12 10 0 10 -2 -1 -9 -8 -5 -10 -14 -6 -21 6 -9 4 -11 -5 -5 -7 4 -16 2 -21 -6 -7 -11 -9 -11 -9 -1 0 8 -5 10 -12 6 -8 -5 -9 -2 -5 9 4 12 1 17 -11 18 -13 0 -11 3 6 9 28 12 29 35 1 37 -14 1 -19 -3 -15 -12 3 -8 -3 -19 -12 -24 -16 -9 -16 -10 -1 -16 11 -4 15 -13 11 -27 -4 -17 -2 -20 11 -15 10 4 20 0 26 -11 9 -16 10 -16 17 1 4 12 12 16 27 11 16 -5 19 -3 13 12 -4 10 -1 21 6 25 9 6 9 11 -1 23 -7 8 -9 21 -5 27 5 9 1 10 -14 7 -15 -4 -22 -2 -22 8 0 8 -5 14 -11 14 -6 0 -8 -7 -5 -16z"/> <path d="M2355 1548 c-4 -9 -13 -14 -21 -11 -9 3 -14 -2 -14 -15 0 -11 -6 -23 -12 -26 -10 -5 -10 -7 0 -12 6 -3 12 -15 12 -26 0 -14 5 -18 15 -14 9 3 18 -1 22 -11 6 -14 7 -14 19 2 7 9 17 14 23 10 7 -3 11 2 11 14 0 10 6 22 13 25 10 5 10 7 0 12 -7 3 -13 15 -13 26 0 11 -5 18 -12 15 -7 -2 -18 3 -25 12 -10 15 -12 14 -18 -1z m29 -32 c8 3 12 -6 11 -25 0 -16 -4 -27 -9 -24 -4 3 -12 -1 -17 -8 -6 -10 -9 -10 -9 -2 0 7 -6 10 -13 7 -9 -3 -13 2 -11 18 1 13 3 27 3 31 1 5 6 5 11 2 6 -3 11 2 11 12 1 16 2 16 6 1 2 -9 10 -15 17 -12z"/> <path d="M1208 1195 c3 -252 3 -255 24 -255 21 0 21 2 15 158 -6 160 -25 352 -36 352 -3 0 -5 -115 -3 -255z m19 -162 c-2 -38 -3 -7 -3 67 0 74 1 105 3 68 2 -38 2 -98 0 -135z"/> <path d="M690 1215 c0 -8 -7 -15 -15 -15 -17 0 -20 -16 -5 -25 8 -5 8 -11 0 -20 -8 -9 -8 -15 0 -20 5 -3 10 -3 11 2 0 4 5 -3 10 -16 7 -18 12 -21 23 -12 11 9 16 9 22 0 5 -9 10 -6 16 10 4 12 12 20 17 17 5 -3 9 10 9 29 0 23 -5 35 -14 35 -8 0 -14 7 -14 16 0 13 -3 14 -14 5 -10 -8 -16 -9 -21 -1 -9 15 -25 12 -25 -5z m56 -29 c6 -6 11 -14 12 -19 3 -10 -20 -34 -33 -34 -11 0 -35 22 -35 32 0 10 24 32 35 32 6 0 15 -5 21 -11z"/> <path d="M2270 1215 c0 -8 -7 -15 -15 -15 -18 0 -19 -12 -3 -28 14 -14 32 -16 24 -3 -9 14 22 21 46 11 14 -5 17 -9 8 -10 -13 0 -13 -1 0 -10 13 -8 12 -10 -3 -10 -10 0 -15 -4 -12 -10 3 -5 -10 -3 -29 5 -22 9 -37 11 -41 5 -3 -6 1 -10 9 -10 9 0 16 -9 16 -21 0 -11 4 -18 10 -14 5 3 6 13 3 22 -5 13 0 11 18 -5 20 -19 25 -21 27 -8 2 9 9 16 16 16 7 0 12 14 12 35 0 22 -5 35 -13 35 -7 0 -13 7 -13 15 0 8 -5 15 -11 15 -6 0 -8 -9 -4 -22 5 -18 4 -20 -4 -8 -10 13 -12 13 -22 0 -8 -12 -9 -10 -4 8 4 13 2 22 -4 22 -6 0 -11 -7 -11 -15z"/> <path d="M1340 929 c0 -5 12 -14 27 -20 16 -6 43 -22 62 -36 19 -15 32 -20 29 -12 -9 28 -118 91 -118 68z"/> <path d="M2051 921 c3 -7 24 -23 49 -38 43 -25 44 -25 25 -4 -23 27 -79 58 -74 42z"/> <path d="M1319 768 c-13 -5 -27 -14 -31 -21 -14 -22 -8 -64 10 -80 21 -19 87 -23 98 -6 5 9 -1 10 -21 5 -53 -13 -99 46 -63 82 17 17 55 15 66 -4 8 -14 10 -13 14 8 4 21 1 25 -22 25 -15 0 -37 -4 -51 -9z"/> <path d="M1443 770 c-43 -17 -55 -68 -23 -100 16 -16 33 -20 85 -20 50 0 63 3 59 13 -3 8 1 19 9 25 11 9 18 6 34 -17 17 -22 27 -27 51 -23 18 2 29 9 26 16 -2 6 1 18 6 26 8 13 14 10 37 -16 25 -27 32 -30 68 -24 22 4 34 8 28 9 -9 1 -13 18 -13 50 0 30 5 51 13 54 6 3 -3 6 -22 6 -25 1 -31 -2 -24 -11 5 -7 10 -30 12 -51 3 -47 -20 -60 -49 -26 -25 30 -25 44 0 69 19 19 19 20 1 20 -11 0 -21 -9 -25 -22 -5 -19 -8 -20 -15 -8 -5 8 -7 18 -5 22 3 4 -18 8 -46 8 -28 0 -49 -4 -46 -9 3 -5 -1 -14 -9 -21 -15 -12 -20 -4 -16 23 0 4 -11 7 -26 7 l-26 0 21 -23 c26 -28 27 -36 4 -63 -37 -44 -144 -7 -125 44 13 35 65 44 82 15 9 -16 10 -15 11 7 0 20 -5 25 -28 27 -15 0 -37 -3 -49 -7z m233 -35 c16 -25 16 -27 -6 -50 -13 -14 -26 -25 -30 -25 -3 0 -14 14 -24 31 -17 29 -17 31 0 50 23 26 40 24 60 -6z"/> <path d="M1136 764 c13 -5 -1 -79 -19 -101 -7 -10 -2 -13 19 -13 16 0 24 4 18 8 -8 4 -9 21 -5 47 l7 40 13 -40 c14 -41 31 -68 31 -48 0 6 8 28 17 49 l17 39 7 -40 c4 -26 3 -43 -5 -47 -6 -4 5 -8 24 -8 20 0 30 4 23 8 -19 12 -35 95 -20 104 7 5 1 8 -16 8 -16 0 -26 -3 -24 -8 3 -4 -3 -23 -13 -41 l-18 -35 -8 35 c-4 18 -7 37 -6 42 1 4 -10 7 -25 6 -16 0 -23 -3 -17 -5z"/> <path d="M1848 763 c7 -3 12 -24 12 -53 0 -29 -5 -50 -12 -53 -7 -3 3 -5 22 -5 19 0 29 2 23 5 -8 3 -13 24 -13 53 0 29 5 50 13 53 6 3 -4 5 -23 5 -19 0 -29 -2 -22 -5z"/> <path d="M568 2393 c-54 -59 -129 -166 -126 -181 2 -8 9 -17 17 -20 10 -3 12 0 8 11 -5 12 23 63 59 105 3 4 134 -104 150 -123 8 -11 13 -9 23 7 7 11 11 21 9 22 -2 1 -16 10 -33 21 -16 10 -51 36 -77 58 l-47 40 22 28 c13 16 32 28 46 28 20 1 21 3 11 16 -18 22 -33 19 -62 -12z"/> <path d="M2510 2304 c0 -8 -69 -61 -169 -130 -5 -4 40 -66 63 -86 41 -37 132 -13 161 42 26 50 19 100 -20 145 -19 22 -34 35 -35 29z m38 -56 c23 -23 14 -77 -17 -108 -39 -39 -76 -47 -117 -25 -18 10 -35 23 -37 29 -5 11 127 114 149 115 5 1 15 -4 22 -11z"/> <path d="M352 2090 l-23 -30 28 6 c36 7 125 -27 174 -66 32 -26 38 -27 43 -12 3 9 9 23 12 31 4 8 2 11 -4 7 -12 -7 -154 53 -183 78 -23 20 -19 21 -47 -14z"/> <path d="M2630 2051 c-27 -20 -151 -71 -171 -71 -10 0 -9 -4 2 -15 14 -14 24 -12 99 20 47 19 93 35 103 35 13 0 17 5 13 16 -3 9 -6 20 -6 25 0 13 -12 11 -40 -10z"/> <path d="M2645 1896 c-38 -18 -87 -36 -108 -40 -34 -6 -36 -9 -26 -27 7 -14 14 -17 22 -11 7 5 54 24 104 43 69 25 93 39 93 52 0 22 -2 22 -85 -17z"/> <path d="M261 1877 c-17 -47 -13 -84 10 -100 29 -21 53 -11 94 39 39 48 63 54 88 26 34 -38 5 -112 -44 -112 -11 0 -17 -4 -14 -10 15 -24 52 -10 73 29 27 49 28 81 1 115 -29 37 -72 35 -110 -5 -16 -17 -29 -35 -29 -40 0 -4 -9 -13 -21 -19 -47 -26 -64 43 -19 81 19 17 19 17 0 22 -14 4 -21 -3 -29 -26z"/> <path d="M2725 1659 c-22 -4 -68 -9 -103 -11 -56 -3 -62 -5 -60 -23 3 -19 6 -20 38 -13 8 2 18 -9 25 -28 18 -54 33 -65 83 -62 62 4 87 37 78 102 -4 25 -10 45 -14 45 -4 -1 -25 -5 -47 -10z m45 -57 c0 -37 -17 -52 -56 -52 -23 0 -38 7 -48 22 -30 43 -23 49 82 56 18 2 22 -3 22 -26z"/> <path d="M435 1620 c-7 -22 -39 -55 -68 -71 -14 -8 -19 -5 -27 15 -17 46 -83 62 -113 28 -12 -14 -17 -37 -17 -88 l0 -69 120 0 120 0 0 28 c0 24 -2 26 -19 17 -11 -5 -33 -10 -50 -10 -26 0 -31 4 -31 25 0 14 5 25 12 25 28 0 78 46 84 78 7 38 -1 54 -11 22z m-125 -70 c21 -21 27 -64 11 -74 -5 -3 -30 -3 -55 0 -44 6 -46 8 -46 40 0 52 52 72 90 34z"/> <path d="M2570 1430 c0 -11 11 -27 24 -36 26 -17 25 -40 -2 -47 -15 -4 -15 -5 1 -6 18 -1 23 -26 7 -36 -5 -3 -19 -1 -30 5 -18 9 -20 8 -20 -15 0 -19 5 -25 23 -26 12 0 61 -10 108 -22 l87 -23 12 52 c13 55 10 87 -13 118 -13 17 -25 20 -92 18 -70 -3 -77 -1 -82 18 -7 26 -23 26 -23 0z m188 -62 c15 -15 16 -63 2 -89 -11 -20 -13 -20 -102 2 -28 7 -38 15 -38 29 0 11 5 20 10 20 6 0 8 11 4 25 -6 25 -5 25 53 25 33 0 64 -5 71 -12z"/> <path d="M236 1278 c-37 -52 -7 -115 68 -143 53 -20 114 -8 153 31 23 23 25 31 19 77 -4 28 -8 53 -10 54 -1 1 -12 0 -24 -3 -19 -5 -19 -8 -7 -21 30 -30 7 -103 -33 -103 -16 0 -26 44 -18 81 5 26 3 30 -10 25 -9 -3 -23 -6 -32 -6 -14 0 -14 -2 -3 -9 14 -9 32 -86 23 -96 -16 -15 -66 -3 -93 24 -32 32 -37 62 -14 85 17 17 19 26 6 26 -6 0 -17 -10 -25 -22z"/> <path d="M2497 1113 c-23 -65 -22 -86 9 -122 31 -37 81 -53 128 -40 41 11 61 33 81 88 18 53 18 54 1 48 -10 -4 -114 33 -191 69 -6 2 -19 -17 -28 -43z m127 -33 c42 -18 76 -35 76 -40 0 -17 -41 -58 -64 -64 -31 -8 -103 20 -116 45 -12 20 -13 82 -3 93 8 7 4 9 107 -34z"/> <path d="M538 1031 c-5 -16 -158 -91 -183 -91 -27 0 -31 -11 -14 -42 11 -20 11 -20 32 0 29 26 121 72 146 72 22 0 52 -36 45 -54 -3 -7 -18 -20 -35 -30 -50 -30 -99 -77 -99 -95 0 -10 8 -25 18 -34 23 -21 39 -22 22 -2 -16 19 9 60 52 83 60 33 78 53 78 82 0 21 -8 35 -26 46 -14 10 -21 20 -15 23 6 4 8 17 4 29 -5 22 -19 29 -25 13z"/> <path d="M2404 903 c-26 -5 -61 -41 -66 -68 -2 -12 -10 -19 -21 -17 -34 6 -16 -24 41 -65 31 -23 72 -56 90 -74 26 -26 37 -31 50 -23 23 15 27 34 6 34 -21 0 -102 51 -133 84 -21 22 -22 25 -7 60 12 29 20 36 44 36 15 0 49 -13 74 -29 25 -16 55 -32 67 -36 25 -8 64 3 55 16 -3 5 -9 7 -13 5 -7 -4 -51 20 -102 55 -29 20 -57 27 -85 22z"/> <path d="M700 776 c0 -17 -95 -119 -140 -150 -23 -16 -24 -18 -7 -30 9 -7 17 -18 17 -25 0 -6 5 -11 10 -11 6 0 10 9 10 21 0 22 112 147 143 158 16 6 16 9 -8 31 -21 20 -25 21 -25 6z"/> <path d="M2245 720 c-16 -18 -16 -21 -2 -43 17 -26 7 -47 -22 -47 -8 0 -11 -3 -8 -7 8 -7 -11 -33 -24 -33 -5 0 -14 12 -19 26 -7 18 -15 24 -26 20 -9 -3 -20 -6 -26 -6 -5 0 13 -25 41 -56 28 -31 63 -76 77 -100 14 -24 29 -44 33 -44 15 0 91 82 97 105 13 51 -3 78 -81 140 -27 21 -29 26 -17 44 16 27 1 27 -23 1z m66 -109 c33 -34 39 -83 13 -119 -22 -32 -38 -28 -84 28 -35 42 -40 53 -30 65 8 10 21 13 33 9 13 -4 17 -2 12 5 -9 15 1 41 15 41 7 0 25 -13 41 -29z"/> <path d="M820 675 c0 -5 8 -17 17 -27 16 -18 15 -21 -30 -64 -71 -70 -73 -139 -5 -175 13 -6 31 -20 41 -30 24 -26 37 -24 37 5 0 29 63 144 92 169 23 19 22 22 -7 30 -17 5 -25 -6 -53 -63 -18 -37 -41 -79 -51 -91 l-18 -23 -33 32 c-40 41 -36 70 22 128 45 46 48 77 11 102 -13 8 -23 11 -23 7z"/> <path d="M1998 553 c-17 -18 -17 -21 8 -54 14 -19 41 -63 61 -98 39 -68 36 -81 -18 -81 -48 0 -111 89 -113 162 0 22 -5 36 -11 33 -5 -3 -18 -8 -27 -11 -19 -7 -25 -24 -8 -24 5 0 18 -27 27 -61 23 -83 58 -119 113 -119 37 0 110 31 110 46 0 3 -18 32 -40 64 -22 32 -50 82 -62 110 -22 50 -24 51 -40 33z"/> <path d="M1090 493 c0 -28 -62 -167 -79 -177 -16 -10 -14 -23 7 -30 9 -3 22 -8 27 -11 6 -3 11 10 11 28 1 17 13 58 28 90 26 57 27 58 63 55 50 -4 60 -24 43 -91 -7 -30 -10 -66 -7 -78 8 -32 34 -66 42 -57 4 4 0 14 -9 23 -20 20 -20 24 1 112 16 69 16 73 -2 93 -12 14 -31 20 -57 20 -34 0 -39 3 -33 19 4 13 0 20 -15 24 -16 4 -20 0 -20 -20z"/> <path d="M1737 452 c-10 -2 -16 -9 -13 -15 4 -11 63 -195 71 -223 2 -6 15 -9 28 -7 l25 5 -26 49 c-14 28 -35 82 -46 122 -17 59 -24 72 -39 69z"/> <path d="M1457 312 c-21 -23 -21 -28 1 -52 18 -20 19 -20 41 4 22 23 22 25 5 45 -22 26 -26 26 -47 3z"/> </g> </svg> 