 <svg  version="1.0" xmlns="http://www.w3.org/2000/svg"  width="198.000000pt" height="255.000000pt" viewBox="0 0 198.000000 255.000000"  preserveAspectRatio="xMidYMid meet">  <g transform="translate(0.000000,255.000000) scale(0.100000,-0.100000)" fill="#52b4ff" stroke="none"> <path d="M730 2519 c-151 -39 -273 -113 -386 -231 -159 -168 -233 -368 -221 -603 6 -123 31 -223 78 -318 178 -355 558 -530 946 -436 26 6 86 29 131 50 233 107 382 284 454 537 29 100 31 303 5 401 -41 150 -98 257 -196 363 -111 121 -240 198 -395 238 -109 27 -309 27 -416 -1z m406 -39 c138 -36 279 -122 383 -235 63 -70 78 -95 56 -95 -8 0 -57 42 -108 93 -105 105 -169 146 -294 190 -115 39 -270 48 -389 23 -156 -34 -330 -139 -417 -251 -38 -50 -77 -72 -77 -44 0 23 187 197 255 237 178 104 390 133 591 82z m34 -64 c109 -39 205 -100 288 -183 39 -41 72 -78 72 -83 0 -16 -23 -11 -50 10 -47 37 -64 27 -96 -54 -13 -33 -31 -56 -56 -74 -21 -13 -38 -28 -38 -32 0 -4 -11 -15 -25 -24 -25 -17 -26 -17 -41 21 -9 21 -25 50 -35 65 -24 33 -24 35 4 42 13 3 36 15 50 27 25 19 27 26 27 99 0 93 -6 99 -105 121 -92 21 -383 18 -464 -4 -36 -10 -70 -22 -78 -28 -19 -17 -18 -148 2 -176 9 -13 34 -28 55 -34 46 -14 48 -19 19 -45 -12 -10 -31 -38 -41 -62 -22 -48 -20 -48 -95 17 -37 31 -59 61 -75 98 -26 64 -56 78 -93 43 -13 -12 -31 -20 -42 -18 -14 3 1 23 72 94 102 101 202 161 327 194 110 30 314 23 418 -14z m-88 -76 c98 -11 159 -29 166 -47 4 -15 -48 -9 -85 9 -24 12 -77 2 -68 -12 3 -6 24 -10 45 -10 21 0 42 -4 45 -10 3 -5 19 -10 36 -10 25 0 29 -4 29 -26 0 -21 -3 -25 -17 -19 -118 49 -426 55 -554 9 -52 -18 -49 -18 -49 10 0 23 26 44 32 26 2 -6 16 -3 31 5 16 8 36 14 45 13 32 -2 52 2 52 12 0 15 -46 23 -67 12 -10 -5 -35 -13 -57 -16 -29 -6 -37 -4 -34 6 14 43 262 69 450 48z m73 -125 c107 -23 121 -50 42 -85 -40 -18 -41 -18 -72 6 -76 58 -295 58 -363 -1 -25 -21 -29 -22 -66 -9 -68 24 -82 45 -43 66 69 38 366 52 502 23z m-680 -115 c13 -33 32 -61 55 -78 19 -14 44 -36 56 -47 11 -12 27 -24 35 -27 10 -4 11 -9 4 -17 -8 -8 -33 0 -93 30 -71 35 -88 40 -139 37 l-58 -3 3 49 c3 39 -1 53 -20 73 l-23 24 28 -10 c41 -16 53 -14 84 13 34 29 42 24 68 -44z m1060 27 c40 13 43 8 14 -23 -19 -20 -20 -26 -9 -59 16 -48 4 -57 -65 -49 -45 5 -58 1 -129 -35 -43 -23 -83 -41 -87 -41 -28 0 18 53 92 105 16 11 36 38 44 60 9 22 23 51 32 64 l15 23 29 -28 c26 -25 32 -27 64 -17z m-687 -69 l-3 -33 -22 40 c-12 22 -22 36 -23 32 0 -5 5 -17 10 -28 13 -22 3 -24 -24 -4 -29 22 -37 8 -16 -28 25 -41 26 -70 3 -65 -11 2 -17 12 -16 23 1 11 0 14 -3 8 -8 -19 -37 -16 -30 2 3 8 1 15 -4 15 -6 0 -10 -6 -11 -12 0 -7 -2 -21 -4 -31 -2 -10 3 -21 11 -24 22 -8 17 -23 -8 -23 -16 0 -31 -13 -50 -44 -16 -24 -28 -48 -28 -55 0 -16 37 -51 55 -51 21 0 51 48 37 62 -7 7 -10 5 -9 -7 1 -9 -5 -22 -15 -28 -21 -14 -48 7 -48 38 0 30 25 38 60 20 33 -17 40 -18 40 -7 0 5 -17 16 -37 27 -21 10 -33 20 -26 22 7 2 21 0 32 -6 11 -6 26 -11 33 -10 7 0 2 5 -12 12 l-25 11 28 4 c36 5 34 15 -5 35 l-33 18 30 -7 c59 -13 60 -12 59 32 0 41 0 41 27 30 24 -8 27 -14 22 -36 -3 -14 -14 -34 -23 -45 -10 -11 -31 -49 -48 -85 -16 -36 -47 -85 -69 -110 -105 -120 -108 -147 -39 -292 51 -109 53 -122 29 -174 -17 -35 -19 -36 -62 -30 -24 3 -58 6 -76 6 l-33 0 14 39 c16 46 8 79 -36 163 -17 32 -33 79 -36 105 -5 42 -1 57 31 118 20 39 60 102 89 140 30 39 67 100 84 137 33 74 101 154 147 174 29 12 30 12 33 -17 2 -16 2 -44 0 -61z m172 -10 c0 -116 23 -395 40 -490 7 -34 18 -75 26 -90 14 -27 13 -28 -13 -35 -36 -10 -210 -10 -246 0 -23 6 -26 10 -17 26 26 49 60 386 60 596 l0 95 75 0 75 0 0 -102z m59 88 c44 -23 91 -83 127 -163 19 -41 64 -115 100 -166 121 -167 131 -221 64 -353 -43 -86 -48 -119 -25 -164 l16 -30 -84 0 c-80 0 -84 1 -95 25 -21 46 -13 91 33 186 28 59 45 106 45 129 0 38 -27 88 -79 145 -41 44 -67 85 -80 126 -6 20 -23 51 -36 69 -32 44 -32 66 1 74 20 5 25 11 20 26 -20 66 -20 63 2 58 12 -4 20 -2 16 3 -3 5 -14 9 -26 9 -18 0 -20 -4 -14 -45 6 -37 4 -45 -8 -45 -13 0 -16 13 -16 65 0 36 2 65 5 65 4 0 19 -7 34 -14z m-814 -90 c-62 -128 -86 -283 -65 -421 13 -83 57 -218 84 -257 20 -29 20 -48 0 -48 -19 0 -74 116 -100 210 -13 47 -18 100 -18 195 0 147 13 210 71 338 30 64 39 76 49 65 11 -11 7 -26 -21 -82z m1373 22 c54 -111 76 -208 76 -343 0 -137 -15 -207 -71 -328 -31 -66 -39 -76 -50 -64 -12 11 -9 23 16 73 54 110 66 166 66 319 0 153 -11 206 -66 322 -16 33 -26 68 -23 77 9 23 17 14 52 -56z m-1322 -30 c-14 -53 3 -67 74 -60 42 4 63 -1 123 -28 40 -18 77 -37 84 -42 8 -6 -4 -30 -43 -81 -120 -158 -142 -252 -85 -360 l28 -54 -95 -62 c-56 -37 -98 -59 -104 -53 -5 5 30 35 87 72 52 35 93 65 90 68 -3 3 -39 -17 -80 -45 l-75 -52 -15 22 c-28 40 -73 171 -85 250 -24 145 2 313 67 441 29 57 46 48 29 -16z m1270 20 c21 -40 52 -130 65 -187 17 -77 12 -248 -11 -328 -25 -90 -65 -183 -80 -183 -5 0 -42 21 -80 47 -39 25 -72 44 -75 41 -3 -2 38 -33 90 -67 83 -55 111 -81 88 -81 -3 0 -50 28 -104 62 l-97 62 26 50 c19 38 26 67 26 111 1 71 -17 111 -105 234 -33 46 -59 84 -57 86 2 1 39 19 82 40 67 32 86 37 128 33 69 -7 96 14 80 62 -15 40 -15 50 -2 50 5 0 17 -14 26 -32z m-750 -215 c-3 -3 -12 0 -20 6 -13 11 -13 17 2 48 l17 36 3 -42 c2 -24 1 -46 -2 -48z m239 6 c-14 -21 -25 -6 -24 34 l1 42 14 -33 c8 -18 12 -37 9 -43z m-254 -19 c18 -10 28 -50 12 -50 -18 1 -55 38 -49 49 9 14 12 14 37 1z m275 -11 c3 -6 -1 -18 -10 -27 -15 -15 -18 -15 -26 -2 -5 9 -5 19 2 27 13 16 25 17 34 2z m-266 -95 c0 -40 -1 -42 -87 -100 -49 -32 -91 -60 -95 -62 -5 -2 -8 11 -8 30 0 34 12 54 89 151 l44 54 28 -16 c24 -13 29 -22 29 -57z m325 14 c54 -68 72 -98 80 -130 10 -39 -4 -36 -90 22 -64 43 -75 55 -81 86 -6 31 -3 40 17 55 13 10 26 18 29 18 3 0 23 -23 45 -51z m-335 -98 c0 -13 -23 -34 -71 -65 -77 -50 -94 -57 -94 -38 0 10 145 118 163 122 1 1 2 -8 2 -19z m357 -48 c34 -22 50 -39 46 -48 -5 -12 -9 -12 -32 3 -14 9 -47 30 -73 46 -31 19 -48 37 -48 50 0 22 -10 26 107 -51z m-372 -52 c-7 -34 -20 -69 -30 -80 -16 -17 -15 -19 11 -37 23 -15 49 -18 154 -18 158 0 225 24 177 64 -13 10 -43 119 -35 126 2 2 31 -14 65 -36 l62 -41 -35 -75 c-39 -87 -41 -111 -14 -172 l20 -44 91 5 c102 6 118 15 101 53 -14 30 -16 94 -3 113 6 10 26 2 84 -35 42 -26 77 -51 77 -54 0 -14 -81 -104 -132 -146 -73 -60 -217 -130 -308 -149 -168 -35 -373 -3 -520 83 -61 36 -220 180 -220 199 1 7 124 90 151 102 18 8 21 -71 5 -105 -26 -54 -12 -63 98 -63 l92 0 17 35 c26 54 21 107 -14 176 -17 34 -28 64 -24 67 10 10 130 90 136 91 4 1 1 -26 -6 -59z m763 -249 c10 -6 2 -22 -33 -64 -143 -176 -361 -277 -595 -277 -227 0 -424 87 -579 257 -51 55 -59 68 -46 76 12 6 21 1 37 -20 12 -15 44 -49 71 -75 281 -271 729 -275 1018 -9 41 37 80 80 88 95 16 28 19 30 39 17z"/> <path d="M822 2302 c-13 -4 40 -7 117 -7 77 0 133 3 123 7 -22 8 -209 8 -240 0z"/> <path d="M632 1773 c21 -20 41 -34 44 -30 10 10 -46 67 -65 67 -10 0 -3 -13 21 -37z"/> <path d="M572 1767 c-22 -24 -32 -51 -10 -29 9 9 19 6 45 -14 19 -14 37 -23 41 -19 3 3 -8 17 -25 31 -20 15 -30 30 -26 39 8 21 0 19 -25 -8z"/> <path d="M518 1629 c-47 -24 -49 -39 -5 -39 17 0 39 -5 47 -10 12 -7 7 -12 -23 -25 -43 -18 -48 -35 -11 -35 22 0 24 -2 14 -15 -24 -28 -4 -33 40 -9 34 19 38 24 18 19 -16 -3 -28 -1 -28 4 0 5 -8 11 -17 14 -14 3 -11 6 10 11 34 10 35 33 2 46 -30 11 -32 26 -5 35 22 7 28 25 8 25 -7 -1 -30 -10 -50 -21z"/> <path d="M610 1480 c0 -6 6 -10 13 -10 6 -1 -5 -10 -25 -21 -21 -11 -38 -24 -38 -29 0 -13 4 -13 45 7 36 17 47 46 20 57 -8 3 -15 1 -15 -4z"/> <path d="M610 1395 l-34 -35 52 0 c29 0 52 4 52 10 0 5 -6 7 -14 4 -19 -7 -30 14 -16 31 6 7 7 16 2 19 -5 3 -24 -10 -42 -29z"/> <path d="M930 1961 c-15 -29 -12 -94 5 -117 8 -10 15 -31 15 -46 0 -21 4 -26 16 -21 14 5 15 3 5 -14 -6 -11 -10 -33 -10 -49 0 -16 -4 -49 -8 -74 l-9 -45 -11 50 c-7 28 -14 65 -17 84 -5 30 -4 32 11 20 15 -13 16 -10 11 33 -3 26 -14 60 -23 75 -18 26 -19 27 -27 7 -7 -14 -5 -31 6 -55 l15 -34 -4 40 -5 40 16 -34 c12 -27 13 -36 3 -42 -7 -4 -17 -5 -23 -2 -6 4 -6 -1 -2 -13 5 -10 10 -28 13 -39 4 -20 4 -20 -12 0 -9 11 -14 30 -12 43 2 12 0 25 -4 28 -12 7 -11 -39 1 -70 6 -17 6 -26 0 -26 -22 0 -8 -42 25 -79 39 -43 43 -53 18 -49 -13 2 -18 -4 -18 -22 0 -17 -8 -29 -27 -38 -36 -17 -37 -35 -1 -21 41 15 52 27 45 51 -3 15 -1 19 9 16 8 -2 17 -22 20 -44 4 -30 7 -35 13 -21 5 9 5 28 2 42 -5 19 -3 23 8 19 8 -3 18 -18 21 -32 7 -32 32 -68 41 -59 3 3 -2 21 -11 39 -10 18 -21 40 -25 48 -4 8 -17 16 -29 18 -27 4 -27 4 9 54 30 40 40 88 19 88 -5 0 -3 10 5 22 9 12 16 36 16 52 0 28 0 29 -20 11 -11 -10 -20 -13 -20 -7 0 6 5 14 10 17 13 8 13 75 0 75 -5 0 -17 -12 -25 -27 -9 -16 -13 -19 -10 -8 23 68 26 89 16 112 -13 28 -27 29 -41 4z m29 -38 c0 -16 -4 -37 -8 -47 -12 -31 -24 -1 -17 40 8 41 26 46 25 7z m20 -115 c-11 -19 -14 -20 -17 -6 -2 9 2 27 9 40 11 19 14 20 17 6 2 -9 -2 -27 -9 -40z m31 -32 c0 -8 -9 -24 -20 -37 l-20 -24 10 29 c17 47 30 61 30 32z m-10 -90 c0 -8 -9 -24 -21 -37 l-20 -24 7 25 c10 39 34 64 34 36z m-81 -37 c13 -37 0 -37 -22 0 -21 35 -21 42 -3 35 8 -3 19 -19 25 -35z"/> <path d="M1092 2017 l-31 -32 22 -28 c30 -38 57 -28 57 20 0 31 2 34 23 28 21 -7 21 -6 5 11 -22 23 -46 5 -50 -39 -3 -33 -20 -41 -26 -12 -2 10 8 30 23 45 15 15 22 30 17 34 -5 3 -23 -9 -40 -27z"/> <path d="M1152 1911 c-38 -33 -34 -41 19 -34 49 7 50 -1 2 -26 -21 -11 -31 -20 -22 -21 8 0 20 5 27 12 19 19 26 1 9 -23 -13 -18 -14 -24 -2 -35 11 -12 18 -11 44 4 17 9 31 20 31 25 0 11 -13 8 -34 -8 -11 -8 -25 -15 -30 -15 -6 0 -3 7 6 14 10 7 15 16 11 19 -3 4 0 13 7 22 20 24 5 45 -32 45 l-33 0 28 18 c15 10 24 22 20 25 -10 11 -16 8 -51 -22z"/> <path d="M1237 1762 c-33 -35 -27 -43 27 -36 l41 5 -26 -24 c-24 -22 -25 -25 -11 -43 11 -15 13 -15 9 -2 -8 22 15 42 31 26 8 -8 9 -5 5 11 -6 22 12 30 20 9 2 -7 8 -10 12 -6 11 11 -16 40 -32 34 -7 -3 -13 -2 -13 3 0 4 -12 6 -27 3 -27 -5 -27 -4 -10 15 36 41 13 46 -26 5z"/> <path d="M1320 1653 c-32 -6 -51 -23 -25 -23 16 0 17 -2 3 -17 -21 -25 -27 -48 -18 -64 7 -11 15 -12 40 -2 27 10 31 10 26 -3 -3 -7 -1 -14 5 -14 15 0 23 30 11 42 -8 8 -18 6 -37 -6 -33 -21 -46 -13 -32 19 10 21 18 25 47 23 31 -3 35 0 38 25 3 28 -1 30 -58 20z"/> <path d="M1276 1521 c-3 -4 12 -16 32 -26 20 -10 32 -20 25 -22 -6 -2 -25 3 -42 12 -17 8 -31 11 -31 6 0 -6 14 -18 30 -26 17 -9 28 -20 25 -25 -4 -6 -2 -10 3 -10 4 0 15 15 24 33 l15 32 -38 17 c-21 9 -41 13 -43 9z"/> <path d="M1254 1453 c5 -16 3 -23 -7 -23 -17 0 -40 -42 -35 -65 5 -27 21 -28 48 -5 29 25 34 25 27 0 -3 -11 -2 -20 3 -20 10 0 18 31 13 48 -7 18 -24 15 -50 -10 -25 -24 -44 -17 -27 10 6 9 28 19 48 22 l38 5 -32 30 c-29 27 -32 28 -26 8z"/> <path d="M828 1279 c-62 -37 -68 -44 -68 -74 0 -20 -6 -35 -15 -39 -18 -7 -20 -37 -3 -54 7 -7 24 -12 39 -12 17 0 28 -6 31 -18 4 -15 19 -20 74 -25 147 -14 164 -12 211 35 33 33 43 50 43 75 0 31 -2 33 -35 33 -28 0 -42 -8 -76 -45 -23 -25 -45 -45 -50 -45 -15 0 -10 39 7 48 8 5 35 28 60 51 32 32 44 51 44 72 0 27 -3 29 -39 29 -21 0 -65 2 -97 5 -56 5 -63 3 -126 -36z m199 -16 l-35 -36 -93 9 -93 9 49 30 c45 28 54 30 128 27 l80 -4 -36 -35z m19 -37 l-36 -43 -88 -2 c-48 -1 -103 -4 -122 -6 -19 -2 -27 -2 -17 1 18 6 18 6 0 19 -36 27 -3 35 107 27 l105 -8 40 43 c52 55 61 30 11 -31z m54 -43 c0 -16 -55 -63 -74 -63 -17 0 -16 5 14 35 31 32 60 45 60 28z m-6 -74 c-20 -21 -41 -36 -45 -34 -4 3 -9 2 -11 -2 -1 -5 -49 -6 -105 -5 -76 3 -103 7 -107 18 -5 12 7 13 73 8 53 -5 80 -3 85 4 4 6 19 9 34 6 22 -4 34 2 67 36 31 32 41 37 43 24 2 -9 -13 -34 -34 -55z m-156 54 c-21 -2 -57 -2 -80 0 -24 2 -7 4 37 4 44 0 63 -2 43 -4z m-60 -13 c79 0 82 -1 82 -23 0 -23 -1 -23 -92 -19 -112 4 -118 6 -118 33 0 17 4 20 23 15 12 -3 59 -6 105 -6z"/> <path d="M1735 829 c-5 -7 2 -19 16 -30 43 -33 55 -18 15 20 -17 16 -26 19 -31 10z"/> <path d="M30 671 c0 -97 12 -146 40 -161 31 -17 86 -11 114 11 25 20 26 24 26 131 0 78 -3 109 -11 106 -8 -3 -11 -34 -10 -96 2 -86 1 -93 -23 -117 -30 -30 -59 -32 -86 -5 -17 17 -20 33 -20 120 0 82 -3 100 -15 100 -12 0 -15 -17 -15 -89z"/> <path d="M280 633 c0 -112 2 -133 15 -133 12 0 15 18 15 98 l1 97 99 -105 100 -105 0 138 c0 115 -2 137 -15 137 -12 0 -15 -18 -15 -102 l0 -103 -100 105 -99 105 -1 -132z"/> <path d="M570 630 c0 -109 2 -130 15 -130 13 0 15 21 15 130 0 109 -2 130 -15 130 -13 0 -15 -21 -15 -130z"/> <path d="M640 753 c0 -5 23 -66 50 -138 37 -98 51 -125 56 -110 4 11 27 71 51 133 24 62 43 115 43 117 0 3 -6 5 -14 5 -8 0 -26 -36 -46 -92 -32 -91 -50 -126 -50 -99 0 30 -65 191 -77 191 -7 0 -13 -3 -13 -7z"/> <path d="M880 628 l0 -128 65 0 c51 0 65 3 65 15 0 11 -13 15 -53 15 l-53 0 2 48 2 47 51 3 c67 4 66 22 -2 22 l-52 0 0 40 0 40 52 0 c36 0 53 4 53 13 0 9 -19 12 -65 12 l-65 0 0 -127z"/> <path d="M1060 629 c0 -106 3 -129 15 -129 10 0 15 16 17 61 l3 61 39 -61 c25 -38 47 -61 58 -61 15 0 12 10 -22 55 -44 60 -46 65 -27 65 23 0 47 35 47 67 0 40 -25 59 -82 66 l-48 5 0 -129z m94 80 c23 -34 3 -69 -41 -69 -21 0 -23 5 -23 45 0 41 2 45 24 45 14 0 31 -9 40 -21z"/> <path d="M1275 735 c-41 -41 -28 -73 45 -110 39 -20 50 -31 50 -49 0 -29 -24 -56 -50 -56 -19 0 -50 25 -50 41 0 5 -7 9 -15 9 -20 0 -19 -12 6 -44 29 -37 89 -37 118 0 39 49 26 86 -41 120 -54 27 -67 46 -48 69 15 18 43 19 70 3 29 -18 39 1 11 23 -32 26 -67 24 -96 -6z"/> <path d="M1450 630 c0 -109 2 -130 15 -130 13 0 15 21 15 130 0 109 -2 130 -15 130 -13 0 -15 -21 -15 -130z"/> <path d="M1520 743 c0 -8 13 -13 30 -13 l30 0 0 -115 c0 -96 3 -115 15 -115 12 0 15 19 15 115 l0 115 30 0 c17 0 30 5 30 13 0 8 -22 12 -75 12 -53 0 -75 -4 -75 -12z"/> <path d="M1718 630 c-42 -96 -53 -130 -42 -130 8 0 22 16 30 35 14 34 15 35 72 35 57 0 58 0 71 -35 7 -19 19 -35 28 -35 8 0 13 6 10 13 -34 83 -101 234 -106 239 -4 4 -32 -51 -63 -122z m82 24 c11 -26 20 -48 20 -50 0 -2 -20 -4 -44 -4 l-44 0 21 50 c11 28 22 50 24 50 1 0 11 -21 23 -46z"/> <path d="M940 349 c0 -5 -22 -62 -50 -125 -27 -63 -50 -119 -50 -124 0 -22 30 5 40 36 11 33 13 34 69 34 56 0 57 -1 69 -34 11 -30 42 -58 42 -38 0 5 -22 60 -50 124 -27 64 -50 121 -50 127 0 6 -4 11 -10 11 -5 0 -10 -5 -10 -11z m29 -96 c8 -21 16 -44 18 -50 4 -9 -7 -13 -36 -13 -23 0 -41 3 -41 7 0 15 33 93 39 93 4 0 13 -17 20 -37z"/> <path d="M1417 232 c-31 -72 -57 -133 -57 -136 0 -18 33 12 45 40 13 33 16 34 69 34 53 0 55 -1 67 -35 11 -30 35 -52 45 -42 2 2 -19 55 -46 118 -28 63 -54 122 -58 133 -6 14 -21 -11 -65 -112z m61 -40 c-22 -2 -42 -1 -44 1 -3 2 5 26 17 53 l22 49 22 -50 22 -50 -39 -3z"/> <path d="M285 225 l0 -125 59 0 c53 0 61 3 92 34 29 29 34 41 34 80 0 90 -48 136 -142 136 l-43 0 0 -125z m118 83 c31 -16 50 -74 37 -113 -15 -44 -41 -66 -89 -72 l-41 -6 0 100 c0 55 3 102 6 106 8 7 62 -2 87 -15z"/> <path d="M527 223 c2 -173 21 -175 25 -4 3 111 1 131 -12 131 -13 0 -15 -20 -13 -127z"/> <path d="M710 220 c0 -111 2 -129 15 -124 11 5 15 21 15 60 0 53 0 54 30 54 38 0 70 32 70 70 0 45 -31 70 -85 70 l-45 0 0 -130z m93 93 c16 -9 7 -62 -12 -73 -41 -21 -51 -13 -51 40 0 50 0 50 28 44 15 -4 30 -9 35 -11z"/> <path d="M1071 298 c12 -29 35 -90 52 -136 l30 -84 47 124 c25 68 49 129 54 136 5 8 1 12 -11 12 -14 0 -26 -22 -52 -95 -19 -53 -36 -94 -38 -91 -2 2 -19 44 -37 93 -21 57 -39 89 -50 91 -14 3 -14 -2 5 -50z"/> <path d="M1290 226 c0 -101 3 -125 15 -130 13 -5 15 13 15 124 0 109 -2 130 -15 130 -13 0 -15 -20 -15 -124z"/> </g> </svg> 