 <svg  version="1.0" xmlns="http://www.w3.org/2000/svg"  width="300.000000pt" height="300.000000pt" viewBox="0 0 300.000000 300.000000"  preserveAspectRatio="xMidYMid meet">  <g transform="translate(0.000000,300.000000) scale(0.100000,-0.100000)" fill="#940000" stroke="none"> <path d="M1370 2927 c-3 -3 -23 -8 -44 -11 -180 -28 -386 -138 -540 -286 -450 -434 -567 -1187 -276 -1777 80 -162 120 -219 240 -346 163 -172 344 -274 578 -327 30 -7 111 -12 181 -12 156 0 287 30 430 98 165 79 286 180 431 360 70 87 158 259 205 400 50 152 52 159 66 249 17 116 18 127 18 275 0 74 -1 149 -3 165 -32 313 -165 627 -352 836 -49 54 -137 137 -191 179 -96 76 -292 163 -418 187 -40 8 -319 16 -325 10z m245 -51 c218 -20 422 -123 605 -306 113 -113 184 -213 250 -353 80 -169 116 -291 136 -457 56 -469 -74 -905 -357 -1205 -187 -197 -369 -293 -627 -332 -121 -17 -222 -10 -367 27 -103 26 -247 96 -325 157 -128 100 -241 220 -307 328 -111 179 -189 391 -214 582 -13 106 -13 360 1 463 16 114 54 259 92 348 185 437 525 714 923 752 39 3 86 5 105 3 19 -1 58 -5 85 -7z"/> <path d="M1398 2829 c-199 -21 -406 -126 -569 -288 -177 -177 -297 -406 -360 -686 -19 -84 -23 -130 -24 -285 0 -195 3 -232 28 -345 58 -256 180 -489 342 -650 94 -95 103 -102 175 -152 176 -121 409 -180 607 -156 48 6 97 14 108 16 11 3 34 8 50 12 37 9 101 37 180 77 190 97 381 300 494 525 51 103 105 272 127 403 20 118 20 379 0 500 -13 80 -48 212 -67 255 -4 11 -18 45 -29 75 -73 191 -258 424 -425 537 -103 69 -233 127 -335 149 -34 7 -191 24 -210 22 -8 0 -49 -4 -92 -9z m242 -43 c316 -52 605 -287 759 -617 45 -96 87 -216 97 -276 l6 -41 -63 -21 c-93 -30 -172 -50 -233 -57 -52 -6 -53 -6 -59 23 -3 17 -16 35 -31 43 -32 17 -32 24 0 96 59 133 71 303 29 389 -15 29 -25 68 -25 93 0 32 -6 49 -25 68 -14 14 -25 33 -25 44 0 10 -11 32 -24 47 l-24 28 -28 -20 c-16 -12 -35 -42 -44 -70 -30 -88 -77 -183 -134 -270 -86 -132 -99 -162 -102 -235 -2 -36 -6 -65 -11 -64 -4 0 -33 12 -63 27 -59 29 -81 32 -109 17 -12 -6 -30 -5 -53 2 -32 9 -42 7 -97 -21 -34 -17 -64 -31 -66 -31 -3 0 -5 29 -5 64 0 81 -7 100 -79 206 -65 96 -118 195 -151 287 -40 110 -93 130 -121 46 -6 -21 -22 -51 -35 -66 -18 -21 -24 -41 -24 -74 0 -30 -8 -58 -22 -82 -20 -31 -23 -49 -22 -136 1 -88 6 -114 39 -212 l38 -112 -31 -26 c-18 -15 -32 -35 -32 -46 0 -24 -29 -25 -120 -4 -140 32 -240 68 -240 84 0 32 62 207 105 298 67 143 123 223 238 342 212 219 508 324 787 277z m-601 -283 c28 -94 77 -193 146 -293 118 -173 123 -226 30 -347 -19 -26 -41 -66 -47 -90 -12 -51 -29 -51 -42 0 -8 32 -5 45 29 109 57 108 55 148 -12 259 -92 149 -153 304 -153 387 0 68 25 55 49 -25z m993 45 c5 -85 -41 -218 -127 -368 -96 -166 -98 -176 -39 -289 35 -66 42 -108 24 -142 -15 -27 -30 -24 -30 7 0 29 -13 57 -47 98 -44 52 -66 108 -64 159 2 55 22 100 88 195 53 75 123 213 148 292 10 30 20 58 22 63 9 15 23 6 25 -15z m-1067 -105 c25 -127 81 -268 146 -371 34 -53 36 -81 10 -113 l-18 -23 -25 40 c-86 139 -161 382 -143 465 8 37 23 37 30 2z m1125 -27 c0 -99 -62 -307 -115 -388 -14 -21 -25 -41 -25 -46 0 -5 -9 -17 -20 -27 -19 -17 -20 -16 -36 18 l-17 36 39 68 c63 107 92 174 120 275 35 125 33 120 44 113 5 -3 10 -25 10 -49z m-1146 -259 c17 -73 60 -174 106 -249 31 -50 39 -105 18 -126 -7 -7 -33 -12 -59 -12 -112 0 -146 29 -59 50 28 7 50 15 48 19 -2 3 -20 40 -40 81 -52 107 -71 194 -66 299 5 109 20 139 30 60 4 -31 14 -86 22 -122z m1180 142 c25 -128 -16 -333 -86 -432 -11 -16 -19 -29 -17 -31 2 -2 25 -9 52 -16 50 -13 62 -34 25 -44 -40 -10 -134 -6 -146 6 -23 23 -13 72 28 138 37 59 68 133 99 232 7 21 15 69 18 108 6 75 17 90 27 39z m-634 -354 c17 -21 0 -40 -72 -76 -62 -31 -97 -36 -116 -17 -21 21 -12 32 61 70 79 41 108 46 127 23z m162 -22 c78 -38 88 -49 66 -71 -26 -26 -105 -3 -173 52 -25 20 -28 26 -16 40 20 24 38 21 123 -21z m-152 -94 c0 -27 -51 -74 -96 -89 -20 -7 -61 -10 -91 -8 -67 6 -98 31 -88 71 8 31 17 33 51 11 30 -20 91 -14 149 15 53 27 75 27 75 0z m90 1 c60 -31 121 -36 159 -14 33 20 35 19 45 -12 4 -14 0 -29 -12 -44 -23 -28 -110 -39 -166 -20 -45 15 -96 62 -96 89 0 27 20 27 70 1z m-905 -69 c63 -17 173 -33 320 -45 64 -5 94 -17 138 -55 29 -26 39 -46 57 -114 12 -45 27 -88 34 -96 6 -8 43 -29 82 -47 138 -63 163 -113 143 -290 -11 -107 -8 -344 7 -406 10 -43 -12 -34 -35 15 -37 77 -45 135 -45 337 -1 140 -5 201 -14 218 -7 12 -52 48 -100 80 -84 55 -88 59 -114 125 -51 126 -79 148 -218 167 -223 30 -348 70 -417 133 -34 31 -18 37 40 16 28 -10 84 -28 122 -38z m1835 45 c0 -7 -17 -25 -37 -39 -79 -54 -178 -84 -368 -113 -176 -26 -200 -42 -244 -162 -25 -67 -51 -94 -145 -152 -91 -55 -90 -54 -91 -290 0 -167 -4 -216 -18 -265 -18 -59 -50 -115 -61 -104 -3 3 -1 34 5 70 14 83 14 282 0 387 -9 59 -9 94 -1 122 13 48 58 102 103 123 17 8 53 25 78 37 50 23 67 51 89 143 6 27 18 60 27 73 26 40 95 74 160 80 219 18 330 39 439 83 61 24 64 24 64 7z m-990 -51 c21 -26 82 -58 119 -64 l36 -6 3 -82 c2 -67 -1 -90 -18 -123 -21 -42 -76 -87 -131 -110 -29 -12 -36 -11 -88 17 -30 16 -69 47 -86 67 -29 36 -30 42 -30 133 l0 96 48 12 c26 7 64 26 85 43 43 36 46 37 62 17z m-1012 -18 c6 -7 9 -23 5 -35 -4 -17 5 -32 38 -65 24 -23 51 -58 60 -77 46 -97 207 -198 367 -230 31 -7 63 -19 70 -28 6 -9 12 -43 12 -77 0 -99 50 -249 112 -338 11 -15 37 -36 58 -47 21 -11 41 -29 45 -40 11 -35 56 -80 79 -80 13 0 31 -12 44 -30 25 -33 68 -41 78 -15 7 16 44 21 44 5 0 -5 10 -15 22 -21 19 -10 25 -8 54 23 17 20 44 38 58 42 15 4 40 25 57 49 16 23 47 53 67 67 93 64 146 196 168 413 3 32 11 60 17 62 7 1 42 10 79 18 72 17 200 72 238 103 73 60 91 79 111 121 12 25 40 62 61 81 32 29 39 41 36 64 -4 25 16 47 30 33 14 -13 4 -353 -12 -440 -92 -489 -395 -859 -791 -966 -117 -32 -318 -32 -433 -1 -358 97 -641 405 -761 828 -40 139 -50 224 -51 404 0 180 8 214 38 177z m768 -57 c10 0 14 -12 14 -40 0 -39 0 -39 -27 -29 -58 22 -83 61 -67 103 5 14 11 12 36 -9 16 -14 36 -25 44 -25z m534 7 c0 -25 -54 -77 -79 -77 -17 0 -21 6 -21 34 0 28 5 36 30 46 16 7 35 19 41 27 10 11 14 11 20 1 5 -7 9 -21 9 -31z m-1165 -21 c78 -34 183 -63 315 -86 67 -11 100 -34 100 -69 0 -15 -7 -17 -62 -10 -92 12 -168 29 -213 49 -11 4 -47 20 -80 35 -79 34 -153 82 -166 108 -14 25 -6 23 106 -27z m1825 34 c0 -17 -81 -71 -176 -116 -89 -43 -212 -78 -307 -87 -48 -5 -48 -4 -42 20 10 42 29 52 127 68 108 18 263 65 328 99 50 26 70 31 70 16z m-1183 -145 c0 0 4 -17 8 -37 6 -34 5 -36 -14 -31 -30 8 -61 51 -61 85 l0 29 33 -23 c17 -13 33 -23 34 -23z m493 19 c0 -36 -16 -61 -51 -80 -17 -8 -32 -14 -34 -12 -10 10 23 78 42 87 13 6 23 15 23 21 0 5 5 10 10 10 6 0 10 -12 10 -26z m-1086 -19 c30 -19 57 -35 60 -35 3 0 29 -11 58 -25 57 -26 205 -65 251 -65 40 0 94 -25 101 -47 3 -10 8 -77 10 -148 4 -135 21 -222 65 -321 47 -106 -22 -45 -78 70 -46 93 -64 178 -62 287 l2 76 -74 12 c-80 13 -148 36 -230 78 -67 33 -193 153 -162 153 2 0 29 -16 59 -35z m1625 -37 c-94 -83 -236 -147 -364 -163 l-50 -6 3 -70 c4 -80 -25 -225 -59 -292 -28 -55 -81 -126 -95 -127 -6 0 3 36 22 83 39 97 56 194 58 333 1 121 12 140 85 149 154 21 270 59 386 128 77 46 84 28 14 -35z m-801 -228 c-10 -31 -28 -41 -28 -16 0 8 -3 21 -6 29 -3 10 1 17 13 19 28 7 33 0 21 -32z m-225 -32 c14 -17 17 -40 17 -141 0 -125 9 -196 41 -307 10 -35 16 -66 14 -69 -18 -18 -72 91 -105 214 -17 59 -23 113 -24 208 -3 125 -2 127 18 121 12 -3 29 -15 39 -26z m477 -85 c0 -160 -45 -336 -105 -408 -30 -37 -31 -23 -5 74 25 91 41 244 33 327 -6 60 -4 64 25 93 17 17 35 31 41 31 7 0 11 -40 11 -117z m-240 -232 c0 -93 -17 -214 -30 -206 -8 5 -17 71 -24 170 -4 56 10 210 20 226 13 21 33 -93 34 -190z"/> <path d="M1446 2500 c-13 -16 -27 -44 -31 -62 -11 -48 -11 -48 -60 -31 -41 14 -48 14 -70 -1 -34 -23 -31 -45 12 -97 49 -58 53 -61 90 -87 36 -25 70 -28 99 -8 18 13 24 13 48 0 57 -29 105 -8 180 80 51 60 57 88 23 111 -22 14 -45 12 -98 -10 -13 -5 -20 4 -33 43 -21 62 -50 89 -98 90 -29 1 -42 -5 -62 -28z m54 -94 c0 -51 -3 -108 -6 -126 -9 -41 -41 -58 -75 -39 -38 22 -142 136 -130 144 15 8 92 -27 115 -54 11 -11 22 -21 26 -21 4 0 10 27 13 60 7 66 30 130 46 130 7 0 11 -35 11 -94z m58 65 c15 -35 34 -140 26 -152 -10 -17 9 -9 40 18 39 33 96 57 107 46 11 -11 -109 -138 -140 -148 -15 -5 -29 -1 -42 11 -17 15 -19 31 -19 136 0 65 3 118 8 118 4 0 13 -13 20 -29z"/> <path d="M1380 1625 c-10 -12 -7 -15 14 -21 14 -3 38 -3 52 0 21 6 24 9 14 21 -7 8 -25 15 -40 15 -15 0 -33 -7 -40 -15z"/> <path d="M1560 1625 c-10 -12 -7 -15 14 -21 14 -3 38 -3 53 1 27 6 27 7 9 21 -25 18 -60 18 -76 -1z"/> <path d="M1490 1540 c-12 -8 -12 -10 3 -16 9 -3 25 -3 34 0 15 6 15 8 3 16 -8 6 -17 10 -20 10 -3 0 -12 -4 -20 -10z"/> <path d="M1450 1475 c0 -6 56 -35 67 -35 4 0 19 9 33 20 l25 20 -62 0 c-35 0 -63 -2 -63 -5z"/> <path d="M2206 1259 c-17 -20 -26 -43 -26 -64 0 -20 -11 -50 -25 -71 -14 -20 -25 -46 -25 -56 0 -11 -16 -39 -36 -61 -19 -23 -38 -55 -41 -70 -3 -16 -15 -35 -27 -42 -45 -30 -121 -129 -123 -160 -1 -16 -2 -31 -2 -32 -1 -1 -13 2 -27 7 -43 17 -102 -27 -88 -65 8 -20 182 -135 204 -135 23 0 50 31 51 61 1 13 -2 49 -6 79 l-8 54 32 -27 c51 -43 80 -46 108 -11 12 16 39 46 58 66 19 20 35 42 35 48 0 6 12 23 26 37 27 27 54 81 54 108 0 9 12 32 26 50 18 23 24 41 19 55 -5 15 2 30 24 56 64 72 26 174 -65 174 -21 1 -50 7 -64 15 -36 21 -45 19 -74 -16z m65 -9 c5 0 9 -4 9 -10 0 -5 -7 -10 -15 -10 -18 0 -32 -47 -18 -61 7 -7 25 3 53 26 45 38 72 39 98 6 24 -30 -1 -111 -34 -111 -18 0 -18 14 1 30 19 15 20 70 2 70 -7 0 -26 -13 -42 -30 -64 -67 -142 -11 -103 75 7 16 17 24 26 20 7 -3 18 -5 23 -5z m-67 -141 c-3 -5 30 -26 73 -46 43 -20 79 -37 81 -38 6 -4 -11 -35 -19 -35 -5 0 -41 16 -80 35 -38 19 -76 32 -84 29 -19 -8 -19 -5 0 40 9 20 20 34 25 31 6 -4 8 -11 4 -16z m0 -117 c5 -14 14 -17 36 -14 62 9 81 -43 41 -112 l-27 -45 -74 49 c-56 38 -77 47 -87 39 -21 -18 -16 4 13 55 23 40 30 46 59 46 24 0 35 -5 39 -18z m-96 -134 c7 -7 12 -25 12 -40 0 -25 3 -28 38 -29 20 -1 45 -1 55 0 21 3 22 -12 2 -29 -10 -9 -32 -11 -65 -7 -56 7 -62 -2 -24 -32 26 -20 28 -51 4 -51 -7 0 -37 25 -69 55 -32 30 -63 55 -69 55 -11 0 -17 -29 -13 -54 1 -5 9 -45 17 -89 9 -47 12 -83 6 -89 -5 -5 -42 14 -91 47 -45 30 -86 55 -91 55 -16 0 -11 14 9 27 16 10 28 5 82 -32 35 -24 64 -43 66 -41 1 1 -1 18 -6 37 -5 19 -12 47 -15 62 -4 15 -11 25 -16 22 -5 -3 -11 -2 -14 3 -2 4 23 38 57 75 63 68 97 83 125 55z"/> <path d="M2141 966 c-9 -11 -6 -17 14 -30 23 -15 26 -15 31 -1 6 15 -11 45 -26 45 -4 0 -13 -6 -19 -14z"/> <path d="M2213 928 c-15 -17 -15 -21 -3 -29 43 -28 49 -29 60 -10 22 42 -24 75 -57 39z"/> <path d="M2041 827 c-8 -11 -5 -19 13 -36 24 -23 46 -21 46 3 0 12 -31 46 -42 46 -3 0 -11 -6 -17 -13z"/> <path d="M683 1241 c-22 -21 -36 -28 -55 -24 -52 10 -78 -67 -42 -123 19 -28 70 -58 84 -49 21 13 17 -14 -5 -35 -30 -29 -31 -49 -5 -78 26 -28 40 -28 101 4 85 43 99 21 46 -73 -45 -80 -49 -98 -25 -128 22 -29 45 -31 111 -11 26 8 49 10 52 5 3 -4 -8 -27 -25 -50 -16 -23 -30 -52 -30 -64 0 -45 94 -112 160 -114 19 -1 29 -9 37 -31 6 -16 23 -35 37 -41 23 -11 29 -9 50 10 14 13 30 36 37 52 17 42 31 31 44 -34 12 -60 37 -97 65 -97 19 0 89 71 110 111 13 23 13 23 21 4 4 -11 8 -36 8 -55 2 -70 56 -104 95 -61 15 16 22 18 42 9 19 -9 28 -8 43 6 15 14 24 15 40 7 32 -18 59 -13 77 15 16 23 16 30 1 93 -10 38 -17 81 -17 95 0 14 -9 35 -20 46 -18 18 -23 19 -52 7 -19 -8 -39 -27 -51 -51 l-20 -37 -26 24 c-14 14 -35 29 -46 35 -31 15 -123 6 -146 -14 -18 -16 -20 -16 -39 9 -20 25 -106 75 -142 82 -9 2 -58 44 -110 94 -77 76 -97 90 -117 86 -22 -6 -23 -4 -19 27 4 26 -6 57 -48 141 -29 59 -59 126 -66 148 -6 22 -25 51 -41 65 -39 33 -78 31 -114 -5z m96 -25 c12 -13 23 -36 24 -52 1 -16 5 -31 8 -34 4 -3 18 -27 31 -55 13 -27 38 -75 55 -105 l31 -55 -38 -65 c-21 -36 -37 -66 -36 -68 2 -1 29 5 60 15 44 13 56 22 57 38 0 18 3 17 22 -9 12 -16 35 -41 52 -55 84 -74 95 -88 95 -129 0 -72 -63 -121 -127 -98 -31 11 -93 59 -93 71 0 4 23 36 51 71 43 54 49 66 39 84 -12 22 -23 21 -105 -5 -112 -36 -130 -28 -90 34 14 23 25 44 25 47 0 4 10 23 23 43 24 40 30 71 13 71 -6 0 -17 14 -23 31 l-12 30 -76 -42 c-62 -34 -79 -39 -86 -28 -15 24 -11 28 66 66 77 39 89 56 50 77 -11 6 -22 12 -25 14 -2 2 2 7 10 12 13 8 12 10 -2 10 -20 0 -24 16 -7 22 19 6 0 48 -22 48 -13 0 -19 -7 -20 -22 -4 -78 -30 -107 -83 -94 -26 6 -46 44 -46 86 0 49 28 38 32 -12 2 -35 7 -43 23 -43 15 0 21 9 27 45 7 44 36 80 62 80 7 0 22 -11 35 -24z m444 -575 c29 -15 36 -31 14 -31 -8 0 -30 -36 -49 -79 -31 -69 -39 -79 -57 -74 -12 3 -21 7 -21 9 0 3 18 40 40 84 24 47 36 82 30 85 -11 7 -3 28 8 23 4 -2 19 -10 35 -17z m71 -34 c13 -9 20 -33 25 -80 4 -36 9 -69 12 -72 10 -9 69 93 63 108 -5 13 6 15 63 14 l68 -2 45 -69 45 -69 13 59 c7 32 15 69 19 81 6 26 63 51 63 28 0 -8 -4 -16 -9 -19 -5 -3 2 -43 15 -88 29 -102 29 -98 1 -98 -20 0 -25 8 -36 62 -14 67 -26 65 -37 -8 -12 -82 -30 -81 -79 2 -14 24 -29 44 -32 44 -3 0 -3 -29 1 -64 6 -57 4 -64 -13 -69 -18 -4 -20 3 -26 89 -5 68 -11 94 -22 98 -18 7 -57 -32 -108 -109 -45 -69 -62 -70 -70 -7 -4 26 -11 65 -15 86 -5 22 -7 43 -4 47 2 4 0 10 -6 14 -12 7 -14 35 -2 35 5 0 16 -6 26 -13z"/> <path d="M1006 661 l-45 -60 22 -16 c47 -33 102 -7 123 57 6 20 -21 68 -43 75 -6 2 -31 -23 -57 -56z"/> </g> </svg> 